<?xml version="1.0" encoding="UTF-8" standalone="no"?>
<!DOCTYPE svg PUBLIC "-//W3C//DTD SVG 1.1//EN" "http://www.w3.org/Graphics/SVG/1.1/DTD/svg11.dtd">
<svg xmlns="http://www.w3.org/2000/svg" version="1.1" viewBox="0.00 0.00 1024.00 1024.00">
<path fill="#0f172a" d="
  M 310.42 137.92
  C 314.67 143.51 309.18 146.63 304.52 143.72
  Q 278.65 127.60 248.99 121.02
  C 222.68 115.19 194.84 113.98 168.70 121.40
  Q 155.10 125.26 145.55 131.28
  C 134.85 138.04 125.84 145.19 118.05 155.57
  Q 90.53 192.20 101.28 237.76
  Q 104.56 251.66 113.41 264.63
  C 123.39 279.27 137.19 292.67 153.27 300.49
  C 156.15 301.90 159.89 304.45 160.06 307.99
  C 160.30 313.02 155.19 313.47 151.50 313.08
  Q 126.92 310.45 104.14 302.08
  C 54.12 283.69 8.92 239.22 6.28 182.85
  C 5.26 160.99 8.79 141.18 19.04 121.55
  C 29.79 100.96 46.11 84.16 65.97 72.43
  C 131.53 33.73 216.39 52.37 273.25 98.10
  C 287.79 109.79 298.25 121.96 310.42 137.92
  Z"
/>
<path fill="#0f172a" d="
  M 714.46 144.59
  C 713.00 144.40 711.49 143.16 711.77 141.51
  Q 712.13 139.29 714.55 136.04
  C 737.63 104.98 769.41 79.83 805.46 65.84
  C 843.44 51.10 885.68 46.70 924.73 57.82
  Q 939.83 62.11 956.71 71.59
  Q 988.32 89.34 1005.20 121.81
  C 1011.94 134.79 1016.23 149.13 1017.42 163.95
  C 1019.31 187.35 1015.47 212.04 1003.77 232.85
  Q 995.00 248.43 983.16 260.90
  Q 965.74 279.24 943.64 291.51
  C 925.84 301.39 905.35 307.67 885.44 311.12
  Q 874.54 313.02 866.81 313.12
  C 864.38 313.15 861.24 312.60 860.86 309.70
  C 859.86 302.17 870.61 300.48 875.43 297.82
  C 896.75 286.07 912.50 265.09 920.16 242.20
  Q 923.49 232.25 924.04 222.57
  C 924.76 209.87 924.65 196.11 920.79 184.20
  Q 916.68 171.55 908.38 159.08
  C 885.14 124.15 845.28 114.10 806.01 116.58
  C 781.57 118.12 756.79 124.18 735.22 134.95
  Q 730.18 137.47 719.40 143.60
  Q 717.06 144.94 714.46 144.59
  Z"
/>
<path fill="#0f172a" d="
  M 266.71 804.44
  C 260.35 808.69 254.84 812.75 254.55 820.76
  C 254.22 830.14 253.39 838.49 248.40 846.59
  Q 232.93 871.70 203.95 873.86
  C 184.63 875.30 167.87 868.16 155.51 853.16
  Q 141.40 836.04 142.68 812.91
  C 143.20 803.64 147.35 792.30 152.35 785.61
  Q 170.00 761.95 199.74 761.13
  Q 204.77 760.99 207.06 760.84
  C 216.19 760.24 223.88 750.29 229.81 743.77
  Q 246.04 725.88 255.36 713.61
  Q 278.22 683.50 296.00 655.02
  Q 312.93 627.90 324.43 601.20
  Q 329.14 590.27 335.11 570.63
  Q 341.98 548.02 343.53 528.02
  C 347.05 482.76 331.19 436.16 309.81 396.66
  Q 294.89 369.09 277.74 344.47
  C 272.54 337.01 266.50 329.32 261.68 323.06
  Q 240.80 295.90 224.33 278.73
  C 219.68 273.88 216.23 270.58 210.00 269.51
  Q 206.62 268.94 198.07 268.86
  C 183.32 268.74 169.02 263.09 158.86 252.28
  Q 146.55 239.19 143.46 222.95
  Q 140.13 205.51 147.68 189.08
  C 153.59 176.23 163.80 167.25 176.37 161.66
  C 194.28 153.71 216.34 156.52 232.39 167.39
  Q 247.33 177.50 253.39 196.45
  C 254.79 200.83 254.85 207.51 255.57 211.95
  Q 256.61 218.26 261.52 222.94
  Q 264.35 225.63 273.25 231.96
  Q 302.91 253.05 318.69 262.82
  Q 332.81 271.55 346.45 279.54
  C 370.28 293.47 398.64 307.57 426.96 318.03
  Q 456.46 328.93 485.23 333.24
  C 516.48 337.93 549.20 333.36 580.30 323.49
  Q 613.40 312.99 643.43 297.41
  C 659.01 289.32 670.76 283.23 685.44 274.28
  C 698.79 266.14 705.82 262.46 716.17 255.40
  C 733.95 243.27 743.23 237.36 754.76 228.87
  C 760.98 224.28 765.10 221.51 767.12 215.19
  C 768.54 210.77 768.05 205.59 768.93 201.26
  C 772.76 182.30 786.15 167.35 803.79 160.77
  C 822.67 153.71 844.02 157.00 859.77 168.98
  Q 872.25 178.47 877.91 193.54
  C 882.07 204.59 881.96 219.09 878.64 230.16
  C 872.62 250.21 854.31 265.10 833.90 268.37
  C 828.69 269.21 824.11 268.93 817.25 268.90
  C 809.80 268.88 804.92 272.69 799.85 278.65
  C 795.95 283.24 791.82 287.16 787.70 292.09
  Q 771.32 311.68 764.14 320.88
  Q 737.90 354.50 716.89 392.16
  Q 703.17 416.77 693.19 443.95
  Q 685.76 464.19 681.84 487.32
  Q 678.47 507.30 679.68 525.54
  Q 681.76 556.85 692.41 586.02
  Q 703.22 615.60 722.44 647.83
  Q 742.21 680.96 765.57 711.22
  Q 784.03 735.14 804.17 755.06
  Q 808.00 758.85 814.28 760.40
  C 817.67 761.24 821.95 760.73 825.26 760.90
  Q 843.60 761.82 855.58 770.44
  Q 866.08 777.98 872.40 787.79
  C 881.04 801.16 881.94 818.79 877.76 834.29
  C 873.78 849.00 861.69 861.54 848.43 868.41
  C 835.93 874.89 820.23 875.50 806.72 872.02
  C 785.64 866.60 769.34 847.33 767.80 825.56
  C 767.26 818.00 766.92 812.94 760.46 808.06
  Q 711.82 771.29 656.73 742.02
  Q 632.35 729.07 605.26 718.21
  Q 581.66 708.74 558.42 703.47
  Q 512.79 693.10 469.88 701.50
  Q 442.55 706.84 412.45 719.48
  C 372.62 736.20 334.00 757.90 297.67 782.45
  C 288.02 788.96 275.40 798.64 266.71 804.44
  Z"
/>
<path fill="#0f172a" d="
  M 312.21 887.96
  A 2.10 2.08 -53.7 0 1 312.48 889.78
  C 311.60 892.47 309.99 894.16 308.31 896.35
  C 294.80 914.04 279.43 929.69 261.32 942.08
  Q 258.46 944.04 247.70 950.34
  C 215.98 968.91 178.21 977.52 141.92 976.76
  C 117.28 976.24 94.92 970.64 73.21 959.97
  Q 59.62 953.28 48.83 943.93
  C 27.99 925.88 11.81 899.88 7.58 872.51
  Q 2.98 842.83 11.79 814.67
  Q 13.91 807.89 16.94 802.20
  C 19.45 797.46 22.19 791.56 25.58 786.37
  Q 38.12 767.14 58.19 752.19
  Q 74.26 740.21 87.15 734.22
  C 103.08 726.81 119.95 721.22 137.55 718.50
  Q 146.30 717.14 152.25 716.45
  Q 154.98 716.13 157.51 717.15
  C 160.08 718.19 159.49 721.83 158.43 723.67
  C 156.10 727.70 151.38 729.79 146.02 732.89
  Q 142.15 735.14 138.41 738.13
  Q 117.76 754.70 106.38 778.65
  Q 100.73 790.55 98.93 806.85
  Q 96.76 826.55 102.92 846.39
  Q 108.86 865.54 122.76 880.67
  Q 137.30 896.48 157.00 905.00
  C 176.86 913.60 197.86 915.80 219.27 914.81
  Q 237.82 913.96 257.81 907.79
  Q 278.60 901.38 290.67 895.04
  Q 295.85 892.31 297.95 890.99
  C 302.63 888.03 308.58 882.72 312.21 887.96
  Z"
/>
<path fill="#0f172a" d="
  M 861.02 719.20
  A 2.87 2.86 -2.2 0 1 863.08 716.99
  Q 865.52 716.33 868.25 716.56
  Q 911.38 720.25 948.35 741.64
  Q 955.05 745.52 968.17 755.60
  Q 988.42 771.16 1001.78 793.97
  Q 1018.95 823.28 1018.01 855.97
  Q 1017.51 873.52 1012.83 889.60
  C 1008.30 905.19 999.56 919.00 989.04 931.47
  Q 982.69 938.99 974.48 945.54
  Q 944.52 969.44 905.74 974.94
  C 865.71 980.63 825.42 973.77 789.02 956.70
  Q 742.39 934.85 712.41 891.84
  C 709.44 887.59 713.78 884.13 718.08 886.48
  C 722.69 889.00 728.44 892.89 732.83 895.03
  Q 752.62 904.71 769.28 908.92
  Q 798.25 916.25 826.00 914.85
  Q 852.62 913.52 876.52 900.24
  Q 886.81 894.52 892.13 889.55
  Q 898.36 883.73 905.00 875.63
  C 914.86 863.61 921.77 847.41 923.53 831.77
  C 925.24 816.56 924.59 800.15 919.24 785.75
  Q 911.32 764.41 894.52 747.74
  C 887.32 740.59 879.76 734.63 871.25 730.79
  C 865.62 728.25 859.66 726.07 861.02 719.20
  Z"
/>
</svg>
