<?xml version="1.0" encoding="UTF-8" standalone="no"?>
<!DOCTYPE svg PUBLIC "-//W3C//DTD SVG 1.1//EN" "http://www.w3.org/Graphics/SVG/1.1/DTD/svg11.dtd">
<svg xmlns="http://www.w3.org/2000/svg" version="1.1" viewBox="0.00 0.00 1773.00 1773.00">
<path fill="#1b3359" d="
  M 129.93 611.19
  Q 120.37 623.15 105.27 624.93
  C 92.46 626.45 79.21 617.98 72.90 607.06
  Q 66.99 596.86 68.36 584.61
  Q 69.03 578.59 73.06 569.49
  Q 74.56 566.08 79.05 554.72
  Q 81.96 547.35 88.91 533.00
  Q 97.43 515.40 99.30 511.54
  Q 117.31 474.55 138.31 440.56
  C 143.27 432.53 149.75 423.59 154.35 416.37
  Q 166.63 397.12 175.97 384.71
  Q 182.41 376.15 193.74 361.19
  C 204.00 347.64 213.53 336.90 223.45 324.85
  C 228.31 318.94 233.94 313.30 240.56 306.33
  C 245.77 300.84 252.49 291.68 257.98 286.72
  Q 269.11 276.66 276.23 269.16
  C 279.81 265.39 284.83 260.82 287.92 258.17
  Q 298.44 249.13 307.05 240.81
  C 314.73 233.38 326.23 225.25 334.10 218.16
  C 343.93 209.31 355.74 201.39 366.60 193.00
  C 375.87 185.83 382.24 180.54 390.30 175.22
  C 394.08 172.74 397.20 170.35 400.83 168.23
  Q 406.93 164.67 421.13 155.15
  C 431.59 148.14 445.96 140.33 457.10 133.75
  Q 474.55 123.44 479.24 121.06
  Q 500.93 110.04 545.18 90.30
  C 560.65 83.41 575.06 78.65 591.57 71.95
  Q 600.40 68.36 610.35 65.30
  Q 642.99 55.26 647.73 53.99
  Q 685.19 43.93 720.56 36.73
  Q 727.63 35.29 733.42 34.45
  C 739.29 33.60 744.19 32.32 750.58 31.35
  C 757.83 30.25 768.81 28.30 777.09 27.62
  C 784.34 27.03 790.22 25.57 797.34 25.09
  Q 806.72 24.45 821.92 23.49
  C 829.03 23.05 835.39 21.98 842.11 21.76
  C 862.07 21.12 878.73 21.30 909.37 21.63
  Q 922.71 21.78 932.66 22.93
  Q 946.37 24.52 965.25 25.93
  C 973.93 26.57 985.37 28.76 992.78 29.63
  C 999.78 30.46 1005.90 31.98 1013.35 33.00
  Q 1019.00 33.77 1025.27 35.13
  C 1030.34 36.23 1035.74 36.56 1041.22 37.78
  Q 1078.91 46.14 1089.77 49.25
  Q 1109.27 54.83 1121.32 58.27
  C 1131.85 61.28 1145.10 65.70 1154.04 68.70
  Q 1161.49 71.20 1194.64 84.46
  C 1199.87 86.55 1204.68 87.92 1208.15 89.13
  C 1222.78 94.27 1228.85 106.58 1230.10 121.30
  C 1230.78 129.26 1227.43 139.17 1221.75 145.04
  C 1212.26 154.85 1200.14 158.06 1186.97 155.75
  Q 1183.04 155.06 1175.49 152.00
  C 1169.40 149.54 1163.37 146.81 1156.31 144.35
  Q 1122.70 132.67 1116.95 130.81
  C 1108.48 128.05 1094.37 124.11 1080.98 119.92
  Q 1075.77 118.29 1069.68 116.85
  Q 1036.68 109.06 1009.04 103.96
  C 995.08 101.39 983.90 100.23 968.06 97.79
  Q 955.45 95.85 938.76 94.55
  Q 891.01 90.82 841.87 92.98
  Q 831.27 93.44 820.15 94.40
  C 811.06 95.19 800.93 95.68 791.28 97.06
  C 779.40 98.76 767.98 99.81 755.15 102.29
  Q 734.04 106.38 724.18 108.19
  Q 712.28 110.38 705.45 112.28
  Q 703.40 112.85 692.93 115.01
  Q 689.65 115.68 680.49 118.04
  Q 659.11 123.54 638.31 130.85
  Q 611.55 140.26 601.77 143.80
  C 578.62 152.18 558.13 161.79 532.84 173.47
  C 521.04 178.92 509.45 185.51 499.20 190.83
  C 490.94 195.11 483.89 199.60 475.70 204.19
  C 468.41 208.29 458.21 215.33 451.60 219.35
  Q 429.28 232.96 408.62 248.60
  Q 400.11 255.05 390.95 261.92
  Q 375.48 273.52 373.36 275.36
  C 359.62 287.32 351.21 294.01 339.30 305.34
  Q 318.65 324.99 302.10 342.07
  Q 293.47 350.98 287.33 358.33
  C 280.14 366.93 274.83 372.52 268.26 380.58
  Q 267.48 381.54 257.13 394.43
  C 247.65 406.24 237.22 421.55 230.74 429.92
  C 223.10 439.78 215.99 451.48 207.44 463.35
  C 198.12 476.29 189.70 490.55 182.52 504.29
  C 178.31 512.36 173.46 519.78 169.50 528.40
  Q 165.72 536.63 158.47 550.27
  C 156.86 553.29 155.02 558.18 153.92 560.43
  Q 143.99 580.67 137.85 595.31
  C 135.18 601.69 134.18 605.88 129.93 611.19
  Z"
/>
<path fill="#1b3359" d="
  M 755.88 833.67
  A 0.62 0.60 -89.9 0 0 756.42 833.12
  Q 756.88 827.51 758.73 814.01
  Q 759.67 807.18 761.40 802.14
  Q 764.53 793.05 765.38 790.62
  C 768.95 780.36 775.67 770.06 782.75 760.25
  Q 787.84 753.20 791.61 749.63
  C 808.50 733.64 825.91 721.78 847.49 715.15
  Q 855.18 712.78 861.15 712.07
  C 867.80 711.27 872.88 709.61 879.67 709.56
  C 890.93 709.46 901.74 709.65 912.43 711.64
  A 2.02 2.01 -69.4 0 0 914.55 710.67
  Q 927.11 689.17 940.03 669.52
  C 945.35 661.42 950.50 654.79 955.76 646.67
  Q 964.67 632.90 968.40 628.14
  Q 989.62 600.99 1000.38 588.12
  Q 1004.95 582.65 1021.32 564.64
  Q 1031.59 553.34 1039.05 546.20
  C 1047.08 538.51 1053.94 530.64 1062.99 521.94
  Q 1083.51 502.19 1099.40 487.91
  C 1104.58 483.26 1109.36 478.23 1115.04 473.23
  Q 1148.68 443.59 1177.90 417.15
  Q 1184.56 411.13 1202.05 396.28
  Q 1212.50 387.41 1226.29 375.52
  Q 1247.37 357.35 1254.66 351.17
  C 1258.38 348.01 1262.82 344.86 1266.33 341.81
  Q 1273.90 335.23 1279.83 330.07
  C 1286.69 324.11 1297.52 315.93 1305.65 308.42
  Q 1311.99 302.57 1315.82 299.58
  Q 1325.92 291.70 1341.20 278.72
  C 1355.50 266.58 1374.73 251.77 1389.98 238.43
  Q 1398.53 230.94 1404.77 226.39
  C 1411.16 221.74 1417.30 215.95 1424.42 210.21
  C 1437.79 199.44 1442.32 196.07 1451.36 188.03
  C 1457.19 182.84 1461.06 180.08 1467.64 175.28
  Q 1472.08 172.04 1474.29 170.15
  Q 1485.95 160.21 1500.32 147.59
  Q 1508.77 140.17 1517.21 136.70
  Q 1519.89 135.60 1528.17 134.20
  Q 1533.95 133.23 1539.30 134.54
  Q 1548.35 136.76 1556.01 142.47
  Q 1564.07 148.48 1569.78 153.99
  Q 1573.64 157.72 1594.86 177.64
  C 1599.79 182.26 1603.77 185.27 1608.79 189.29
  C 1617.58 196.33 1623.63 205.64 1625.78 216.16
  C 1628.19 227.92 1625.86 241.43 1619.05 252.37
  C 1613.02 262.07 1605.66 272.26 1601.83 278.57
  Q 1587.79 301.67 1575.66 320.39
  Q 1571.16 327.34 1566.84 334.65
  Q 1561.59 343.56 1558.19 348.99
  Q 1532.09 390.65 1511.15 422.40
  C 1509.18 425.39 1506.36 430.37 1503.50 434.79
  C 1496.30 445.92 1480.88 468.83 1469.68 486.20
  Q 1463.90 495.15 1458.45 503.14
  Q 1455.27 507.79 1450.24 515.29
  Q 1444.11 524.43 1415.56 567.02
  C 1411.19 573.54 1405.63 580.23 1401.55 586.33
  Q 1385.83 609.86 1375.63 622.41
  Q 1364.37 636.28 1359.26 643.15
  Q 1352.85 651.76 1346.94 658.62
  Q 1335.97 671.32 1334.05 673.65
  C 1324.96 684.61 1313.42 695.05 1302.40 706.72
  Q 1297.51 711.89 1289.04 719.20
  Q 1268.25 737.17 1263.70 740.45
  Q 1234.39 761.53 1220.95 770.69
  Q 1217.24 773.22 1214.32 774.82
  Q 1193.25 786.36 1179.46 793.70
  Q 1168.87 799.33 1150.33 806.76
  Q 1145.43 808.72 1137.30 811.95
  Q 1125.37 816.69 1124.26 817.04
  Q 1111.28 821.06 1094.12 826.60
  Q 1058.65 838.05 1020.98 841.94
  A 1.98 1.97 -1.9 0 0 1019.21 843.82
  Q 1019.12 845.95 1019.09 846.23
  Q 1017.68 864.71 1012.43 880.15
  Q 1011.76 882.13 1007.34 891.84
  C 1001.38 904.96 992.47 917.01 982.60 927.62
  Q 981.09 929.23 972.37 937.04
  Q 965.29 943.37 961.68 945.94
  C 944.65 958.06 925.07 966.49 904.16 968.56
  Q 890.44 969.93 881.06 969.04
  Q 876.26 968.58 871.66 968.72
  A 3.63 3.60 11.9 0 0 868.52 970.75
  Q 865.71 976.54 860.60 984.61
  Q 845.54 1008.36 830.73 1027.95
  Q 823.76 1037.17 819.40 1043.12
  Q 809.79 1056.24 808.04 1058.28
  C 799.52 1068.26 790.03 1080.52 780.33 1090.82
  Q 775.56 1095.88 769.32 1102.81
  Q 760.34 1112.80 758.31 1114.81
  C 745.25 1127.71 732.72 1140.73 719.47 1153.07
  C 707.35 1164.36 701.20 1170.26 692.63 1177.72
  Q 687.90 1181.84 684.59 1185.00
  Q 671.23 1197.76 660.52 1206.39
  C 652.60 1212.77 647.76 1217.38 640.21 1224.11
  C 633.20 1230.36 626.67 1235.21 619.35 1241.88
  Q 614.63 1246.19 606.69 1252.63
  C 590.93 1265.45 581.86 1272.71 569.29 1283.49
  Q 558.59 1292.67 549.83 1299.32
  Q 543.38 1304.21 537.30 1309.27
  C 528.11 1316.94 521.85 1321.42 513.47 1328.79
  Q 509.36 1332.40 502.06 1338.19
  Q 487.15 1350.01 471.61 1362.89
  Q 463.81 1369.34 456.93 1374.59
  Q 444.62 1383.97 442.09 1386.12
  C 432.81 1393.99 423.25 1400.68 414.08 1407.84
  Q 392.21 1424.90 353.74 1455.03
  Q 348.71 1458.97 340.91 1464.54
  C 331.44 1471.29 321.82 1479.47 312.91 1485.82
  C 304.65 1491.71 299.99 1495.09 292.53 1501.29
  C 278.80 1512.70 262.74 1523.73 249.15 1534.40
  C 245.90 1536.96 240.85 1541.78 236.25 1545.16
  C 229.79 1549.91 219.68 1551.79 211.50 1551.93
  Q 200.57 1552.11 191.56 1546.73
  Q 183.87 1542.14 170.97 1531.74
  C 162.28 1524.74 153.13 1514.58 145.44 1507.53
  Q 141.71 1504.11 137.07 1498.89
  Q 129.58 1490.45 129.06 1489.73
  C 123.91 1482.60 120.97 1475.75 120.94 1466.89
  Q 120.89 1456.66 123.03 1449.00
  C 125.51 1440.12 131.54 1433.16 136.19 1425.58
  Q 145.03 1411.20 153.69 1398.48
  C 155.86 1395.29 157.93 1391.18 160.04 1387.80
  Q 165.54 1379.01 173.52 1367.66
  C 178.24 1360.95 183.18 1352.00 187.78 1345.52
  Q 206.80 1318.75 210.22 1313.73
  Q 223.84 1293.75 227.66 1288.51
  C 236.27 1276.71 242.03 1266.28 250.71 1254.22
  Q 269.76 1227.76 272.73 1223.00
  C 275.26 1218.94 278.55 1213.81 280.85 1210.73
  C 290.74 1197.53 299.58 1183.45 310.07 1169.49
  Q 318.03 1158.90 323.88 1150.59
  Q 326.02 1147.55 327.44 1145.49
  Q 337.14 1131.44 344.29 1122.53
  Q 350.25 1115.09 355.43 1107.96
  Q 364.31 1095.72 366.34 1093.23
  Q 368.24 1090.91 389.80 1063.53
  C 393.06 1059.39 397.01 1054.96 400.53 1050.63
  Q 412.79 1035.53 418.03 1029.78
  Q 438.69 1007.13 459.82 986.07
  Q 477.99 967.95 490.71 957.47
  Q 500.94 949.05 501.83 948.31
  C 509.65 941.83 517.33 936.63 526.27 929.56
  Q 533.81 923.60 536.77 921.75
  C 549.92 913.55 563.35 904.78 576.05 897.71
  Q 590.00 889.94 595.51 887.23
  Q 629.48 870.56 647.97 863.01
  C 665.55 855.84 690.00 848.96 712.77 841.83
  Q 722.66 838.73 740.69 836.08
  C 746.97 835.15 750.05 834.32 755.88 833.67
  Z
  M 1057.16 767.14
  Q 1059.38 766.40 1061.45 766.03
  A 4.42 4.29 -61.1 0 0 1062.40 765.74
  Q 1068.04 763.31 1072.22 762.99
  A 1.97 1.33 22.3 0 0 1072.56 762.92
  L 1078.95 760.73
  A 0.04 0.03 -13.3 0 0 1078.98 760.70
  Q 1079.00 760.38 1078.65 760.37
  A 0.14 0.01 -2.9 0 1 1078.85 760.35
  Q 1079.29 760.35 1080.72 759.91
  Q 1095.52 755.33 1101.99 752.64
  C 1110.20 749.24 1117.34 746.92 1125.85 743.08
  C 1135.72 738.61 1143.83 735.23 1151.67 731.15
  Q 1182.82 714.94 1207.63 697.87
  C 1243.40 673.26 1273.66 641.17 1301.17 606.93
  C 1308.23 598.15 1315.30 587.63 1322.59 578.40
  C 1328.18 571.33 1332.24 565.32 1336.88 558.64
  C 1342.50 550.56 1350.82 540.21 1357.24 530.45
  C 1368.60 513.20 1382.51 495.63 1393.52 477.30
  Q 1399.09 468.03 1405.88 458.44
  C 1413.77 447.31 1423.64 431.30 1429.68 421.38
  C 1435.17 412.37 1441.49 403.50 1447.02 394.73
  Q 1457.02 378.89 1459.83 374.58
  Q 1499.22 314.12 1532.12 261.65
  C 1536.91 254.00 1541.72 244.89 1546.20 238.51
  Q 1547.44 236.76 1550.20 232.24
  A 2.25 2.24 -51.9 0 0 1549.87 229.47
  L 1531.81 211.40
  A 1.91 1.90 45.8 0 0 1529.16 211.36
  C 1514.80 224.92 1493.13 242.50 1484.00 250.31
  C 1470.48 261.86 1456.67 272.63 1444.40 283.45
  C 1436.00 290.86 1424.66 299.22 1414.96 307.71
  C 1408.21 313.61 1398.91 320.18 1391.13 326.93
  Q 1381.40 335.37 1369.40 344.78
  C 1358.16 353.60 1347.20 364.06 1336.68 372.68
  Q 1318.72 387.41 1296.06 406.22
  C 1284.75 415.61 1274.87 425.30 1263.66 434.23
  C 1258.85 438.06 1254.96 441.75 1248.81 447.16
  C 1239.24 455.57 1228.19 463.91 1219.67 471.87
  Q 1210.30 480.62 1202.11 487.40
  Q 1192.32 495.51 1171.25 514.49
  Q 1149.40 534.19 1128.37 553.37
  Q 1107.61 572.32 1073.37 608.37
  C 1056.22 626.42 1039.77 647.59 1025.49 665.96
  C 1008.84 687.38 994.94 709.51 978.40 735.65
  Q 977.60 736.91 975.76 738.90
  A 2.16 2.16 0.0 0 0 976.03 742.07
  Q 994.58 756.39 1003.72 777.62
  A 0.82 0.82 0.0 0 0 1004.43 778.12
  C 1010.82 778.60 1017.27 775.48 1023.19 774.30
  Q 1045.85 769.77 1049.58 768.91
  Q 1056.82 767.25 1057.16 767.14
  Z
  M 942.49 804.91
  C 933.25 790.76 921.14 781.58 904.82 778.25
  Q 895.02 776.25 888.01 776.20
  Q 873.51 776.09 860.33 782.84
  C 849.65 788.30 837.51 798.41 831.55 809.04
  C 826.92 817.29 824.26 826.22 823.14 836.17
  C 821.45 851.22 829.14 868.50 838.20 879.88
  C 844.80 888.16 852.46 893.12 862.08 896.71
  Q 888.68 906.62 913.71 895.96
  Q 924.42 891.39 930.71 884.97
  C 951.28 863.96 959.37 830.77 942.49 804.91
  Z
  M 704.04 914.62
  L 704.76 914.38
  A 0.27 0.27 0.0 0 1 704.98 914.86
  Q 704.54 915.13 702.71 915.38
  A 0.22 0.21 74.1 0 0 702.55 915.68
  Q 702.63 915.85 702.80 915.88
  Q 703.15 915.92 702.95 916.01
  Q 701.60 916.60 701.23 916.80
  A 0.03 0.03 0.0 0 1 701.19 916.75
  Q 701.63 916.36 701.63 916.32
  A 0.29 0.29 0.0 0 0 701.18 916.08
  Q 700.78 916.34 698.17 916.69
  Q 697.94 916.72 695.43 917.56
  Q 690.07 919.36 685.98 920.88
  Q 682.15 922.30 679.42 923.52
  Q 674.30 925.81 669.73 927.92
  Q 669.69 927.93 663.93 930.49
  Q 654.72 934.58 625.26 949.03
  Q 600.42 961.21 573.21 980.24
  Q 547.32 998.35 517.42 1025.42
  Q 506.48 1035.32 497.87 1044.89
  C 491.64 1051.82 487.17 1056.10 479.82 1063.82
  Q 475.33 1068.54 454.55 1092.30
  C 448.76 1098.91 443.77 1106.04 437.86 1113.31
  C 419.92 1135.38 406.38 1154.75 384.79 1184.37
  C 375.48 1197.13 368.39 1205.90 360.62 1217.59
  Q 355.96 1224.60 342.76 1242.89
  Q 302.38 1298.82 284.81 1325.28
  Q 258.54 1364.83 255.40 1368.96
  Q 247.18 1379.76 239.93 1391.70
  Q 237.52 1395.68 224.59 1414.56
  Q 199.08 1451.82 194.36 1459.08
  C 192.35 1462.17 195.66 1464.17 198.40 1466.60
  Q 200.21 1468.21 202.39 1470.63
  Q 206.51 1475.21 211.17 1478.64
  A 2.43 2.42 -45.7 0 0 214.09 1478.60
  C 216.66 1476.61 219.02 1474.01 221.49 1472.02
  Q 240.01 1457.05 245.33 1452.52
  Q 254.11 1445.04 269.52 1433.46
  Q 296.48 1413.18 329.82 1386.07
  Q 333.00 1383.49 349.92 1371.12
  C 356.15 1366.57 362.27 1360.95 368.22 1356.41
  C 387.61 1341.62 397.13 1334.88 410.85 1322.82
  Q 415.20 1319.00 424.58 1312.16
  C 434.41 1305.00 442.65 1297.32 451.74 1290.58
  C 463.49 1281.87 474.50 1271.55 487.26 1262.24
  Q 491.81 1258.93 499.53 1252.47
  Q 504.96 1247.93 525.84 1231.47
  C 534.41 1224.72 541.57 1217.52 549.85 1210.79
  Q 565.98 1197.68 588.26 1178.76
  Q 600.32 1168.52 609.50 1159.86
  C 619.42 1150.52 633.24 1140.06 644.45 1129.43
  C 653.03 1121.29 659.68 1115.53 666.27 1108.94
  C 676.73 1098.49 687.33 1089.32 696.56 1079.67
  Q 710.18 1065.42 715.63 1060.10
  Q 723.77 1052.16 729.66 1044.73
  Q 732.02 1041.76 743.25 1028.94
  Q 751.87 1019.10 761.09 1006.52
  Q 778.94 982.17 785.31 973.52
  C 791.17 965.56 798.27 954.53 805.23 944.72
  Q 806.11 943.47 807.13 942.66
  A 1.20 1.20 0.0 0 0 807.15 940.79
  Q 793.94 929.87 783.74 916.51
  Q 775.86 906.19 771.51 898.37
  Q 770.70 896.91 768.97 896.18
  A 1.00 0.98 -52.6 0 0 767.93 896.33
  Q 767.46 896.71 765.61 897.50
  Q 759.21 900.26 748.42 902.10
  Q 744.82 902.71 741.81 903.63
  Q 736.58 905.22 735.25 905.49
  Q 728.69 906.81 728.18 907.31
  A 1.09 1.08 -63.0 0 1 727.28 907.61
  C 725.68 907.39 724.32 908.78 722.71 908.65
  Q 721.58 908.55 720.44 909.31
  A 1.08 0.98 16.6 0 1 720.13 909.46
  L 710.32 912.64
  A 1.10 0.97 30.1 0 1 710.07 912.69
  Q 708.09 912.79 707.56 913.33
  A 1.19 1.17 -61.1 0 1 706.47 913.65
  Q 705.09 913.34 703.89 914.36
  A 0.15 0.15 0.0 0 0 704.04 914.62
  Z"
/>
<path fill="#1b3359" d="
  M 638.43 278.89
  Q 642.58 283.04 645.72 290.05
  C 648.01 295.16 648.17 300.83 648.12 305.51
  C 647.98 318.33 639.75 330.81 628.14 335.89
  C 613.09 342.46 600.88 348.07 587.50 355.94
  Q 560.87 371.59 551.15 378.17
  Q 539.49 386.06 518.06 401.24
  Q 509.38 407.39 503.17 412.57
  C 493.31 420.78 480.97 430.28 471.29 439.62
  C 463.64 446.99 452.33 456.05 444.06 465.07
  C 431.34 478.93 420.80 489.74 410.19 503.46
  C 405.14 510.00 398.73 516.73 394.15 523.40
  C 383.77 538.51 372.52 553.93 363.44 568.94
  Q 360.32 574.10 348.39 595.50
  Q 342.91 605.33 337.91 616.08
  C 333.15 626.28 328.89 634.12 324.81 643.93
  Q 315.40 666.57 307.57 688.81
  Q 306.26 692.51 304.88 697.38
  Q 301.12 710.67 292.30 747.81
  C 290.49 755.40 289.68 761.16 288.21 767.49
  C 286.59 774.49 285.79 783.81 284.65 788.99
  C 282.61 798.28 282.61 806.99 281.19 817.55
  Q 280.17 825.17 279.86 832.51
  Q 278.81 857.25 278.68 878.79
  C 278.57 897.34 280.06 911.73 281.85 934.53
  Q 282.55 943.48 283.61 949.45
  Q 285.30 959.04 285.79 964.33
  C 286.45 971.36 288.22 977.69 289.29 985.27
  Q 289.73 988.42 291.06 993.59
  Q 294.47 1006.90 295.69 1014.11
  Q 296.69 1020.00 298.78 1028.25
  Q 300.81 1036.25 301.04 1042.53
  Q 301.72 1061.07 286.74 1072.98
  Q 280.24 1078.14 272.30 1078.87
  C 260.43 1079.96 251.13 1077.77 242.46 1069.10
  C 236.84 1063.49 233.00 1055.12 230.66 1046.28
  Q 225.67 1027.38 224.98 1023.77
  Q 221.73 1006.47 218.71 992.80
  Q 217.50 987.28 213.88 960.02
  Q 213.86 959.87 211.43 940.08
  Q 209.91 927.71 209.73 918.27
  C 209.60 911.94 208.63 906.16 208.48 900.26
  Q 207.80 873.37 208.21 849.75
  C 208.41 838.12 209.89 826.27 210.39 815.97
  C 210.99 803.52 213.43 788.99 214.84 777.31
  Q 217.04 759.03 219.65 747.02
  Q 223.00 731.62 225.21 720.68
  C 226.60 713.81 228.50 707.66 230.24 701.15
  Q 236.80 676.63 241.97 662.16
  Q 244.14 656.08 249.63 640.84
  Q 256.45 621.91 265.82 602.88
  C 270.39 593.59 274.25 583.88 278.43 575.96
  Q 287.27 559.22 296.53 544.01
  C 304.79 530.44 310.69 520.04 319.40 507.72
  C 332.46 489.26 343.28 473.59 356.62 458.28
  C 365.12 448.52 370.21 441.73 377.75 433.82
  C 390.74 420.22 395.70 414.47 408.11 403.09
  C 414.88 396.88 429.68 382.62 441.00 373.07
  C 451.54 364.17 463.51 354.93 470.23 349.63
  C 480.92 341.19 492.70 333.59 503.05 326.43
  Q 510.38 321.35 521.40 314.66
  Q 550.71 296.85 551.26 296.52
  Q 560.90 290.77 570.56 286.32
  Q 584.67 279.83 596.61 273.82
  Q 612.84 265.64 629.27 271.96
  Q 632.89 273.35 638.43 278.89
  Z"
/>
<path fill="#1b3359" d="
  M 912.36 488.35
  Q 910.72 490.12 905.07 494.13
  Q 898.60 498.72 889.75 498.99
  Q 859.43 499.91 841.77 502.31
  Q 830.59 503.83 801.95 509.97
  Q 788.49 512.85 772.18 518.01
  Q 758.69 522.28 743.48 529.27
  C 723.50 538.45 705.26 547.57 687.33 559.74
  Q 673.63 569.03 663.11 576.61
  Q 655.65 581.97 650.29 587.04
  Q 646.35 590.77 629.08 606.81
  Q 626.02 609.66 617.28 620.78
  C 602.69 639.35 570.18 641.96 558.20 618.55
  C 553.84 610.03 553.82 599.50 556.03 590.25
  Q 557.86 582.57 563.64 576.32
  Q 594.00 543.52 619.58 522.55
  Q 625.32 517.84 643.62 504.84
  Q 655.14 496.66 668.95 489.04
  Q 683.71 480.89 698.16 473.32
  C 716.03 463.96 735.16 457.74 753.94 451.02
  C 770.69 445.03 788.13 441.84 805.78 438.68
  Q 813.95 437.22 817.79 436.66
  Q 838.84 433.56 862.26 432.40
  Q 865.56 432.23 878.35 432.37
  Q 889.48 432.49 893.77 433.10
  Q 912.26 435.74 918.82 452.94
  Q 919.21 453.95 920.60 460.09
  Q 921.55 464.26 921.26 467.40
  Q 920.11 479.93 912.36 488.35
  Z"
/>
<path fill="#1b3359" d="
  M 1367.98 1536.86
  Q 1369.38 1529.17 1373.23 1523.47
  Q 1375.09 1520.72 1380.19 1516.44
  C 1394.03 1504.82 1407.55 1494.79 1421.31 1482.45
  Q 1428.24 1476.24 1440.19 1466.19
  Q 1446.64 1460.78 1467.43 1439.18
  Q 1467.61 1438.99 1488.98 1416.25
  C 1500.21 1404.30 1512.05 1389.00 1521.12 1378.47
  C 1529.71 1368.50 1535.42 1359.56 1543.65 1349.23
  Q 1546.84 1345.21 1552.18 1337.17
  Q 1559.96 1325.46 1567.02 1315.32
  Q 1571.47 1308.93 1572.85 1306.61
  C 1575.21 1302.63 1577.93 1298.99 1580.36 1294.81
  Q 1602.01 1257.58 1612.80 1236.54
  Q 1617.52 1227.35 1629.69 1199.38
  C 1633.95 1189.58 1638.58 1180.40 1641.66 1171.67
  Q 1647.68 1154.64 1657.25 1126.78
  Q 1664.06 1106.95 1672.31 1072.83
  Q 1674.56 1063.52 1675.16 1059.43
  C 1676.02 1053.59 1677.63 1048.05 1678.83 1041.49
  Q 1680.66 1031.47 1683.26 1016.01
  Q 1685.55 1002.36 1686.27 994.92
  C 1687.14 985.81 1688.53 976.94 1689.39 966.68
  Q 1691.37 943.04 1691.67 940.23
  C 1693.64 921.38 1693.48 900.82 1693.19 881.95
  Q 1693.01 870.09 1691.81 853.57
  C 1690.91 841.34 1690.61 823.97 1688.48 809.10
  Q 1687.42 801.71 1686.81 795.89
  C 1686.18 790.00 1684.31 782.29 1683.65 776.23
  Q 1682.89 769.21 1682.12 765.81
  C 1681.10 761.29 1680.82 756.83 1679.59 752.01
  C 1677.57 744.08 1676.46 736.21 1674.43 727.33
  Q 1674.28 726.67 1670.19 709.11
  C 1667.68 698.36 1665.13 690.39 1662.53 680.98
  C 1660.18 672.48 1656.50 663.11 1654.47 655.98
  Q 1653.68 653.21 1649.33 641.60
  Q 1646.94 635.26 1644.37 627.14
  Q 1643.44 624.21 1638.89 613.00
  Q 1635.54 604.73 1633.32 598.91
  Q 1626.48 581.01 1616.08 559.90
  Q 1603.39 534.15 1593.71 516.77
  C 1589.68 509.53 1590.49 496.80 1592.23 489.97
  C 1594.06 482.85 1599.80 475.42 1606.72 471.51
  Q 1621.40 463.23 1637.53 468.81
  C 1646.41 471.88 1653.31 478.86 1657.69 486.80
  Q 1666.98 503.66 1678.04 525.23
  Q 1678.81 526.72 1691.70 554.04
  Q 1698.42 568.26 1704.02 583.22
  Q 1714.11 610.16 1715.69 615.06
  Q 1721.16 632.11 1730.67 661.83
  Q 1732.54 667.68 1733.69 672.80
  C 1736.29 684.35 1739.81 697.12 1742.36 709.24
  Q 1743.94 716.76 1745.47 722.97
  Q 1747.78 732.28 1748.65 736.68
  Q 1752.84 758.03 1753.87 765.06
  Q 1755.96 779.35 1756.28 781.02
  Q 1758.00 790.26 1758.47 796.71
  Q 1759.20 806.81 1759.98 812.52
  C 1761.73 825.24 1762.12 839.07 1762.49 851.50
  C 1762.75 860.13 1763.83 868.70 1763.89 876.85
  Q 1764.16 915.57 1763.66 928.22
  C 1763.47 932.94 1762.13 940.04 1761.87 945.92
  C 1761.43 955.91 1761.08 966.65 1759.72 977.67
  Q 1757.67 994.32 1756.87 1002.96
  Q 1756.27 1009.49 1754.86 1017.50
  Q 1754.56 1019.17 1752.69 1032.04
  C 1752.14 1035.87 1750.90 1040.18 1750.33 1044.27
  Q 1748.30 1058.95 1744.63 1073.43
  Q 1739.49 1093.70 1738.53 1098.37
  C 1736.74 1107.11 1733.60 1115.84 1731.89 1123.92
  C 1730.85 1128.86 1728.99 1133.24 1727.89 1138.43
  Q 1727.43 1140.60 1726.23 1144.22
  C 1715.41 1176.76 1708.74 1197.45 1698.40 1219.98
  C 1696.41 1224.31 1694.77 1229.24 1692.95 1233.14
  Q 1678.80 1263.28 1673.03 1274.79
  Q 1664.47 1291.87 1651.66 1313.69
  Q 1639.42 1334.53 1621.99 1360.83
  C 1610.74 1377.81 1598.19 1393.67 1585.39 1411.39
  C 1582.07 1415.98 1577.21 1421.39 1572.73 1427.05
  Q 1558.28 1445.33 1540.00 1466.25
  C 1529.37 1478.42 1519.93 1487.15 1503.75 1502.88
  Q 1492.65 1513.68 1483.00 1521.83
  Q 1480.21 1524.19 1461.88 1540.37
  Q 1459.43 1542.53 1449.96 1549.96
  Q 1433.56 1562.82 1427.99 1567.47
  Q 1417.23 1576.44 1401.04 1577.20
  Q 1399.15 1577.29 1392.90 1575.88
  C 1375.02 1571.85 1364.89 1553.90 1367.98 1536.86
  Z"
/>
<path fill="#1b3359" d="
  M 1480.86 1024.38
  Q 1481.52 1021.76 1485.77 997.91
  Q 1486.32 994.84 1487.39 989.18
  Q 1488.86 981.38 1489.87 970.86
  Q 1490.02 969.23 1492.06 957.32
  Q 1493.14 951.00 1493.90 936.95
  Q 1494.40 927.78 1495.34 916.57
  C 1496.65 901.08 1496.10 879.27 1496.55 865.74
  C 1496.86 856.33 1501.86 845.13 1509.73 839.46
  C 1517.74 833.68 1528.11 830.05 1538.22 831.71
  A 9.27 9.03 58.7 0 1 1539.73 832.10
  C 1544.10 833.66 1548.25 834.78 1551.44 836.69
  C 1563.82 844.11 1567.75 857.74 1567.97 871.34
  Q 1568.55 906.91 1567.67 918.75
  Q 1565.01 954.78 1562.56 972.18
  Q 1561.25 981.47 1560.85 985.43
  Q 1560.16 992.33 1558.92 998.63
  C 1555.07 1018.22 1553.56 1028.19 1549.66 1042.69
  Q 1547.84 1049.51 1546.77 1054.72
  C 1543.05 1072.83 1537.66 1087.44 1532.67 1102.63
  C 1528.96 1113.92 1525.53 1122.00 1520.29 1134.93
  C 1515.81 1146.00 1512.74 1152.31 1506.95 1165.45
  Q 1504.37 1171.32 1497.73 1184.65
  C 1491.21 1197.72 1483.10 1211.91 1477.62 1222.33
  Q 1472.93 1231.25 1466.79 1240.79
  Q 1456.64 1256.56 1443.90 1275.09
  Q 1437.18 1284.87 1429.81 1294.23
  C 1422.06 1304.07 1417.10 1311.14 1410.18 1319.09
  Q 1389.07 1343.35 1385.05 1347.56
  Q 1364.86 1368.74 1353.87 1378.63
  Q 1335.83 1394.87 1328.19 1401.67
  C 1322.25 1406.95 1312.88 1413.22 1306.51 1418.59
  C 1301.70 1422.64 1298.95 1424.82 1294.04 1428.30
  Q 1275.55 1441.43 1248.26 1459.74
  C 1241.27 1464.43 1234.70 1467.91 1227.32 1471.73
  Q 1224.81 1473.04 1215.35 1478.54
  Q 1206.77 1483.54 1198.23 1487.49
  Q 1164.41 1503.14 1154.25 1507.50
  C 1123.68 1520.59 1091.08 1531.84 1061.28 1538.97
  C 1050.96 1541.45 1042.73 1543.75 1033.22 1545.46
  Q 1013.97 1548.92 1013.57 1549.00
  Q 1004.92 1550.90 993.82 1551.72
  C 981.44 1552.64 954.85 1556.61 935.19 1557.44
  Q 914.69 1558.30 911.01 1558.31
  Q 877.82 1558.34 857.26 1557.71
  Q 845.19 1557.34 832.81 1556.06
  Q 819.94 1554.73 818.67 1554.61
  Q 790.77 1551.91 776.55 1549.29
  Q 759.96 1546.24 749.25 1544.13
  Q 732.25 1540.78 722.11 1538.06
  Q 697.01 1531.34 683.28 1526.91
  C 678.06 1525.22 673.11 1521.44 669.46 1517.01
  Q 661.51 1507.37 660.98 1494.17
  Q 660.20 1474.78 675.64 1464.58
  Q 689.21 1455.62 706.39 1460.96
  Q 734.69 1469.76 744.05 1471.36
  C 748.52 1472.12 753.87 1474.19 758.24 1474.78
  Q 762.09 1475.31 773.99 1477.70
  Q 788.93 1480.70 807.67 1483.47
  Q 822.52 1485.65 836.43 1486.19
  Q 868.75 1487.44 886.00 1487.71
  Q 914.63 1488.16 943.98 1486.51
  C 955.29 1485.88 966.65 1484.26 977.84 1483.11
  Q 984.77 1482.40 993.04 1480.87
  C 999.95 1479.59 1006.36 1478.99 1013.25 1477.43
  Q 1033.11 1472.93 1034.74 1472.48
  Q 1049.67 1468.38 1061.86 1465.32
  C 1074.38 1462.19 1086.65 1458.61 1099.30 1453.61
  Q 1123.32 1444.13 1141.55 1436.28
  Q 1149.85 1432.70 1161.69 1426.46
  C 1165.50 1424.45 1169.91 1422.62 1173.81 1420.57
  C 1186.85 1413.68 1202.67 1405.23 1217.20 1395.68
  Q 1244.62 1377.67 1249.91 1373.68
  C 1267.76 1360.21 1283.27 1348.29 1297.63 1334.31
  C 1306.75 1325.42 1317.76 1315.98 1324.98 1308.24
  C 1334.02 1298.54 1345.48 1286.56 1355.96 1273.63
  Q 1366.35 1260.81 1375.38 1249.44
  Q 1379.07 1244.79 1381.85 1240.86
  C 1383.89 1237.96 1387.47 1233.18 1390.06 1229.09
  Q 1400.50 1212.63 1407.36 1202.61
  Q 1408.45 1201.02 1417.06 1186.42
  Q 1422.21 1177.69 1426.05 1169.84
  C 1431.42 1158.85 1435.58 1151.51 1440.26 1140.84
  Q 1446.23 1127.24 1451.32 1115.36
  Q 1458.63 1098.31 1469.32 1067.33
  Q 1472.66 1057.66 1475.48 1045.97
  Q 1475.92 1044.13 1480.86 1024.38
  Z"
/>
<path fill="#1b3359" d="
  M 14.48 870.75
  C 15.44 855.10 27.02 843.97 41.42 839.37
  Q 49.72 836.72 57.71 838.87
  C 70.50 842.31 79.47 852.05 83.33 864.41
  Q 84.80 869.12 84.85 882.28
  Q 84.94 904.69 86.47 927.62
  Q 87.68 945.78 91.51 974.87
  Q 92.26 980.61 93.89 988.02
  Q 95.14 993.70 95.87 1001.24
  C 96.23 1005.00 97.64 1008.75 98.16 1012.83
  C 99.26 1021.28 101.31 1028.96 102.76 1037.17
  Q 108.77 1071.16 119.78 1102.96
  Q 122.96 1112.15 125.33 1119.68
  C 127.42 1126.31 130.13 1135.16 132.98 1141.95
  Q 136.26 1149.76 139.03 1156.98
  C 144.10 1170.21 149.90 1181.98 156.77 1196.77
  C 162.23 1208.50 167.17 1217.27 173.67 1229.36
  Q 176.61 1234.83 177.76 1240.58
  C 179.36 1248.66 176.74 1258.95 172.71 1265.47
  Q 162.96 1281.21 144.02 1281.96
  C 129.28 1282.55 118.30 1275.67 110.56 1263.41
  C 103.31 1251.94 98.28 1240.46 92.95 1228.97
  Q 87.83 1217.92 85.45 1212.28
  C 80.21 1199.82 73.15 1183.90 68.28 1170.76
  C 60.66 1150.16 55.11 1132.95 48.00 1109.53
  Q 41.48 1088.02 36.12 1064.15
  Q 34.35 1056.29 30.32 1038.46
  Q 28.22 1029.20 27.24 1022.80
  C 26.05 1015.03 24.80 1009.45 23.96 1001.79
  C 22.76 990.76 20.58 980.25 19.70 970.46
  Q 19.23 965.27 18.36 959.65
  C 17.20 952.22 16.81 943.49 16.38 935.13
  C 16.01 928.01 14.46 918.72 14.35 910.74
  Q 13.94 879.52 14.48 870.75
  Z"
/>
<path fill="#1b3359" d="
  M 860.15 1269.32
  C 851.93 1261.90 848.35 1251.24 849.20 1239.74
  C 850.22 1226.00 859.72 1215.15 872.51 1210.61
  Q 875.66 1209.49 883.50 1209.30
  C 895.70 1209.00 912.27 1208.68 928.27 1207.24
  Q 934.66 1206.67 945.63 1204.63
  Q 971.96 1199.73 984.86 1195.81
  Q 1010.21 1188.09 1039.61 1174.86
  Q 1046.15 1171.92 1057.57 1164.79
  Q 1070.03 1157.01 1080.00 1150.25
  Q 1089.73 1143.65 1095.42 1138.93
  Q 1101.33 1134.03 1113.60 1122.15
  Q 1117.82 1118.06 1119.99 1116.46
  C 1124.85 1112.86 1129.19 1109.47 1134.98 1108.07
  Q 1158.60 1102.37 1173.01 1122.54
  Q 1175.86 1126.53 1176.66 1130.10
  C 1177.54 1133.99 1178.69 1138.07 1178.36 1142.41
  C 1177.48 1153.81 1173.13 1162.58 1164.94 1170.09
  C 1157.21 1177.17 1149.28 1183.59 1136.29 1194.70
  Q 1133.97 1196.68 1131.46 1198.56
  C 1120.16 1207.05 1108.22 1214.80 1095.58 1223.06
  C 1078.88 1233.98 1064.66 1239.90 1043.59 1249.20
  Q 1034.61 1253.17 1028.11 1255.17
  C 1022.34 1256.94 1014.41 1259.88 1006.98 1261.78
  Q 974.89 1269.98 952.98 1273.72
  Q 951.21 1274.02 926.20 1276.91
  Q 906.86 1279.14 883.78 1278.38
  Q 876.85 1278.16 872.05 1276.21
  Q 864.32 1273.09 860.15 1269.32
  Z"
/>
<path fill="#1b3359" d="
  M 1018.07 1718.08
  Q 1015.23 1731.74 1004.14 1739.64
  C 996.57 1745.04 989.84 1746.71 979.77 1747.69
  Q 977.18 1747.94 956.02 1749.95
  C 940.38 1751.44 926.23 1751.44 911.57 1752.63
  C 900.34 1753.54 883.94 1753.42 875.25 1753.06
  Q 864.35 1752.60 824.19 1750.26
  Q 816.35 1749.81 808.87 1748.76
  C 798.63 1747.33 789.17 1746.72 777.00 1744.69
  Q 774.27 1744.24 760.46 1742.26
  Q 745.37 1740.10 720.57 1734.63
  Q 682.12 1726.15 672.73 1723.51
  Q 660.26 1720.00 648.57 1716.71
  C 630.10 1711.51 614.09 1705.80 595.44 1699.05
  C 589.99 1697.08 584.25 1694.51 578.44 1692.52
  Q 564.33 1687.70 557.21 1684.55
  Q 517.55 1667.04 494.69 1654.99
  Q 468.13 1640.99 450.30 1630.45
  Q 437.63 1622.96 420.78 1611.73
  Q 420.06 1611.25 388.91 1590.06
  Q 375.81 1581.14 369.88 1568.14
  Q 365.85 1559.31 366.78 1549.76
  C 368.26 1534.64 380.56 1522.74 395.38 1520.23
  Q 405.91 1518.45 417.15 1523.37
  Q 420.73 1524.93 430.69 1533.10
  Q 441.42 1541.91 456.60 1551.40
  Q 482.42 1567.56 497.34 1576.67
  C 504.51 1581.04 513.13 1584.68 520.32 1588.74
  Q 530.94 1594.74 536.41 1597.33
  Q 569.78 1613.18 582.02 1618.47
  Q 602.74 1627.43 615.97 1631.73
  Q 635.87 1638.19 639.46 1639.78
  C 643.49 1641.55 648.26 1642.33 652.41 1644.08
  Q 655.08 1645.20 657.56 1645.86
  Q 666.61 1648.28 687.13 1654.41
  C 693.74 1656.39 701.19 1657.53 707.66 1659.54
  C 712.57 1661.07 716.55 1661.58 721.56 1662.98
  Q 723.28 1663.46 727.17 1664.20
  Q 738.63 1666.37 746.71 1668.10
  Q 759.50 1670.84 766.94 1671.75
  C 776.35 1672.91 784.00 1674.66 794.07 1675.72
  Q 836.89 1680.26 843.76 1680.56
  Q 876.84 1681.96 912.61 1681.45
  C 929.38 1681.22 942.72 1680.29 963.15 1679.33
  C 967.20 1679.14 970.26 1678.63 975.76 1677.83
  Q 991.12 1675.58 1004.98 1685.52
  C 1014.35 1692.22 1020.41 1706.79 1018.07 1718.08
  Z"
/>
</svg>
