<?xml version="1.0" encoding="UTF-8" standalone="no"?>
<!DOCTYPE svg PUBLIC "-//W3C//DTD SVG 1.1//EN" "http://www.w3.org/Graphics/SVG/1.1/DTD/svg11.dtd">
<svg xmlns="http://www.w3.org/2000/svg" version="1.1" viewBox="0.00 0.00 1773.00 1773.00">
<g stroke-width="2.00" fill="none" stroke-linecap="butt">
<path stroke="#8d99ac" vector-effect="non-scaling-stroke" d="
  M 1006.40 103.47
  C 1015.27 105.07 1019.05 106.04 1026.81 107.50
  Q 1043.13 110.56 1050.22 112.32
  Q 1061.34 115.09 1064.45 115.61
  C 1068.65 116.31 1071.69 117.42 1075.77 118.38
  C 1081.08 119.62 1085.95 121.75 1091.71 123.16
  Q 1091.73 123.17 1099.32 125.36
  Q 1109.46 128.29 1119.40 131.65
  Q 1146.65 140.88 1154.49 143.68
  C 1163.03 146.72 1167.73 148.76 1177.34 152.75
  C 1190.92 158.40 1205.89 158.01 1217.61 148.85
  C 1231.58 137.95 1233.18 119.30 1225.56 104.19
  Q 1219.96 93.09 1208.27 89.21
  Q 1206.33 88.57 1199.75 86.45
  Q 1196.05 85.27 1183.40 79.93
  C 1177.03 77.24 1171.79 75.62 1165.39 73.00
  Q 1158.29 70.09 1151.80 68.00
  C 1142.28 64.94 1131.28 61.16 1121.76 58.45
  Q 1109.55 54.98 1094.18 50.47
  C 1088.45 48.79 1082.13 47.69 1077.30 46.12
  Q 1073.36 44.85 1070.38 44.40
  C 1064.31 43.50 1058.36 41.35 1053.03 40.33
  C 1045.05 38.80 1040.22 37.25 1032.58 36.35
  Q 1027.50 35.76 1022.27 34.55
  C 1016.69 33.27 1010.59 32.80 1005.15 31.73
  C 996.25 29.96 987.88 29.04 978.58 27.57
  Q 972.63 26.63 964.82 25.93
  C 950.29 24.63 943.25 24.27 931.23 22.85
  Q 924.53 22.07 918.25 21.92
  Q 883.88 21.14 855.48 21.49
  Q 842.12 21.66 827.43 22.99
  Q 814.60 24.15 796.04 25.10
  C 791.50 25.34 784.93 26.80 778.96 27.43
  Q 761.44 29.26 746.28 32.12
  Q 736.95 33.88 734.57 34.24
  C 724.93 35.70 712.20 38.36 705.98 39.75
  Q 673.90 46.89 648.30 53.84
  C 637.18 56.86 625.43 60.78 613.87 64.23
  C 597.20 69.20 582.05 75.85 565.78 81.89
  C 558.01 84.78 549.71 88.41 543.89 90.92
  Q 520.64 100.92 484.98 118.19
  C 475.07 122.99 468.09 127.38 458.18 133.16
  Q 447.73 139.25 439.24 144.15
  Q 426.71 151.37 420.54 155.56
  C 406.62 165.01 392.41 172.96 379.53 183.04
  Q 363.01 195.96 351.82 204.08
  Q 341.88 211.28 333.30 218.86
  C 325.61 225.66 314.88 233.21 308.35 239.60
  Q 303.29 244.55 284.20 261.71
  C 281.20 264.41 279.08 266.08 276.74 268.59
  Q 270.29 275.52 263.02 282.09
  C 255.50 288.88 252.38 292.69 245.30 301.05
  Q 240.87 306.28 229.92 317.66
  Q 225.81 321.93 219.52 329.54
  C 209.46 341.72 203.88 347.90 194.59 360.15
  Q 179.66 379.82 173.14 388.63
  Q 166.60 397.48 154.39 416.40
  C 149.34 424.21 143.16 432.79 138.07 441.01
  Q 117.86 473.67 100.36 509.58
  Q 96.97 516.55 88.44 534.07
  Q 82.36 546.54 79.97 552.57
  Q 76.22 562.01 72.24 571.40
  C 68.69 579.76 67.17 587.25 68.77 595.77
  Q 71.42 609.85 83.15 618.33
  C 90.35 623.54 98.54 626.31 107.24 624.70
  Q 121.91 621.98 130.62 610.45
  Q 133.50 606.63 136.87 597.96
  C 142.11 584.47 147.46 574.33 153.61 560.87
  Q 159.63 547.66 162.49 542.46
  C 167.25 533.80 170.39 525.61 175.17 517.39
  Q 178.97 510.87 190.87 489.09
  Q 193.18 484.86 195.15 481.88
  C 199.28 475.65 202.20 470.44 206.66 464.38
  C 215.06 452.94 222.22 440.86 230.08 430.75
  C 237.02 421.83 247.21 406.79 256.84 394.75
  Q 265.46 383.96 268.08 380.75
  C 274.68 372.63 280.26 366.79 287.35 358.27
  Q 293.40 351.00 302.29 341.85
  Q 319.33 324.32 341.66 303.06
  C 349.99 295.12 357.84 289.01 365.32 282.24
  Q 372.38 275.86 383.68 267.35
  Q 412.07 245.97 421.51 239.02
  Q 428.91 233.58 455.87 216.60
  C 462.36 212.51 469.11 207.89 475.27 204.42
  Q 482.27 200.48 485.69 198.41
  C 495.27 192.63 507.38 186.59 514.64 182.59
  Q 523.01 177.98 533.39 173.20
  Q 560.63 160.66 571.48 156.03
  C 581.32 151.82 585.00 150.05 593.85 146.79
  Q 615.47 138.83 643.34 129.12
  Q 646.36 128.07 663.37 122.75
  C 668.21 121.23 672.37 120.49 676.85 119.09
  C 688.13 115.57 698.78 114.08 709.87 111.23
  Q 715.26 109.84 728.98 107.31
  Q 733.01 106.57 748.13 103.66
  Q 765.75 100.27 768.50 99.95
  Q 781.84 98.40 789.19 97.37
  C 802.30 95.55 812.63 95.38 824.80 94.05
  Q 830.87 93.40 839.70 93.00
  Q 889.75 90.76 939.43 94.48
  C 945.60 94.94 953.69 96.26 959.68 96.62
  Q 963.91 96.88 974.76 98.77
  C 982.58 100.13 991.25 100.81 999.65 102.28
  Q 1003.96 103.03 1006.40 103.47"
/>
<path stroke="#8d99ac" vector-effect="non-scaling-stroke" d="
  M 755.76 833.75
  Q 751.17 833.97 747.74 834.84
  C 742.24 836.24 735.59 836.39 731.22 837.42
  C 722.42 839.48 716.32 840.52 708.77 843.00
  Q 699.63 846.00 679.71 851.93
  C 670.97 854.53 667.20 856.13 657.69 859.29
  Q 650.61 861.65 641.54 865.72
  Q 619.80 875.48 612.90 878.67
  Q 602.25 883.59 578.13 896.55
  C 565.26 903.46 552.70 911.88 537.83 921.06
  C 532.22 924.53 523.75 931.78 516.52 937.11
  Q 510.52 941.53 509.52 942.29
  C 479.22 965.31 451.94 993.29 424.34 1022.95
  Q 413.81 1034.26 407.18 1042.51
  C 399.43 1052.17 391.22 1061.40 383.79 1071.30
  C 380.13 1076.18 374.53 1082.42 370.99 1087.37
  Q 368.42 1090.98 365.16 1094.77
  Q 363.61 1096.57 356.83 1106.17
  C 351.28 1114.02 344.59 1121.87 338.97 1129.51
  Q 332.79 1137.91 326.74 1146.53
  Q 325.57 1148.20 324.19 1150.16
  Q 316.38 1161.26 309.59 1170.23
  Q 302.17 1180.01 295.24 1190.46
  C 288.02 1201.34 280.59 1210.59 273.90 1221.36
  Q 271.34 1225.47 258.28 1243.76
  C 250.33 1254.89 246.32 1260.06 239.95 1270.32
  C 232.84 1281.78 224.19 1293.27 217.26 1303.50
  Q 205.39 1321.02 187.28 1346.27
  Q 185.52 1348.72 179.57 1358.42
  C 172.90 1369.28 164.77 1379.85 158.87 1389.94
  C 151.89 1401.87 145.10 1411.30 136.70 1424.82
  C 131.91 1432.54 125.17 1440.33 122.98 1448.99
  C 120.61 1458.38 119.56 1470.88 123.43 1479.96
  C 126.68 1487.58 130.91 1491.97 137.66 1499.60
  Q 142.00 1504.49 145.81 1507.94
  C 153.04 1514.46 161.43 1523.77 169.39 1530.42
  Q 179.91 1539.20 190.35 1546.00
  C 193.35 1547.95 198.03 1550.25 201.54 1550.92
  C 215.06 1553.49 230.15 1551.14 240.67 1541.69
  C 253.80 1529.91 267.55 1520.31 284.09 1508.09
  C 289.59 1504.02 296.36 1497.78 301.96 1493.66
  C 309.26 1488.32 317.99 1482.37 325.34 1476.38
  C 335.76 1467.90 347.11 1460.35 357.12 1452.40
  Q 379.77 1434.43 395.84 1422.10
  C 407.88 1412.86 416.92 1405.40 430.91 1395.11
  C 436.23 1391.20 441.79 1386.15 447.27 1381.96
  Q 464.41 1368.86 468.48 1365.47
  Q 485.52 1351.26 501.42 1338.67
  Q 510.23 1331.68 512.99 1329.21
  C 522.14 1321.04 527.83 1317.09 538.75 1308.07
  Q 543.58 1304.09 553.19 1296.69
  Q 560.23 1291.28 571.54 1281.55
  C 582.20 1272.39 596.58 1260.74 605.55 1253.52
  Q 613.43 1247.18 616.97 1243.96
  C 626.86 1235.00 636.65 1227.47 645.17 1219.66
  Q 655.00 1210.65 660.70 1206.17
  C 672.15 1197.17 682.22 1187.02 693.45 1176.95
  Q 696.30 1174.40 699.71 1171.45
  Q 702.94 1168.65 725.66 1147.15
  C 735.11 1138.21 743.63 1129.16 752.43 1120.61
  C 761.73 1111.59 770.08 1101.71 779.25 1091.92
  C 788.47 1082.10 796.72 1071.62 804.29 1062.72
  C 809.74 1056.31 814.60 1049.88 820.14 1042.03
  C 826.85 1032.53 837.92 1018.82 844.99 1008.24
  C 855.42 992.61 861.60 983.57 868.33 971.31
  C 869.30 969.55 870.29 968.56 872.26 968.66
  Q 882.63 969.14 891.00 969.36
  Q 896.86 969.51 908.07 968.08
  C 928.64 965.46 948.81 955.92 964.85 943.48
  C 969.40 939.96 973.75 935.62 978.51 931.53
  C 982.74 927.89 985.65 924.14 989.10 920.10
  Q 1001.60 905.43 1009.50 887.21
  Q 1014.26 876.24 1016.32 865.93
  Q 1018.52 854.98 1019.56 843.65
  A 1.90 1.90 0.0 0 1 1021.27 841.93
  Q 1044.86 839.57 1069.62 833.59
  Q 1081.91 830.62 1092.56 827.12
  Q 1103.90 823.39 1115.27 819.92
  Q 1125.80 816.71 1133.86 813.38
  C 1144.97 808.78 1155.24 805.10 1167.15 799.66
  C 1182.45 792.67 1195.97 784.74 1212.17 776.04
  C 1215.33 774.35 1217.53 772.78 1220.60 770.83
  Q 1224.20 768.54 1253.77 747.59
  Q 1265.99 738.94 1274.31 731.84
  Q 1284.31 723.31 1293.91 714.91
  Q 1297.04 712.18 1298.82 710.32
  Q 1310.79 697.87 1318.89 689.95
  Q 1327.23 681.80 1334.11 673.58
  C 1344.52 661.16 1349.59 655.97 1358.65 643.92
  Q 1367.43 632.25 1371.86 627.06
  C 1377.35 620.63 1379.98 616.36 1384.83 610.38
  Q 1387.93 606.55 1393.94 597.45
  Q 1400.49 587.53 1406.70 579.25
  Q 1413.31 570.43 1419.54 561.13
  C 1432.72 541.44 1444.60 524.42 1455.40 507.48
  C 1460.74 499.09 1466.51 491.06 1471.98 482.57
  C 1480.98 468.59 1492.94 450.81 1498.78 441.98
  C 1506.48 430.32 1512.15 420.48 1519.74 409.22
  Q 1525.74 400.32 1535.59 384.71
  Q 1553.37 356.51 1554.64 354.61
  Q 1559.15 347.83 1565.92 336.09
  Q 1569.88 329.22 1577.41 317.67
  Q 1584.36 307.01 1594.71 290.09
  Q 1606.41 270.95 1616.79 256.03
  Q 1626.18 242.53 1626.69 226.97
  C 1627.18 212.03 1620.30 198.21 1608.61 189.15
  Q 1601.69 183.79 1600.91 183.09
  Q 1586.24 169.87 1575.28 159.10
  C 1571.35 155.23 1568.18 152.63 1563.55 148.51
  C 1558.75 144.22 1551.15 138.23 1544.52 136.15
  Q 1537.45 133.93 1534.76 133.80
  Q 1529.73 133.55 1519.93 135.88
  C 1514.52 137.16 1508.68 140.97 1504.62 144.13
  C 1497.75 149.47 1490.77 156.28 1483.66 162.24
  C 1476.44 168.29 1472.32 171.97 1464.11 177.87
  Q 1456.85 183.08 1451.43 187.97
  C 1441.99 196.47 1437.28 199.86 1425.69 209.21
  C 1417.11 216.14 1409.07 223.40 1400.40 229.78
  C 1394.99 233.75 1388.51 239.89 1383.82 243.80
  C 1367.11 257.73 1353.07 268.66 1336.42 282.80
  Q 1328.23 289.76 1315.41 299.94
  C 1309.01 305.02 1302.21 311.79 1295.83 316.90
  Q 1281.47 328.42 1267.91 340.48
  C 1263.31 344.57 1257.78 348.51 1252.65 352.90
  Q 1219.34 381.41 1211.43 388.16
  Q 1199.82 398.05 1186.27 409.78
  Q 1178.21 416.76 1172.54 422.03
  C 1160.97 432.79 1150.29 441.70 1138.23 452.72
  Q 1128.72 461.42 1115.01 473.19
  C 1110.18 477.34 1105.24 482.51 1100.44 486.93
  Q 1062.87 521.54 1056.97 527.74
  Q 1043.93 541.46 1038.68 546.58
  Q 1029.13 555.89 1020.50 565.57
  C 1011.33 575.85 1005.14 581.88 998.41 590.53
  C 991.32 599.64 985.70 605.78 979.25 614.31
  Q 976.29 618.23 968.88 627.62
  Q 964.54 633.13 956.67 645.34
  C 951.03 654.11 942.22 665.82 937.71 672.96
  Q 924.88 693.28 914.51 710.65
  A 1.89 1.89 0.0 0 1 912.60 711.56
  Q 895.03 708.93 876.52 709.75
  C 871.27 709.98 867.02 711.41 861.66 712.00
  Q 856.25 712.60 850.59 714.21
  Q 828.10 720.59 810.27 734.02
  C 799.39 742.20 789.98 749.98 782.13 761.10
  Q 772.15 775.25 767.54 785.30
  Q 765.88 788.90 762.06 800.03
  Q 759.56 807.33 758.50 815.31
  Q 756.71 828.93 756.37 833.15
  A 0.66 0.65 -88.9 0 1 755.76 833.75"
/>
<path stroke="#8d99ac" vector-effect="non-scaling-stroke" d="
  M 231.56 1049.44
  C 235.57 1063.47 245.66 1076.75 260.79 1078.65
  C 269.83 1079.79 278.27 1079.14 285.47 1073.93
  Q 298.94 1064.19 300.94 1048.23
  Q 301.48 1043.92 300.67 1038.33
  Q 299.52 1030.40 299.00 1028.49
  Q 296.38 1018.87 296.02 1016.07
  C 295.03 1008.48 293.26 1002.78 290.99 993.26
  C 289.35 986.34 288.71 980.66 287.42 974.54
  C 285.72 966.50 285.11 957.15 283.40 947.97
  Q 282.27 941.91 281.88 935.49
  C 281.05 921.65 278.71 900.06 278.66 882.14
  Q 278.60 861.33 279.76 833.79
  Q 280.11 825.50 281.40 815.78
  C 282.58 806.94 282.88 798.39 284.53 789.75
  Q 285.05 787.05 285.85 781.75
  C 289.66 756.64 295.33 734.73 301.80 709.02
  C 307.12 687.89 314.91 668.05 324.35 645.05
  C 328.66 634.57 333.42 625.92 338.19 615.55
  Q 342.79 605.56 349.36 593.79
  Q 361.09 572.76 362.76 570.01
  C 371.86 554.91 383.44 538.91 394.28 523.18
  C 397.40 518.67 400.35 515.22 403.96 511.12
  C 409.24 505.12 415.78 495.84 420.83 490.32
  Q 432.80 477.26 444.78 464.28
  C 453.50 454.84 463.39 447.23 473.01 437.93
  Q 477.90 433.19 483.51 428.62
  Q 506.15 410.15 509.99 406.99
  C 513.75 403.89 518.64 400.97 521.95 398.60
  Q 543.91 382.90 547.82 380.34
  Q 572.75 363.99 597.86 350.11
  Q 601.96 347.85 615.55 341.44
  C 620.88 338.93 627.43 336.78 631.63 334.12
  C 641.74 327.72 648.08 317.00 648.07 304.78
  Q 648.06 297.07 647.15 294.06
  C 643.97 283.44 635.43 272.66 624.00 270.27
  C 613.16 268.00 604.92 269.71 595.25 274.54
  Q 584.66 279.83 570.54 286.28
  Q 560.08 291.06 546.76 299.25
  C 529.50 309.86 515.87 317.55 500.70 328.04
  C 490.68 334.97 479.59 342.02 470.67 349.33
  Q 468.57 351.05 456.68 360.19
  Q 454.69 361.72 441.42 372.75
  C 429.05 383.02 422.19 389.98 405.42 405.59
  Q 397.63 412.85 391.76 419.08
  Q 379.63 431.96 378.54 433.03
  Q 374.05 437.45 370.23 442.23
  C 361.89 452.63 351.47 463.79 343.12 475.05
  Q 330.21 492.47 321.14 505.30
  Q 311.80 518.50 306.26 527.88
  Q 298.69 540.69 292.29 551.04
  Q 291.77 551.88 280.72 571.71
  Q 276.43 579.40 271.74 590.47
  Q 270.47 593.48 262.78 609.24
  Q 254.66 625.89 244.65 654.86
  C 243.47 658.28 242.18 661.24 241.08 664.57
  Q 234.42 684.83 228.55 706.94
  Q 225.89 716.96 223.87 727.13
  Q 223.04 731.31 219.55 747.41
  Q 217.09 758.75 215.56 771.37
  Q 214.55 779.66 212.40 795.47
  C 210.66 808.31 210.36 819.62 209.10 832.16
  Q 208.52 837.86 208.36 845.52
  Q 207.91 866.67 208.43 896.76
  C 208.56 904.37 209.58 912.12 209.83 919.42
  C 210.33 934.20 212.97 949.64 214.16 962.24
  C 215.12 972.48 216.79 980.23 218.40 991.17
  Q 218.93 994.77 220.01 998.64
  C 221.06 1002.42 221.47 1006.87 222.57 1011.44
  C 223.89 1016.95 224.32 1021.12 226.23 1029.00
  Q 228.97 1040.34 231.56 1049.44"
/>
<path stroke="#8d99ac" vector-effect="non-scaling-stroke" d="
  M 558.02 584.38
  C 550.05 603.95 555.33 628.19 578.08 634.42
  C 589.43 637.53 602.50 633.89 611.55 626.63
  C 615.91 623.14 619.06 618.50 622.82 613.83
  Q 628.04 607.36 633.84 602.34
  C 640.18 596.86 651.08 585.38 660.50 578.50
  Q 677.76 565.87 697.24 553.23
  Q 703.14 549.39 713.97 543.73
  Q 732.89 533.83 749.90 526.43
  Q 759.97 522.05 768.65 519.19
  Q 787.37 513.04 805.65 509.22
  Q 831.37 503.84 841.76 502.31
  Q 856.70 500.12 891.00 498.82
  Q 898.23 498.55 902.79 495.56
  Q 909.20 491.36 910.95 489.70
  Q 916.93 484.01 919.05 477.37
  Q 921.60 469.38 921.45 464.84
  Q 921.37 462.20 919.53 455.55
  C 916.99 446.39 911.83 439.82 903.07 435.66
  C 898.70 433.59 892.86 432.82 888.00 432.60
  Q 872.11 431.91 857.40 432.66
  Q 842.18 433.44 819.26 436.41
  C 811.93 437.35 802.76 439.32 794.42 440.75
  Q 788.53 441.76 774.55 445.02
  Q 764.03 447.47 755.06 450.61
  C 734.59 457.80 716.29 463.84 697.72 473.55
  Q 674.75 485.55 656.01 496.51
  Q 652.84 498.36 647.88 501.89
  C 636.21 510.19 625.90 517.08 616.03 525.52
  Q 587.50 549.94 564.29 575.78
  Q 559.23 581.42 558.02 584.38"
/>
<path stroke="#8d99ac" vector-effect="non-scaling-stroke" d="
  M 1679.58 751.67
  C 1680.85 756.26 1681.17 761.88 1682.22 766.06
  Q 1682.74 768.14 1682.91 769.76
  Q 1683.87 778.99 1685.00 784.89
  Q 1687.05 795.69 1687.37 799.96
  C 1687.97 807.91 1689.48 815.00 1690.07 823.37
  C 1690.57 830.46 1691.56 849.94 1692.54 863.89
  C 1693.64 879.50 1693.44 895.42 1693.25 912.59
  Q 1693.08 927.40 1691.66 940.36
  C 1690.24 953.44 1689.54 968.26 1687.58 983.26
  C 1686.56 991.14 1685.77 1002.18 1683.87 1011.79
  Q 1682.83 1017.05 1682.44 1020.77
  C 1681.79 1027.09 1679.91 1034.27 1678.70 1042.06
  Q 1678.11 1045.80 1676.47 1052.56
  C 1675.58 1056.19 1674.91 1060.96 1674.36 1063.67
  Q 1672.01 1075.28 1665.07 1100.97
  C 1659.41 1121.93 1651.73 1142.39 1644.55 1163.62
  Q 1640.60 1175.32 1634.91 1187.81
  Q 1631.13 1196.11 1619.54 1222.32
  C 1617.50 1226.92 1613.83 1234.88 1610.65 1240.82
  Q 1595.08 1269.95 1579.41 1296.43
  C 1577.20 1300.17 1574.77 1303.40 1572.40 1307.40
  Q 1571.19 1309.45 1566.97 1315.50
  Q 1560.20 1325.19 1555.20 1332.75
  Q 1547.40 1344.53 1543.23 1349.82
  C 1535.04 1360.20 1530.37 1367.95 1522.26 1377.15
  Q 1519.01 1380.83 1505.79 1397.07
  Q 1498.06 1406.56 1488.75 1416.53
  Q 1464.89 1442.10 1455.75 1451.25
  C 1449.42 1457.57 1442.68 1464.31 1436.02 1469.82
  Q 1426.53 1477.66 1417.00 1486.26
  C 1406.93 1495.35 1399.21 1500.86 1386.84 1510.92
  Q 1375.71 1519.98 1373.79 1522.75
  Q 1368.31 1530.69 1367.66 1539.06
  C 1366.34 1556.16 1375.99 1572.79 1393.93 1576.11
  Q 1400.76 1577.37 1401.81 1577.29
  Q 1417.95 1575.99 1428.29 1567.26
  Q 1436.95 1559.93 1449.27 1550.53
  Q 1457.26 1544.43 1472.24 1531.24
  C 1483.19 1521.60 1492.11 1514.19 1501.61 1504.91
  Q 1522.09 1484.90 1526.38 1480.63
  C 1531.10 1475.93 1539.07 1467.59 1545.25 1460.19
  C 1553.05 1450.85 1564.22 1438.22 1572.28 1427.52
  C 1576.25 1422.25 1581.56 1416.61 1585.26 1411.51
  Q 1596.60 1395.87 1604.14 1385.91
  Q 1614.38 1372.38 1622.53 1359.95
  Q 1641.78 1330.61 1651.35 1314.14
  Q 1666.72 1287.68 1672.48 1275.97
  Q 1672.96 1274.99 1686.43 1247.20
  C 1691.58 1236.56 1696.62 1224.14 1700.83 1214.54
  Q 1705.65 1203.56 1707.30 1199.06
  Q 1717.52 1171.22 1726.13 1144.41
  Q 1727.62 1139.78 1730.96 1127.15
  Q 1734.28 1114.63 1735.68 1109.86
  Q 1737.29 1104.33 1738.94 1096.62
  C 1741.83 1083.08 1746.85 1066.29 1748.38 1056.41
  Q 1749.87 1046.84 1751.09 1040.53
  C 1753.27 1029.20 1753.92 1022.20 1755.72 1012.57
  Q 1756.27 1009.59 1757.11 1000.42
  Q 1757.73 993.53 1759.33 981.66
  Q 1761.00 969.20 1761.84 946.26
  C 1762.07 939.93 1763.75 932.28 1763.83 927.00
  Q 1764.24 900.05 1764.00 882.75
  Q 1763.88 873.96 1763.49 868.33
  C 1762.08 848.21 1762.54 831.87 1760.25 814.54
  C 1758.81 803.73 1758.67 792.62 1756.31 781.46
  Q 1756.06 780.28 1754.39 768.28
  Q 1753.45 761.57 1749.69 741.70
  Q 1748.24 734.05 1745.57 723.30
  Q 1743.18 713.71 1741.44 704.89
  C 1739.74 696.34 1737.45 689.14 1735.29 679.32
  Q 1733.21 669.89 1730.19 660.30
  Q 1727.28 651.07 1714.20 610.63
  Q 1713.38 608.10 1708.41 595.12
  Q 1707.88 593.73 1702.61 579.59
  C 1696.76 563.93 1689.34 549.26 1683.28 536.23
  C 1675.76 520.07 1666.44 503.01 1659.15 489.35
  C 1653.29 478.36 1644.77 469.59 1632.22 467.29
  Q 1613.96 463.94 1600.21 476.42
  Q 1596.59 479.70 1593.07 487.61
  Q 1591.84 490.36 1591.37 494.95
  C 1590.70 501.50 1590.63 506.77 1592.05 512.32
  Q 1592.71 514.89 1596.15 521.29
  C 1601.50 531.26 1604.08 535.95 1606.28 540.29
  Q 1619.01 565.36 1626.15 581.37
  C 1630.47 591.08 1633.97 600.87 1637.75 610.13
  Q 1642.98 622.96 1644.35 627.14
  Q 1648.25 639.08 1649.28 641.62
  Q 1652.17 648.69 1654.44 655.98
  C 1656.46 662.49 1660.60 673.61 1662.99 682.55
  Q 1663.54 684.62 1666.18 693.52
  C 1669.46 704.57 1672.56 719.53 1674.88 729.31
  C 1676.69 736.89 1677.53 744.23 1679.58 751.67"
/>
<path stroke="#8d99ac" vector-effect="non-scaling-stroke" d="
  M 753.82 1545.00
  C 759.11 1546.29 764.21 1546.72 769.17 1547.88
  Q 774.82 1549.21 780.68 1550.03
  Q 798.70 1552.54 826.97 1555.47
  Q 848.69 1557.73 871.56 1558.01
  Q 899.58 1558.36 916.25 1558.10
  Q 945.98 1557.64 980.21 1553.17
  C 987.79 1552.18 996.45 1551.73 1002.43 1550.84
  Q 1036.79 1545.77 1070.27 1536.69
  Q 1098.59 1529.01 1117.58 1522.01
  Q 1123.87 1519.69 1141.66 1512.65
  C 1157.19 1506.50 1167.98 1501.29 1184.61 1493.85
  C 1194.78 1489.30 1207.09 1483.48 1217.15 1477.50
  C 1227.25 1471.49 1237.85 1466.74 1247.80 1460.04
  Q 1274.62 1441.98 1292.92 1429.11
  Q 1299.15 1424.72 1306.17 1418.90
  C 1314.57 1411.95 1323.96 1405.76 1332.19 1398.14
  Q 1337.22 1393.48 1344.47 1387.04
  Q 1366.76 1367.27 1385.13 1347.37
  Q 1393.20 1338.62 1409.77 1319.59
  C 1416.95 1311.33 1421.91 1304.25 1430.08 1293.84
  Q 1437.49 1284.40 1444.64 1273.98
  Q 1456.70 1256.41 1467.08 1240.30
  Q 1473.67 1230.07 1478.21 1221.22
  Q 1478.96 1219.77 1488.78 1201.83
  C 1495.59 1189.38 1502.83 1175.02 1508.17 1162.70
  C 1512.21 1153.39 1515.61 1146.47 1518.97 1138.21
  C 1524.41 1124.82 1528.08 1116.22 1532.04 1104.53
  Q 1537.60 1088.09 1540.08 1080.49
  C 1541.34 1076.60 1542.24 1072.47 1543.27 1069.21
  Q 1544.60 1065.00 1545.48 1060.70
  Q 1547.94 1048.78 1551.53 1035.54
  Q 1552.39 1032.37 1552.86 1029.45
  C 1553.72 1024.18 1555.18 1019.23 1555.93 1014.25
  C 1557.12 1006.26 1559.27 998.52 1560.33 990.15
  Q 1561.10 984.01 1561.76 978.40
  Q 1561.76 978.34 1562.48 973.05
  Q 1565.56 950.34 1567.79 916.25
  Q 1568.28 908.82 1568.08 880.93
  C 1567.99 867.45 1567.79 858.38 1563.17 849.11
  C 1560.36 843.45 1554.32 837.35 1547.61 834.91
  Q 1540.83 832.44 1539.81 832.17
  Q 1532.37 830.20 1524.65 832.44
  Q 1516.48 834.81 1511.80 838.00
  Q 1501.81 844.81 1497.93 857.03
  Q 1496.46 861.63 1496.52 872.75
  Q 1496.58 886.36 1496.09 904.99
  C 1495.85 914.26 1494.62 922.61 1494.10 933.02
  C 1493.58 943.76 1493.09 952.64 1491.19 962.25
  C 1489.47 970.92 1489.36 979.91 1487.49 988.18
  Q 1486.63 992.00 1484.58 1004.63
  Q 1481.83 1021.60 1475.64 1044.88
  C 1474.62 1048.71 1473.80 1053.12 1472.45 1057.49
  Q 1464.98 1081.63 1452.89 1111.64
  Q 1449.74 1119.47 1440.68 1139.96
  C 1435.69 1151.24 1431.25 1159.30 1425.78 1170.45
  Q 1422.23 1177.69 1416.47 1187.51
  Q 1408.64 1200.86 1406.39 1204.14
  Q 1400.76 1212.35 1388.66 1231.33
  C 1386.29 1235.04 1383.60 1238.34 1381.45 1241.44
  Q 1379.16 1244.73 1375.86 1248.90
  Q 1366.72 1260.43 1355.03 1274.85
  C 1344.75 1287.54 1335.48 1296.84 1324.28 1309.03
  Q 1321.10 1312.49 1310.86 1321.79
  C 1300.35 1331.34 1290.00 1342.21 1278.97 1351.05
  C 1265.33 1361.98 1251.25 1373.26 1237.26 1382.49
  Q 1225.78 1390.07 1212.08 1399.00
  C 1201.10 1406.17 1189.04 1412.39 1177.19 1418.79
  Q 1172.77 1421.18 1167.09 1423.86
  C 1156.99 1428.62 1147.51 1434.20 1137.03 1438.18
  Q 1136.96 1438.20 1125.93 1442.88
  Q 1118.11 1446.19 1098.90 1453.76
  Q 1088.70 1457.78 1081.57 1459.86
  Q 1068.03 1463.81 1063.85 1464.84
  Q 1047.51 1468.86 1043.29 1470.13
  C 1035.53 1472.47 1030.30 1473.35 1021.65 1475.58
  Q 1011.37 1478.23 995.36 1480.43
  C 992.27 1480.86 988.54 1481.83 986.07 1482.12
  C 973.40 1483.61 954.94 1486.01 939.60 1486.76
  Q 919.61 1487.74 912.75 1487.81
  Q 877.37 1488.14 833.04 1486.03
  Q 820.27 1485.42 806.44 1483.30
  Q 784.18 1479.89 775.58 1478.10
  Q 761.37 1475.14 759.93 1475.02
  Q 756.02 1474.70 749.46 1472.68
  Q 748.25 1472.31 738.96 1470.27
  Q 728.51 1467.98 714.90 1463.57
  Q 701.37 1459.17 695.97 1459.00
  Q 684.06 1458.61 674.95 1465.01
  Q 659.53 1475.85 661.12 1495.90
  C 662.01 1506.95 667.49 1517.50 676.69 1523.67
  Q 681.72 1527.04 689.96 1528.90
  Q 690.70 1529.06 703.64 1533.01
  Q 708.10 1534.37 717.38 1536.77
  Q 724.82 1538.70 731.21 1540.28
  C 739.36 1542.29 746.74 1543.27 753.82 1545.00"
/>
<path stroke="#8d99ac" vector-effect="non-scaling-stroke" d="
  M 24.36 1004.93
  C 25.09 1011.53 26.40 1016.18 27.24 1022.60
  Q 27.87 1027.43 29.71 1035.80
  C 32.23 1047.32 35.18 1059.53 37.84 1071.64
  Q 38.58 1074.99 40.23 1081.46
  Q 42.43 1090.11 45.27 1100.50
  Q 46.55 1105.18 56.61 1137.18
  C 68.31 1174.37 82.53 1206.76 101.18 1246.59
  Q 105.13 1255.02 111.13 1264.30
  C 119.94 1277.94 132.78 1283.63 148.79 1281.49
  C 165.20 1279.30 176.16 1265.54 178.12 1249.37
  C 179.12 1241.19 176.15 1233.44 172.12 1226.27
  Q 167.24 1217.55 163.27 1210.04
  Q 160.23 1204.27 155.18 1193.32
  C 147.55 1176.74 143.68 1168.96 139.35 1157.83
  Q 135.39 1147.67 133.29 1142.73
  C 130.21 1135.49 126.94 1124.76 125.28 1119.51
  Q 122.22 1109.88 119.48 1102.05
  C 111.55 1079.40 105.84 1055.26 101.62 1031.04
  Q 101.14 1028.28 100.51 1025.82
  C 99.14 1020.44 98.62 1014.81 97.51 1009.64
  Q 95.62 1000.91 95.47 998.69
  C 94.93 990.83 92.68 983.14 91.55 974.78
  Q 88.54 952.64 86.78 932.00
  Q 85.97 922.37 85.84 917.50
  C 85.62 908.51 84.98 900.58 84.88 890.52
  C 84.79 880.53 85.61 871.83 83.20 864.07
  Q 78.72 849.67 65.18 841.67
  Q 61.90 839.73 54.58 838.27
  Q 49.41 837.25 43.57 838.82
  C 26.57 843.42 14.46 855.65 14.33 873.98
  Q 14.14 899.70 14.37 911.38
  Q 14.51 918.11 15.25 923.49
  C 16.54 932.90 16.53 936.93 17.11 947.36
  C 17.65 956.95 19.37 966.01 20.32 975.68
  Q 20.84 980.96 22.53 990.27
  Q 23.09 993.37 24.36 1004.93"
/>
<path stroke="#8d99ac" vector-effect="non-scaling-stroke" d="
  M 1165.30 1169.72
  C 1173.10 1162.68 1177.43 1153.55 1178.37 1143.20
  Q 1178.94 1136.92 1176.17 1128.57
  C 1174.88 1124.65 1171.36 1119.97 1168.87 1117.39
  Q 1156.66 1104.74 1139.08 1107.24
  Q 1131.38 1108.33 1124.75 1112.99
  C 1122.41 1114.63 1118.65 1117.34 1115.96 1119.92
  C 1105.04 1130.41 1096.96 1138.48 1086.22 1145.95
  Q 1071.56 1156.16 1056.19 1165.62
  Q 1044.94 1172.56 1040.83 1174.36
  Q 1007.17 1189.15 986.02 1195.47
  Q 972.85 1199.41 945.31 1204.75
  C 933.54 1207.04 919.08 1208.36 909.82 1208.61
  Q 907.05 1208.69 882.01 1209.36
  Q 875.46 1209.53 872.18 1210.73
  Q 861.47 1214.62 855.20 1223.33
  C 846.47 1235.46 847.18 1252.54 855.86 1264.59
  C 860.36 1270.82 867.69 1274.98 874.49 1277.09
  Q 877.59 1278.05 884.03 1278.32
  Q 906.78 1279.25 926.63 1276.85
  C 935.04 1275.83 946.61 1274.87 956.18 1273.18
  C 970.73 1270.60 986.14 1267.09 1003.95 1262.61
  Q 1012.87 1260.37 1021.79 1257.35
  Q 1036.42 1252.41 1039.33 1251.11
  C 1058.81 1242.42 1077.41 1234.96 1094.67 1223.66
  Q 1101.35 1219.28 1122.86 1204.93
  C 1127.05 1202.13 1131.36 1198.83 1135.22 1195.54
  C 1147.61 1185.00 1156.78 1177.40 1165.30 1169.72"
/>
<path stroke="#8d99ac" vector-effect="non-scaling-stroke" d="
  M 703.05 1730.70
  C 725.00 1735.72 737.04 1738.10 757.09 1741.75
  C 763.71 1742.96 770.61 1743.41 776.56 1744.59
  C 787.40 1746.73 799.72 1747.42 809.39 1748.75
  Q 818.13 1749.95 827.66 1750.49
  C 862.94 1752.45 887.32 1754.36 915.67 1752.35
  C 925.77 1751.64 935.18 1751.31 941.55 1751.10
  Q 945.68 1750.96 960.91 1749.48
  Q 973.90 1748.22 983.18 1747.37
  C 1001.60 1745.70 1016.38 1733.50 1018.63 1714.64
  C 1019.51 1707.31 1015.43 1697.47 1011.22 1691.69
  C 1003.48 1681.07 987.90 1675.88 975.15 1677.89
  C 970.28 1678.65 966.99 1679.19 963.17 1679.36
  Q 947.76 1680.02 939.89 1680.47
  Q 923.37 1681.40 916.60 1681.47
  Q 871.01 1681.98 844.00 1680.50
  Q 829.17 1679.69 791.36 1675.45
  C 782.83 1674.50 775.99 1672.87 768.02 1671.94
  Q 761.38 1671.17 750.60 1668.94
  Q 732.54 1665.20 727.30 1664.25
  C 721.91 1663.27 717.28 1661.81 711.40 1660.64
  C 707.75 1659.91 703.09 1658.10 698.61 1657.27
  C 690.17 1655.72 684.43 1653.65 673.00 1650.28
  C 661.96 1647.03 656.75 1645.87 652.14 1644.03
  Q 649.61 1643.02 647.86 1642.58
  C 641.37 1640.98 634.04 1637.56 627.42 1635.50
  Q 602.32 1627.66 580.59 1617.85
  Q 551.07 1604.52 535.06 1596.67
  Q 529.65 1594.01 521.52 1589.38
  C 513.53 1584.84 504.42 1581.05 496.39 1576.12
  Q 482.69 1567.73 473.52 1561.99
  C 453.76 1549.64 441.08 1542.04 426.88 1530.03
  C 422.22 1526.09 417.29 1523.26 412.52 1521.44
  Q 409.77 1520.39 403.47 1520.00
  Q 387.43 1519.00 376.56 1529.83
  C 368.69 1537.67 364.92 1548.62 367.17 1559.50
  Q 368.65 1566.66 371.70 1571.81
  Q 378.40 1583.10 389.77 1590.72
  C 410.12 1604.35 431.11 1619.30 451.41 1631.09
  Q 476.48 1645.65 503.32 1659.47
  Q 507.65 1661.70 514.93 1665.11
  Q 516.10 1665.66 526.30 1670.60
  Q 529.22 1672.01 553.04 1682.70
  Q 563.78 1687.52 574.38 1691.12
  Q 581.63 1693.57 595.81 1699.17
  Q 601.33 1701.35 626.79 1710.06
  C 639.60 1714.45 654.64 1718.30 668.24 1722.28
  Q 673.68 1723.87 678.38 1724.90
  C 685.05 1726.35 689.40 1727.91 695.82 1729.05
  Q 695.89 1729.07 703.05 1730.70"
/>
<path stroke="#8d99ac" vector-effect="non-scaling-stroke" d="
  M 974.90 740.92
  Q 977.10 743.03 981.56 746.95
  Q 996.17 759.77 1003.76 777.59
  A 0.92 0.92 0.0 0 0 1004.50 778.14
  Q 1008.20 778.51 1011.29 777.51
  Q 1018.38 775.20 1029.73 772.93
  C 1051.06 768.67 1071.87 763.02 1092.71 755.97
  C 1100.08 753.47 1105.54 751.00 1111.90 748.79
  Q 1118.37 746.53 1126.11 743.00
  C 1136.31 738.35 1143.82 735.36 1151.89 731.11
  C 1185.99 713.13 1216.48 694.20 1243.19 669.68
  Q 1273.23 642.11 1302.86 604.86
  C 1309.11 597.01 1314.70 588.51 1321.23 580.32
  Q 1327.49 572.45 1334.81 561.81
  C 1342.07 551.25 1348.98 542.86 1355.88 532.60
  Q 1361.76 523.85 1380.91 496.73
  C 1389.37 484.75 1396.14 472.34 1404.19 461.08
  Q 1410.53 452.20 1420.11 436.87
  Q 1424.76 429.41 1436.68 410.86
  Q 1439.74 406.09 1442.51 401.77
  Q 1466.98 363.62 1499.27 313.78
  Q 1504.32 306.00 1529.54 265.92
  Q 1534.70 257.72 1539.55 249.30
  Q 1545.06 239.74 1549.94 232.92
  C 1552.51 229.32 1547.66 227.25 1545.79 225.46
  Q 1543.32 223.08 1533.56 212.75
  Q 1531.77 210.85 1530.37 210.75
  A 1.78 1.75 23.7 0 0 1528.97 211.28
  Q 1525.12 215.18 1523.68 216.43
  Q 1487.63 247.62 1453.00 276.00
  C 1447.68 280.36 1440.30 287.20 1433.65 292.28
  C 1423.62 299.92 1413.68 309.20 1404.21 316.31
  C 1393.47 324.38 1383.93 333.33 1372.75 342.01
  C 1360.64 351.43 1348.61 362.91 1336.10 373.09
  Q 1327.50 380.09 1293.06 408.67
  C 1285.08 415.28 1277.98 422.38 1269.08 429.72
  C 1256.41 440.17 1246.58 449.35 1233.96 459.45
  C 1223.33 467.95 1213.91 477.57 1204.10 485.66
  Q 1195.78 492.53 1186.68 500.66
  Q 1147.84 535.37 1129.16 552.65
  Q 1097.70 581.75 1067.25 614.95
  C 1051.95 631.64 1038.92 648.95 1025.01 666.49
  Q 1016.92 676.69 1001.96 699.18
  Q 1000.95 700.69 978.44 735.21
  Q 976.50 738.18 974.86 740.05
  A 0.63 0.62 -48.0 0 0 974.90 740.92"
/>
<path stroke="#8d99ac" vector-effect="non-scaling-stroke" d="
  M 889.66 776.25
  C 868.60 775.55 848.90 786.59 835.89 802.69
  C 827.82 812.69 823.82 826.35 822.88 839.32
  Q 822.65 842.52 823.09 845.23
  Q 825.70 861.03 834.04 874.19
  C 843.11 888.50 855.69 896.02 872.24 899.73
  Q 896.39 905.13 918.35 893.84
  C 933.37 886.12 943.14 871.43 948.34 855.84
  Q 955.34 834.83 947.66 814.59
  Q 946.05 810.36 941.65 803.65
  Q 932.55 789.76 918.89 783.30
  Q 905.06 776.76 889.66 776.25"
/>
<path stroke="#8d99ac" vector-effect="non-scaling-stroke" d="
  M 193.67 1462.24
  Q 197.09 1465.25 209.51 1477.61
  C 211.47 1479.56 212.39 1479.78 214.72 1478.19
  C 217.86 1476.05 221.49 1471.96 224.80 1469.30
  Q 240.29 1456.88 245.08 1452.77
  Q 253.66 1445.41 265.55 1436.48
  Q 295.82 1413.77 330.79 1385.31
  Q 335.16 1381.75 349.56 1371.41
  C 356.36 1366.53 362.34 1360.91 368.51 1356.20
  Q 391.18 1338.91 392.97 1337.50
  C 403.85 1328.92 412.45 1320.99 424.20 1312.45
  Q 432.81 1306.19 440.96 1299.15
  C 445.88 1294.91 452.47 1290.02 455.92 1287.42
  C 462.42 1282.52 470.11 1275.70 476.54 1270.52
  C 483.97 1264.53 491.43 1259.23 499.08 1252.84
  Q 506.40 1246.71 525.37 1231.87
  Q 528.49 1229.43 538.95 1220.13
  Q 544.02 1215.63 552.64 1208.51
  Q 590.30 1177.42 597.38 1170.87
  Q 615.41 1154.21 631.46 1141.04
  C 639.57 1134.38 646.45 1127.17 653.65 1120.82
  Q 659.84 1115.36 669.97 1105.30
  Q 677.36 1097.97 688.90 1087.39
  C 693.58 1083.10 697.39 1078.98 701.73 1074.23
  C 709.40 1065.81 720.00 1056.45 726.19 1048.95
  Q 730.79 1043.39 749.34 1021.85
  Q 752.51 1018.16 754.18 1015.92
  Q 763.05 1004.01 784.40 974.87
  C 791.86 964.69 799.51 952.17 807.45 942.19
  A 1.39 1.38 -60.4 0 0 806.86 940.03
  Q 806.15 939.76 803.68 937.81
  Q 801.71 936.25 792.81 927.18
  Q 787.69 921.96 783.42 916.17
  Q 775.82 905.87 770.58 897.08
  A 1.54 1.53 -26.7 0 0 768.67 896.45
  C 758.00 900.85 747.00 902.36 735.78 905.68
  Q 724.47 909.02 716.27 911.11
  C 711.44 912.34 707.11 914.33 702.69 915.70
  Q 680.94 922.43 658.59 932.89
  Q 653.38 935.33 637.64 942.86
  C 619.20 951.68 603.05 960.65 585.75 971.60
  Q 573.95 979.07 560.01 989.87
  C 541.20 1004.43 525.85 1017.21 510.17 1032.17
  C 501.97 1040.01 495.94 1047.23 487.49 1055.82
  Q 476.92 1066.57 467.25 1077.75
  C 459.91 1086.24 453.31 1093.10 447.47 1100.91
  C 439.55 1111.52 430.68 1121.73 423.00 1132.16
  Q 419.13 1137.41 410.96 1148.66
  Q 392.08 1174.65 372.14 1201.39
  C 363.35 1213.18 354.52 1226.72 346.48 1237.77
  Q 322.14 1271.23 307.53 1292.06
  Q 304.22 1296.78 304.05 1297.05
  C 294.44 1311.54 286.15 1322.75 276.74 1337.33
  Q 263.98 1357.10 251.00 1374.93
  C 246.85 1380.62 241.56 1388.73 239.03 1393.07
  Q 237.27 1396.09 230.01 1406.62
  Q 214.49 1429.14 198.82 1452.34
  Q 195.66 1457.01 193.45 1459.83
  A 1.76 1.76 0.0 0 0 193.67 1462.24"
/>
</g>
<path fill="#ffffff" d="
  M 1773.00 0.00
  L 1773.00 1773.00
  L 0.00 1773.00
  L 0.00 0.00
  L 1773.00 0.00
  Z
  M 1006.40 103.47
  C 1015.27 105.07 1019.05 106.04 1026.81 107.50
  Q 1043.13 110.56 1050.22 112.32
  Q 1061.34 115.09 1064.45 115.61
  C 1068.65 116.31 1071.69 117.42 1075.77 118.38
  C 1081.08 119.62 1085.95 121.75 1091.71 123.16
  Q 1091.73 123.17 1099.32 125.36
  Q 1109.46 128.29 1119.40 131.65
  Q 1146.65 140.88 1154.49 143.68
  C 1163.03 146.72 1167.73 148.76 1177.34 152.75
  C 1190.92 158.40 1205.89 158.01 1217.61 148.85
  C 1231.58 137.95 1233.18 119.30 1225.56 104.19
  Q 1219.96 93.09 1208.27 89.21
  Q 1206.33 88.57 1199.75 86.45
  Q 1196.05 85.27 1183.40 79.93
  C 1177.03 77.24 1171.79 75.62 1165.39 73.00
  Q 1158.29 70.09 1151.80 68.00
  C 1142.28 64.94 1131.28 61.16 1121.76 58.45
  Q 1109.55 54.98 1094.18 50.47
  C 1088.45 48.79 1082.13 47.69 1077.30 46.12
  Q 1073.36 44.85 1070.38 44.40
  C 1064.31 43.50 1058.36 41.35 1053.03 40.33
  C 1045.05 38.80 1040.22 37.25 1032.58 36.35
  Q 1027.50 35.76 1022.27 34.55
  C 1016.69 33.27 1010.59 32.80 1005.15 31.73
  C 996.25 29.96 987.88 29.04 978.58 27.57
  Q 972.63 26.63 964.82 25.93
  C 950.29 24.63 943.25 24.27 931.23 22.85
  Q 924.53 22.07 918.25 21.92
  Q 883.88 21.14 855.48 21.49
  Q 842.12 21.66 827.43 22.99
  Q 814.60 24.15 796.04 25.10
  C 791.50 25.34 784.93 26.80 778.96 27.43
  Q 761.44 29.26 746.28 32.12
  Q 736.95 33.88 734.57 34.24
  C 724.93 35.70 712.20 38.36 705.98 39.75
  Q 673.90 46.89 648.30 53.84
  C 637.18 56.86 625.43 60.78 613.87 64.23
  C 597.20 69.20 582.05 75.85 565.78 81.89
  C 558.01 84.78 549.71 88.41 543.89 90.92
  Q 520.64 100.92 484.98 118.19
  C 475.07 122.99 468.09 127.38 458.18 133.16
  Q 447.73 139.25 439.24 144.15
  Q 426.71 151.37 420.54 155.56
  C 406.62 165.01 392.41 172.96 379.53 183.04
  Q 363.01 195.96 351.82 204.08
  Q 341.88 211.28 333.30 218.86
  C 325.61 225.66 314.88 233.21 308.35 239.60
  Q 303.29 244.55 284.20 261.71
  C 281.20 264.41 279.08 266.08 276.74 268.59
  Q 270.29 275.52 263.02 282.09
  C 255.50 288.88 252.38 292.69 245.30 301.05
  Q 240.87 306.28 229.92 317.66
  Q 225.81 321.93 219.52 329.54
  C 209.46 341.72 203.88 347.90 194.59 360.15
  Q 179.66 379.82 173.14 388.63
  Q 166.60 397.48 154.39 416.40
  C 149.34 424.21 143.16 432.79 138.07 441.01
  Q 117.86 473.67 100.36 509.58
  Q 96.97 516.55 88.44 534.07
  Q 82.36 546.54 79.97 552.57
  Q 76.22 562.01 72.24 571.40
  C 68.69 579.76 67.17 587.25 68.77 595.77
  Q 71.42 609.85 83.15 618.33
  C 90.35 623.54 98.54 626.31 107.24 624.70
  Q 121.91 621.98 130.62 610.45
  Q 133.50 606.63 136.87 597.96
  C 142.11 584.47 147.46 574.33 153.61 560.87
  Q 159.63 547.66 162.49 542.46
  C 167.25 533.80 170.39 525.61 175.17 517.39
  Q 178.97 510.87 190.87 489.09
  Q 193.18 484.86 195.15 481.88
  C 199.28 475.65 202.20 470.44 206.66 464.38
  C 215.06 452.94 222.22 440.86 230.08 430.75
  C 237.02 421.83 247.21 406.79 256.84 394.75
  Q 265.46 383.96 268.08 380.75
  C 274.68 372.63 280.26 366.79 287.35 358.27
  Q 293.40 351.00 302.29 341.85
  Q 319.33 324.32 341.66 303.06
  C 349.99 295.12 357.84 289.01 365.32 282.24
  Q 372.38 275.86 383.68 267.35
  Q 412.07 245.97 421.51 239.02
  Q 428.91 233.58 455.87 216.60
  C 462.36 212.51 469.11 207.89 475.27 204.42
  Q 482.27 200.48 485.69 198.41
  C 495.27 192.63 507.38 186.59 514.64 182.59
  Q 523.01 177.98 533.39 173.20
  Q 560.63 160.66 571.48 156.03
  C 581.32 151.82 585.00 150.05 593.85 146.79
  Q 615.47 138.83 643.34 129.12
  Q 646.36 128.07 663.37 122.75
  C 668.21 121.23 672.37 120.49 676.85 119.09
  C 688.13 115.57 698.78 114.08 709.87 111.23
  Q 715.26 109.84 728.98 107.31
  Q 733.01 106.57 748.13 103.66
  Q 765.75 100.27 768.50 99.95
  Q 781.84 98.40 789.19 97.37
  C 802.30 95.55 812.63 95.38 824.80 94.05
  Q 830.87 93.40 839.70 93.00
  Q 889.75 90.76 939.43 94.48
  C 945.60 94.94 953.69 96.26 959.68 96.62
  Q 963.91 96.88 974.76 98.77
  C 982.58 100.13 991.25 100.81 999.65 102.28
  Q 1003.96 103.03 1006.40 103.47
  Z
  M 755.76 833.75
  Q 751.17 833.97 747.74 834.84
  C 742.24 836.24 735.59 836.39 731.22 837.42
  C 722.42 839.48 716.32 840.52 708.77 843.00
  Q 699.63 846.00 679.71 851.93
  C 670.97 854.53 667.20 856.13 657.69 859.29
  Q 650.61 861.65 641.54 865.72
  Q 619.80 875.48 612.90 878.67
  Q 602.25 883.59 578.13 896.55
  C 565.26 903.46 552.70 911.88 537.83 921.06
  C 532.22 924.53 523.75 931.78 516.52 937.11
  Q 510.52 941.53 509.52 942.29
  C 479.22 965.31 451.94 993.29 424.34 1022.95
  Q 413.81 1034.26 407.18 1042.51
  C 399.43 1052.17 391.22 1061.40 383.79 1071.30
  C 380.13 1076.18 374.53 1082.42 370.99 1087.37
  Q 368.42 1090.98 365.16 1094.77
  Q 363.61 1096.57 356.83 1106.17
  C 351.28 1114.02 344.59 1121.87 338.97 1129.51
  Q 332.79 1137.91 326.74 1146.53
  Q 325.57 1148.20 324.19 1150.16
  Q 316.38 1161.26 309.59 1170.23
  Q 302.17 1180.01 295.24 1190.46
  C 288.02 1201.34 280.59 1210.59 273.90 1221.36
  Q 271.34 1225.47 258.28 1243.76
  C 250.33 1254.89 246.32 1260.06 239.95 1270.32
  C 232.84 1281.78 224.19 1293.27 217.26 1303.50
  Q 205.39 1321.02 187.28 1346.27
  Q 185.52 1348.72 179.57 1358.42
  C 172.90 1369.28 164.77 1379.85 158.87 1389.94
  C 151.89 1401.87 145.10 1411.30 136.70 1424.82
  C 131.91 1432.54 125.17 1440.33 122.98 1448.99
  C 120.61 1458.38 119.56 1470.88 123.43 1479.96
  C 126.68 1487.58 130.91 1491.97 137.66 1499.60
  Q 142.00 1504.49 145.81 1507.94
  C 153.04 1514.46 161.43 1523.77 169.39 1530.42
  Q 179.91 1539.20 190.35 1546.00
  C 193.35 1547.95 198.03 1550.25 201.54 1550.92
  C 215.06 1553.49 230.15 1551.14 240.67 1541.69
  C 253.80 1529.91 267.55 1520.31 284.09 1508.09
  C 289.59 1504.02 296.36 1497.78 301.96 1493.66
  C 309.26 1488.32 317.99 1482.37 325.34 1476.38
  C 335.76 1467.90 347.11 1460.35 357.12 1452.40
  Q 379.77 1434.43 395.84 1422.10
  C 407.88 1412.86 416.92 1405.40 430.91 1395.11
  C 436.23 1391.20 441.79 1386.15 447.27 1381.96
  Q 464.41 1368.86 468.48 1365.47
  Q 485.52 1351.26 501.42 1338.67
  Q 510.23 1331.68 512.99 1329.21
  C 522.14 1321.04 527.83 1317.09 538.75 1308.07
  Q 543.58 1304.09 553.19 1296.69
  Q 560.23 1291.28 571.54 1281.55
  C 582.20 1272.39 596.58 1260.74 605.55 1253.52
  Q 613.43 1247.18 616.97 1243.96
  C 626.86 1235.00 636.65 1227.47 645.17 1219.66
  Q 655.00 1210.65 660.70 1206.17
  C 672.15 1197.17 682.22 1187.02 693.45 1176.95
  Q 696.30 1174.40 699.71 1171.45
  Q 702.94 1168.65 725.66 1147.15
  C 735.11 1138.21 743.63 1129.16 752.43 1120.61
  C 761.73 1111.59 770.08 1101.71 779.25 1091.92
  C 788.47 1082.10 796.72 1071.62 804.29 1062.72
  C 809.74 1056.31 814.60 1049.88 820.14 1042.03
  C 826.85 1032.53 837.92 1018.82 844.99 1008.24
  C 855.42 992.61 861.60 983.57 868.33 971.31
  C 869.30 969.55 870.29 968.56 872.26 968.66
  Q 882.63 969.14 891.00 969.36
  Q 896.86 969.51 908.07 968.08
  C 928.64 965.46 948.81 955.92 964.85 943.48
  C 969.40 939.96 973.75 935.62 978.51 931.53
  C 982.74 927.89 985.65 924.14 989.10 920.10
  Q 1001.60 905.43 1009.50 887.21
  Q 1014.26 876.24 1016.32 865.93
  Q 1018.52 854.98 1019.56 843.65
  A 1.90 1.90 0.0 0 1 1021.27 841.93
  Q 1044.86 839.57 1069.62 833.59
  Q 1081.91 830.62 1092.56 827.12
  Q 1103.90 823.39 1115.27 819.92
  Q 1125.80 816.71 1133.86 813.38
  C 1144.97 808.78 1155.24 805.10 1167.15 799.66
  C 1182.45 792.67 1195.97 784.74 1212.17 776.04
  C 1215.33 774.35 1217.53 772.78 1220.60 770.83
  Q 1224.20 768.54 1253.77 747.59
  Q 1265.99 738.94 1274.31 731.84
  Q 1284.31 723.31 1293.91 714.91
  Q 1297.04 712.18 1298.82 710.32
  Q 1310.79 697.87 1318.89 689.95
  Q 1327.23 681.80 1334.11 673.58
  C 1344.52 661.16 1349.59 655.97 1358.65 643.92
  Q 1367.43 632.25 1371.86 627.06
  C 1377.35 620.63 1379.98 616.36 1384.83 610.38
  Q 1387.93 606.55 1393.94 597.45
  Q 1400.49 587.53 1406.70 579.25
  Q 1413.31 570.43 1419.54 561.13
  C 1432.72 541.44 1444.60 524.42 1455.40 507.48
  C 1460.74 499.09 1466.51 491.06 1471.98 482.57
  C 1480.98 468.59 1492.94 450.81 1498.78 441.98
  C 1506.48 430.32 1512.15 420.48 1519.74 409.22
  Q 1525.74 400.32 1535.59 384.71
  Q 1553.37 356.51 1554.64 354.61
  Q 1559.15 347.83 1565.92 336.09
  Q 1569.88 329.22 1577.41 317.67
  Q 1584.36 307.01 1594.71 290.09
  Q 1606.41 270.95 1616.79 256.03
  Q 1626.18 242.53 1626.69 226.97
  C 1627.18 212.03 1620.30 198.21 1608.61 189.15
  Q 1601.69 183.79 1600.91 183.09
  Q 1586.24 169.87 1575.28 159.10
  C 1571.35 155.23 1568.18 152.63 1563.55 148.51
  C 1558.75 144.22 1551.15 138.23 1544.52 136.15
  Q 1537.45 133.93 1534.76 133.80
  Q 1529.73 133.55 1519.93 135.88
  C 1514.52 137.16 1508.68 140.97 1504.62 144.13
  C 1497.75 149.47 1490.77 156.28 1483.66 162.24
  C 1476.44 168.29 1472.32 171.97 1464.11 177.87
  Q 1456.85 183.08 1451.43 187.97
  C 1441.99 196.47 1437.28 199.86 1425.69 209.21
  C 1417.11 216.14 1409.07 223.40 1400.40 229.78
  C 1394.99 233.75 1388.51 239.89 1383.82 243.80
  C 1367.11 257.73 1353.07 268.66 1336.42 282.80
  Q 1328.23 289.76 1315.41 299.94
  C 1309.01 305.02 1302.21 311.79 1295.83 316.90
  Q 1281.47 328.42 1267.91 340.48
  C 1263.31 344.57 1257.78 348.51 1252.65 352.90
  Q 1219.34 381.41 1211.43 388.16
  Q 1199.82 398.05 1186.27 409.78
  Q 1178.21 416.76 1172.54 422.03
  C 1160.97 432.79 1150.29 441.70 1138.23 452.72
  Q 1128.72 461.42 1115.01 473.19
  C 1110.18 477.34 1105.24 482.51 1100.44 486.93
  Q 1062.87 521.54 1056.97 527.74
  Q 1043.93 541.46 1038.68 546.58
  Q 1029.13 555.89 1020.50 565.57
  C 1011.33 575.85 1005.14 581.88 998.41 590.53
  C 991.32 599.64 985.70 605.78 979.25 614.31
  Q 976.29 618.23 968.88 627.62
  Q 964.54 633.13 956.67 645.34
  C 951.03 654.11 942.22 665.82 937.71 672.96
  Q 924.88 693.28 914.51 710.65
  A 1.89 1.89 0.0 0 1 912.60 711.56
  Q 895.03 708.93 876.52 709.75
  C 871.27 709.98 867.02 711.41 861.66 712.00
  Q 856.25 712.60 850.59 714.21
  Q 828.10 720.59 810.27 734.02
  C 799.39 742.20 789.98 749.98 782.13 761.10
  Q 772.15 775.25 767.54 785.30
  Q 765.88 788.90 762.06 800.03
  Q 759.56 807.33 758.50 815.31
  Q 756.71 828.93 756.37 833.15
  A 0.66 0.65 -88.9 0 1 755.76 833.75
  Z
  M 231.56 1049.44
  C 235.57 1063.47 245.66 1076.75 260.79 1078.65
  C 269.83 1079.79 278.27 1079.14 285.47 1073.93
  Q 298.94 1064.19 300.94 1048.23
  Q 301.48 1043.92 300.67 1038.33
  Q 299.52 1030.40 299.00 1028.49
  Q 296.38 1018.87 296.02 1016.07
  C 295.03 1008.48 293.26 1002.78 290.99 993.26
  C 289.35 986.34 288.71 980.66 287.42 974.54
  C 285.72 966.50 285.11 957.15 283.40 947.97
  Q 282.27 941.91 281.88 935.49
  C 281.05 921.65 278.71 900.06 278.66 882.14
  Q 278.60 861.33 279.76 833.79
  Q 280.11 825.50 281.40 815.78
  C 282.58 806.94 282.88 798.39 284.53 789.75
  Q 285.05 787.05 285.85 781.75
  C 289.66 756.64 295.33 734.73 301.80 709.02
  C 307.12 687.89 314.91 668.05 324.35 645.05
  C 328.66 634.57 333.42 625.92 338.19 615.55
  Q 342.79 605.56 349.36 593.79
  Q 361.09 572.76 362.76 570.01
  C 371.86 554.91 383.44 538.91 394.28 523.18
  C 397.40 518.67 400.35 515.22 403.96 511.12
  C 409.24 505.12 415.78 495.84 420.83 490.32
  Q 432.80 477.26 444.78 464.28
  C 453.50 454.84 463.39 447.23 473.01 437.93
  Q 477.90 433.19 483.51 428.62
  Q 506.15 410.15 509.99 406.99
  C 513.75 403.89 518.64 400.97 521.95 398.60
  Q 543.91 382.90 547.82 380.34
  Q 572.75 363.99 597.86 350.11
  Q 601.96 347.85 615.55 341.44
  C 620.88 338.93 627.43 336.78 631.63 334.12
  C 641.74 327.72 648.08 317.00 648.07 304.78
  Q 648.06 297.07 647.15 294.06
  C 643.97 283.44 635.43 272.66 624.00 270.27
  C 613.16 268.00 604.92 269.71 595.25 274.54
  Q 584.66 279.83 570.54 286.28
  Q 560.08 291.06 546.76 299.25
  C 529.50 309.86 515.87 317.55 500.70 328.04
  C 490.68 334.97 479.59 342.02 470.67 349.33
  Q 468.57 351.05 456.68 360.19
  Q 454.69 361.72 441.42 372.75
  C 429.05 383.02 422.19 389.98 405.42 405.59
  Q 397.63 412.85 391.76 419.08
  Q 379.63 431.96 378.54 433.03
  Q 374.05 437.45 370.23 442.23
  C 361.89 452.63 351.47 463.79 343.12 475.05
  Q 330.21 492.47 321.14 505.30
  Q 311.80 518.50 306.26 527.88
  Q 298.69 540.69 292.29 551.04
  Q 291.77 551.88 280.72 571.71
  Q 276.43 579.40 271.74 590.47
  Q 270.47 593.48 262.78 609.24
  Q 254.66 625.89 244.65 654.86
  C 243.47 658.28 242.18 661.24 241.08 664.57
  Q 234.42 684.83 228.55 706.94
  Q 225.89 716.96 223.87 727.13
  Q 223.04 731.31 219.55 747.41
  Q 217.09 758.75 215.56 771.37
  Q 214.55 779.66 212.40 795.47
  C 210.66 808.31 210.36 819.62 209.10 832.16
  Q 208.52 837.86 208.36 845.52
  Q 207.91 866.67 208.43 896.76
  C 208.56 904.37 209.58 912.12 209.83 919.42
  C 210.33 934.20 212.97 949.64 214.16 962.24
  C 215.12 972.48 216.79 980.23 218.40 991.17
  Q 218.93 994.77 220.01 998.64
  C 221.06 1002.42 221.47 1006.87 222.57 1011.44
  C 223.89 1016.95 224.32 1021.12 226.23 1029.00
  Q 228.97 1040.34 231.56 1049.44
  Z
  M 558.02 584.38
  C 550.05 603.95 555.33 628.19 578.08 634.42
  C 589.43 637.53 602.50 633.89 611.55 626.63
  C 615.91 623.14 619.06 618.50 622.82 613.83
  Q 628.04 607.36 633.84 602.34
  C 640.18 596.86 651.08 585.38 660.50 578.50
  Q 677.76 565.87 697.24 553.23
  Q 703.14 549.39 713.97 543.73
  Q 732.89 533.83 749.90 526.43
  Q 759.97 522.05 768.65 519.19
  Q 787.37 513.04 805.65 509.22
  Q 831.37 503.84 841.76 502.31
  Q 856.70 500.12 891.00 498.82
  Q 898.23 498.55 902.79 495.56
  Q 909.20 491.36 910.95 489.70
  Q 916.93 484.01 919.05 477.37
  Q 921.60 469.38 921.45 464.84
  Q 921.37 462.20 919.53 455.55
  C 916.99 446.39 911.83 439.82 903.07 435.66
  C 898.70 433.59 892.86 432.82 888.00 432.60
  Q 872.11 431.91 857.40 432.66
  Q 842.18 433.44 819.26 436.41
  C 811.93 437.35 802.76 439.32 794.42 440.75
  Q 788.53 441.76 774.55 445.02
  Q 764.03 447.47 755.06 450.61
  C 734.59 457.80 716.29 463.84 697.72 473.55
  Q 674.75 485.55 656.01 496.51
  Q 652.84 498.36 647.88 501.89
  C 636.21 510.19 625.90 517.08 616.03 525.52
  Q 587.50 549.94 564.29 575.78
  Q 559.23 581.42 558.02 584.38
  Z
  M 1679.58 751.67
  C 1680.85 756.26 1681.17 761.88 1682.22 766.06
  Q 1682.74 768.14 1682.91 769.76
  Q 1683.87 778.99 1685.00 784.89
  Q 1687.05 795.69 1687.37 799.96
  C 1687.97 807.91 1689.48 815.00 1690.07 823.37
  C 1690.57 830.46 1691.56 849.94 1692.54 863.89
  C 1693.64 879.50 1693.44 895.42 1693.25 912.59
  Q 1693.08 927.40 1691.66 940.36
  C 1690.24 953.44 1689.54 968.26 1687.58 983.26
  C 1686.56 991.14 1685.77 1002.18 1683.87 1011.79
  Q 1682.83 1017.05 1682.44 1020.77
  C 1681.79 1027.09 1679.91 1034.27 1678.70 1042.06
  Q 1678.11 1045.80 1676.47 1052.56
  C 1675.58 1056.19 1674.91 1060.96 1674.36 1063.67
  Q 1672.01 1075.28 1665.07 1100.97
  C 1659.41 1121.93 1651.73 1142.39 1644.55 1163.62
  Q 1640.60 1175.32 1634.91 1187.81
  Q 1631.13 1196.11 1619.54 1222.32
  C 1617.50 1226.92 1613.83 1234.88 1610.65 1240.82
  Q 1595.08 1269.95 1579.41 1296.43
  C 1577.20 1300.17 1574.77 1303.40 1572.40 1307.40
  Q 1571.19 1309.45 1566.97 1315.50
  Q 1560.20 1325.19 1555.20 1332.75
  Q 1547.40 1344.53 1543.23 1349.82
  C 1535.04 1360.20 1530.37 1367.95 1522.26 1377.15
  Q 1519.01 1380.83 1505.79 1397.07
  Q 1498.06 1406.56 1488.75 1416.53
  Q 1464.89 1442.10 1455.75 1451.25
  C 1449.42 1457.57 1442.68 1464.31 1436.02 1469.82
  Q 1426.53 1477.66 1417.00 1486.26
  C 1406.93 1495.35 1399.21 1500.86 1386.84 1510.92
  Q 1375.71 1519.98 1373.79 1522.75
  Q 1368.31 1530.69 1367.66 1539.06
  C 1366.34 1556.16 1375.99 1572.79 1393.93 1576.11
  Q 1400.76 1577.37 1401.81 1577.29
  Q 1417.95 1575.99 1428.29 1567.26
  Q 1436.95 1559.93 1449.27 1550.53
  Q 1457.26 1544.43 1472.24 1531.24
  C 1483.19 1521.60 1492.11 1514.19 1501.61 1504.91
  Q 1522.09 1484.90 1526.38 1480.63
  C 1531.10 1475.93 1539.07 1467.59 1545.25 1460.19
  C 1553.05 1450.85 1564.22 1438.22 1572.28 1427.52
  C 1576.25 1422.25 1581.56 1416.61 1585.26 1411.51
  Q 1596.60 1395.87 1604.14 1385.91
  Q 1614.38 1372.38 1622.53 1359.95
  Q 1641.78 1330.61 1651.35 1314.14
  Q 1666.72 1287.68 1672.48 1275.97
  Q 1672.96 1274.99 1686.43 1247.20
  C 1691.58 1236.56 1696.62 1224.14 1700.83 1214.54
  Q 1705.65 1203.56 1707.30 1199.06
  Q 1717.52 1171.22 1726.13 1144.41
  Q 1727.62 1139.78 1730.96 1127.15
  Q 1734.28 1114.63 1735.68 1109.86
  Q 1737.29 1104.33 1738.94 1096.62
  C 1741.83 1083.08 1746.85 1066.29 1748.38 1056.41
  Q 1749.87 1046.84 1751.09 1040.53
  C 1753.27 1029.20 1753.92 1022.20 1755.72 1012.57
  Q 1756.27 1009.59 1757.11 1000.42
  Q 1757.73 993.53 1759.33 981.66
  Q 1761.00 969.20 1761.84 946.26
  C 1762.07 939.93 1763.75 932.28 1763.83 927.00
  Q 1764.24 900.05 1764.00 882.75
  Q 1763.88 873.96 1763.49 868.33
  C 1762.08 848.21 1762.54 831.87 1760.25 814.54
  C 1758.81 803.73 1758.67 792.62 1756.31 781.46
  Q 1756.06 780.28 1754.39 768.28
  Q 1753.45 761.57 1749.69 741.70
  Q 1748.24 734.05 1745.57 723.30
  Q 1743.18 713.71 1741.44 704.89
  C 1739.74 696.34 1737.45 689.14 1735.29 679.32
  Q 1733.21 669.89 1730.19 660.30
  Q 1727.28 651.07 1714.20 610.63
  Q 1713.38 608.10 1708.41 595.12
  Q 1707.88 593.73 1702.61 579.59
  C 1696.76 563.93 1689.34 549.26 1683.28 536.23
  C 1675.76 520.07 1666.44 503.01 1659.15 489.35
  C 1653.29 478.36 1644.77 469.59 1632.22 467.29
  Q 1613.96 463.94 1600.21 476.42
  Q 1596.59 479.70 1593.07 487.61
  Q 1591.84 490.36 1591.37 494.95
  C 1590.70 501.50 1590.63 506.77 1592.05 512.32
  Q 1592.71 514.89 1596.15 521.29
  C 1601.50 531.26 1604.08 535.95 1606.28 540.29
  Q 1619.01 565.36 1626.15 581.37
  C 1630.47 591.08 1633.97 600.87 1637.75 610.13
  Q 1642.98 622.96 1644.35 627.14
  Q 1648.25 639.08 1649.28 641.62
  Q 1652.17 648.69 1654.44 655.98
  C 1656.46 662.49 1660.60 673.61 1662.99 682.55
  Q 1663.54 684.62 1666.18 693.52
  C 1669.46 704.57 1672.56 719.53 1674.88 729.31
  C 1676.69 736.89 1677.53 744.23 1679.58 751.67
  Z
  M 753.82 1545.00
  C 759.11 1546.29 764.21 1546.72 769.17 1547.88
  Q 774.82 1549.21 780.68 1550.03
  Q 798.70 1552.54 826.97 1555.47
  Q 848.69 1557.73 871.56 1558.01
  Q 899.58 1558.36 916.25 1558.10
  Q 945.98 1557.64 980.21 1553.17
  C 987.79 1552.18 996.45 1551.73 1002.43 1550.84
  Q 1036.79 1545.77 1070.27 1536.69
  Q 1098.59 1529.01 1117.58 1522.01
  Q 1123.87 1519.69 1141.66 1512.65
  C 1157.19 1506.50 1167.98 1501.29 1184.61 1493.85
  C 1194.78 1489.30 1207.09 1483.48 1217.15 1477.50
  C 1227.25 1471.49 1237.85 1466.74 1247.80 1460.04
  Q 1274.62 1441.98 1292.92 1429.11
  Q 1299.15 1424.72 1306.17 1418.90
  C 1314.57 1411.95 1323.96 1405.76 1332.19 1398.14
  Q 1337.22 1393.48 1344.47 1387.04
  Q 1366.76 1367.27 1385.13 1347.37
  Q 1393.20 1338.62 1409.77 1319.59
  C 1416.95 1311.33 1421.91 1304.25 1430.08 1293.84
  Q 1437.49 1284.40 1444.64 1273.98
  Q 1456.70 1256.41 1467.08 1240.30
  Q 1473.67 1230.07 1478.21 1221.22
  Q 1478.96 1219.77 1488.78 1201.83
  C 1495.59 1189.38 1502.83 1175.02 1508.17 1162.70
  C 1512.21 1153.39 1515.61 1146.47 1518.97 1138.21
  C 1524.41 1124.82 1528.08 1116.22 1532.04 1104.53
  Q 1537.60 1088.09 1540.08 1080.49
  C 1541.34 1076.60 1542.24 1072.47 1543.27 1069.21
  Q 1544.60 1065.00 1545.48 1060.70
  Q 1547.94 1048.78 1551.53 1035.54
  Q 1552.39 1032.37 1552.86 1029.45
  C 1553.72 1024.18 1555.18 1019.23 1555.93 1014.25
  C 1557.12 1006.26 1559.27 998.52 1560.33 990.15
  Q 1561.10 984.01 1561.76 978.40
  Q 1561.76 978.34 1562.48 973.05
  Q 1565.56 950.34 1567.79 916.25
  Q 1568.28 908.82 1568.08 880.93
  C 1567.99 867.45 1567.79 858.38 1563.17 849.11
  C 1560.36 843.45 1554.32 837.35 1547.61 834.91
  Q 1540.83 832.44 1539.81 832.17
  Q 1532.37 830.20 1524.65 832.44
  Q 1516.48 834.81 1511.80 838.00
  Q 1501.81 844.81 1497.93 857.03
  Q 1496.46 861.63 1496.52 872.75
  Q 1496.58 886.36 1496.09 904.99
  C 1495.85 914.26 1494.62 922.61 1494.10 933.02
  C 1493.58 943.76 1493.09 952.64 1491.19 962.25
  C 1489.47 970.92 1489.36 979.91 1487.49 988.18
  Q 1486.63 992.00 1484.58 1004.63
  Q 1481.83 1021.60 1475.64 1044.88
  C 1474.62 1048.71 1473.80 1053.12 1472.45 1057.49
  Q 1464.98 1081.63 1452.89 1111.64
  Q 1449.74 1119.47 1440.68 1139.96
  C 1435.69 1151.24 1431.25 1159.30 1425.78 1170.45
  Q 1422.23 1177.69 1416.47 1187.51
  Q 1408.64 1200.86 1406.39 1204.14
  Q 1400.76 1212.35 1388.66 1231.33
  C 1386.29 1235.04 1383.60 1238.34 1381.45 1241.44
  Q 1379.16 1244.73 1375.86 1248.90
  Q 1366.72 1260.43 1355.03 1274.85
  C 1344.75 1287.54 1335.48 1296.84 1324.28 1309.03
  Q 1321.10 1312.49 1310.86 1321.79
  C 1300.35 1331.34 1290.00 1342.21 1278.97 1351.05
  C 1265.33 1361.98 1251.25 1373.26 1237.26 1382.49
  Q 1225.78 1390.07 1212.08 1399.00
  C 1201.10 1406.17 1189.04 1412.39 1177.19 1418.79
  Q 1172.77 1421.18 1167.09 1423.86
  C 1156.99 1428.62 1147.51 1434.20 1137.03 1438.18
  Q 1136.96 1438.20 1125.93 1442.88
  Q 1118.11 1446.19 1098.90 1453.76
  Q 1088.70 1457.78 1081.57 1459.86
  Q 1068.03 1463.81 1063.85 1464.84
  Q 1047.51 1468.86 1043.29 1470.13
  C 1035.53 1472.47 1030.30 1473.35 1021.65 1475.58
  Q 1011.37 1478.23 995.36 1480.43
  C 992.27 1480.86 988.54 1481.83 986.07 1482.12
  C 973.40 1483.61 954.94 1486.01 939.60 1486.76
  Q 919.61 1487.74 912.75 1487.81
  Q 877.37 1488.14 833.04 1486.03
  Q 820.27 1485.42 806.44 1483.30
  Q 784.18 1479.89 775.58 1478.10
  Q 761.37 1475.14 759.93 1475.02
  Q 756.02 1474.70 749.46 1472.68
  Q 748.25 1472.31 738.96 1470.27
  Q 728.51 1467.98 714.90 1463.57
  Q 701.37 1459.17 695.97 1459.00
  Q 684.06 1458.61 674.95 1465.01
  Q 659.53 1475.85 661.12 1495.90
  C 662.01 1506.95 667.49 1517.50 676.69 1523.67
  Q 681.72 1527.04 689.96 1528.90
  Q 690.70 1529.06 703.64 1533.01
  Q 708.10 1534.37 717.38 1536.77
  Q 724.82 1538.70 731.21 1540.28
  C 739.36 1542.29 746.74 1543.27 753.82 1545.00
  Z
  M 24.36 1004.93
  C 25.09 1011.53 26.40 1016.18 27.24 1022.60
  Q 27.87 1027.43 29.71 1035.80
  C 32.23 1047.32 35.18 1059.53 37.84 1071.64
  Q 38.58 1074.99 40.23 1081.46
  Q 42.43 1090.11 45.27 1100.50
  Q 46.55 1105.18 56.61 1137.18
  C 68.31 1174.37 82.53 1206.76 101.18 1246.59
  Q 105.13 1255.02 111.13 1264.30
  C 119.94 1277.94 132.78 1283.63 148.79 1281.49
  C 165.20 1279.30 176.16 1265.54 178.12 1249.37
  C 179.12 1241.19 176.15 1233.44 172.12 1226.27
  Q 167.24 1217.55 163.27 1210.04
  Q 160.23 1204.27 155.18 1193.32
  C 147.55 1176.74 143.68 1168.96 139.35 1157.83
  Q 135.39 1147.67 133.29 1142.73
  C 130.21 1135.49 126.94 1124.76 125.28 1119.51
  Q 122.22 1109.88 119.48 1102.05
  C 111.55 1079.40 105.84 1055.26 101.62 1031.04
  Q 101.14 1028.28 100.51 1025.82
  C 99.14 1020.44 98.62 1014.81 97.51 1009.64
  Q 95.62 1000.91 95.47 998.69
  C 94.93 990.83 92.68 983.14 91.55 974.78
  Q 88.54 952.64 86.78 932.00
  Q 85.97 922.37 85.84 917.50
  C 85.62 908.51 84.98 900.58 84.88 890.52
  C 84.79 880.53 85.61 871.83 83.20 864.07
  Q 78.72 849.67 65.18 841.67
  Q 61.90 839.73 54.58 838.27
  Q 49.41 837.25 43.57 838.82
  C 26.57 843.42 14.46 855.65 14.33 873.98
  Q 14.14 899.70 14.37 911.38
  Q 14.51 918.11 15.25 923.49
  C 16.54 932.90 16.53 936.93 17.11 947.36
  C 17.65 956.95 19.37 966.01 20.32 975.68
  Q 20.84 980.96 22.53 990.27
  Q 23.09 993.37 24.36 1004.93
  Z
  M 1165.30 1169.72
  C 1173.10 1162.68 1177.43 1153.55 1178.37 1143.20
  Q 1178.94 1136.92 1176.17 1128.57
  C 1174.88 1124.65 1171.36 1119.97 1168.87 1117.39
  Q 1156.66 1104.74 1139.08 1107.24
  Q 1131.38 1108.33 1124.75 1112.99
  C 1122.41 1114.63 1118.65 1117.34 1115.96 1119.92
  C 1105.04 1130.41 1096.96 1138.48 1086.22 1145.95
  Q 1071.56 1156.16 1056.19 1165.62
  Q 1044.94 1172.56 1040.83 1174.36
  Q 1007.17 1189.15 986.02 1195.47
  Q 972.85 1199.41 945.31 1204.75
  C 933.54 1207.04 919.08 1208.36 909.82 1208.61
  Q 907.05 1208.69 882.01 1209.36
  Q 875.46 1209.53 872.18 1210.73
  Q 861.47 1214.62 855.20 1223.33
  C 846.47 1235.46 847.18 1252.54 855.86 1264.59
  C 860.36 1270.82 867.69 1274.98 874.49 1277.09
  Q 877.59 1278.05 884.03 1278.32
  Q 906.78 1279.25 926.63 1276.85
  C 935.04 1275.83 946.61 1274.87 956.18 1273.18
  C 970.73 1270.60 986.14 1267.09 1003.95 1262.61
  Q 1012.87 1260.37 1021.79 1257.35
  Q 1036.42 1252.41 1039.33 1251.11
  C 1058.81 1242.42 1077.41 1234.96 1094.67 1223.66
  Q 1101.35 1219.28 1122.86 1204.93
  C 1127.05 1202.13 1131.36 1198.83 1135.22 1195.54
  C 1147.61 1185.00 1156.78 1177.40 1165.30 1169.72
  Z
  M 703.05 1730.70
  C 725.00 1735.72 737.04 1738.10 757.09 1741.75
  C 763.71 1742.96 770.61 1743.41 776.56 1744.59
  C 787.40 1746.73 799.72 1747.42 809.39 1748.75
  Q 818.13 1749.95 827.66 1750.49
  C 862.94 1752.45 887.32 1754.36 915.67 1752.35
  C 925.77 1751.64 935.18 1751.31 941.55 1751.10
  Q 945.68 1750.96 960.91 1749.48
  Q 973.90 1748.22 983.18 1747.37
  C 1001.60 1745.70 1016.38 1733.50 1018.63 1714.64
  C 1019.51 1707.31 1015.43 1697.47 1011.22 1691.69
  C 1003.48 1681.07 987.90 1675.88 975.15 1677.89
  C 970.28 1678.65 966.99 1679.19 963.17 1679.36
  Q 947.76 1680.02 939.89 1680.47
  Q 923.37 1681.40 916.60 1681.47
  Q 871.01 1681.98 844.00 1680.50
  Q 829.17 1679.69 791.36 1675.45
  C 782.83 1674.50 775.99 1672.87 768.02 1671.94
  Q 761.38 1671.17 750.60 1668.94
  Q 732.54 1665.20 727.30 1664.25
  C 721.91 1663.27 717.28 1661.81 711.40 1660.64
  C 707.75 1659.91 703.09 1658.10 698.61 1657.27
  C 690.17 1655.72 684.43 1653.65 673.00 1650.28
  C 661.96 1647.03 656.75 1645.87 652.14 1644.03
  Q 649.61 1643.02 647.86 1642.58
  C 641.37 1640.98 634.04 1637.56 627.42 1635.50
  Q 602.32 1627.66 580.59 1617.85
  Q 551.07 1604.52 535.06 1596.67
  Q 529.65 1594.01 521.52 1589.38
  C 513.53 1584.84 504.42 1581.05 496.39 1576.12
  Q 482.69 1567.73 473.52 1561.99
  C 453.76 1549.64 441.08 1542.04 426.88 1530.03
  C 422.22 1526.09 417.29 1523.26 412.52 1521.44
  Q 409.77 1520.39 403.47 1520.00
  Q 387.43 1519.00 376.56 1529.83
  C 368.69 1537.67 364.92 1548.62 367.17 1559.50
  Q 368.65 1566.66 371.70 1571.81
  Q 378.40 1583.10 389.77 1590.72
  C 410.12 1604.35 431.11 1619.30 451.41 1631.09
  Q 476.48 1645.65 503.32 1659.47
  Q 507.65 1661.70 514.93 1665.11
  Q 516.10 1665.66 526.30 1670.60
  Q 529.22 1672.01 553.04 1682.70
  Q 563.78 1687.52 574.38 1691.12
  Q 581.63 1693.57 595.81 1699.17
  Q 601.33 1701.35 626.79 1710.06
  C 639.60 1714.45 654.64 1718.30 668.24 1722.28
  Q 673.68 1723.87 678.38 1724.90
  C 685.05 1726.35 689.40 1727.91 695.82 1729.05
  Q 695.89 1729.07 703.05 1730.70
  Z"
/>
<path fill="#1b3359" d="
  M 1006.40 103.47
  Q 1003.96 103.03 999.65 102.28
  C 991.25 100.81 982.58 100.13 974.76 98.77
  Q 963.91 96.88 959.68 96.62
  C 953.69 96.26 945.60 94.94 939.43 94.48
  Q 889.75 90.76 839.70 93.00
  Q 830.87 93.40 824.80 94.05
  C 812.63 95.38 802.30 95.55 789.19 97.37
  Q 781.84 98.40 768.50 99.95
  Q 765.75 100.27 748.13 103.66
  Q 733.01 106.57 728.98 107.31
  Q 715.26 109.84 709.87 111.23
  C 698.78 114.08 688.13 115.57 676.85 119.09
  C 672.37 120.49 668.21 121.23 663.37 122.75
  Q 646.36 128.07 643.34 129.12
  Q 615.47 138.83 593.85 146.79
  C 585.00 150.05 581.32 151.82 571.48 156.03
  Q 560.63 160.66 533.39 173.20
  Q 523.01 177.98 514.64 182.59
  C 507.38 186.59 495.27 192.63 485.69 198.41
  Q 482.27 200.48 475.27 204.42
  C 469.11 207.89 462.36 212.51 455.87 216.60
  Q 428.91 233.58 421.51 239.02
  Q 412.07 245.97 383.68 267.35
  Q 372.38 275.86 365.32 282.24
  C 357.84 289.01 349.99 295.12 341.66 303.06
  Q 319.33 324.32 302.29 341.85
  Q 293.40 351.00 287.35 358.27
  C 280.26 366.79 274.68 372.63 268.08 380.75
  Q 265.46 383.96 256.84 394.75
  C 247.21 406.79 237.02 421.83 230.08 430.75
  C 222.22 440.86 215.06 452.94 206.66 464.38
  C 202.20 470.44 199.28 475.65 195.15 481.88
  Q 193.18 484.86 190.87 489.09
  Q 178.97 510.87 175.17 517.39
  C 170.39 525.61 167.25 533.80 162.49 542.46
  Q 159.63 547.66 153.61 560.87
  C 147.46 574.33 142.11 584.47 136.87 597.96
  Q 133.50 606.63 130.62 610.45
  Q 121.91 621.98 107.24 624.70
  C 98.54 626.31 90.35 623.54 83.15 618.33
  Q 71.42 609.85 68.77 595.77
  C 67.17 587.25 68.69 579.76 72.24 571.40
  Q 76.22 562.01 79.97 552.57
  Q 82.36 546.54 88.44 534.07
  Q 96.97 516.55 100.36 509.58
  Q 117.86 473.67 138.07 441.01
  C 143.16 432.79 149.34 424.21 154.39 416.40
  Q 166.60 397.48 173.14 388.63
  Q 179.66 379.82 194.59 360.15
  C 203.88 347.90 209.46 341.72 219.52 329.54
  Q 225.81 321.93 229.92 317.66
  Q 240.87 306.28 245.30 301.05
  C 252.38 292.69 255.50 288.88 263.02 282.09
  Q 270.29 275.52 276.74 268.59
  C 279.08 266.08 281.20 264.41 284.20 261.71
  Q 303.29 244.55 308.35 239.60
  C 314.88 233.21 325.61 225.66 333.30 218.86
  Q 341.88 211.28 351.82 204.08
  Q 363.01 195.96 379.53 183.04
  C 392.41 172.96 406.62 165.01 420.54 155.56
  Q 426.71 151.37 439.24 144.15
  Q 447.73 139.25 458.18 133.16
  C 468.09 127.38 475.07 122.99 484.98 118.19
  Q 520.64 100.92 543.89 90.92
  C 549.71 88.41 558.01 84.78 565.78 81.89
  C 582.05 75.85 597.20 69.20 613.87 64.23
  C 625.43 60.78 637.18 56.86 648.30 53.84
  Q 673.90 46.89 705.98 39.75
  C 712.20 38.36 724.93 35.70 734.57 34.24
  Q 736.95 33.88 746.28 32.12
  Q 761.44 29.26 778.96 27.43
  C 784.93 26.80 791.50 25.34 796.04 25.10
  Q 814.60 24.15 827.43 22.99
  Q 842.12 21.66 855.48 21.49
  Q 883.88 21.14 918.25 21.92
  Q 924.53 22.07 931.23 22.85
  C 943.25 24.27 950.29 24.63 964.82 25.93
  Q 972.63 26.63 978.58 27.57
  C 987.88 29.04 996.25 29.96 1005.15 31.73
  C 1010.59 32.80 1016.69 33.27 1022.27 34.55
  Q 1027.50 35.76 1032.58 36.35
  C 1040.22 37.25 1045.05 38.80 1053.03 40.33
  C 1058.36 41.35 1064.31 43.50 1070.38 44.40
  Q 1073.36 44.85 1077.30 46.12
  C 1082.13 47.69 1088.45 48.79 1094.18 50.47
  Q 1109.55 54.98 1121.76 58.45
  C 1131.28 61.16 1142.28 64.94 1151.80 68.00
  Q 1158.29 70.09 1165.39 73.00
  C 1171.79 75.62 1177.03 77.24 1183.40 79.93
  Q 1196.05 85.27 1199.75 86.45
  Q 1206.33 88.57 1208.27 89.21
  Q 1219.96 93.09 1225.56 104.19
  C 1233.18 119.30 1231.58 137.95 1217.61 148.85
  C 1205.89 158.01 1190.92 158.40 1177.34 152.75
  C 1167.73 148.76 1163.03 146.72 1154.49 143.68
  Q 1146.65 140.88 1119.40 131.65
  Q 1109.46 128.29 1099.32 125.36
  Q 1091.73 123.17 1091.71 123.16
  C 1085.95 121.75 1081.08 119.62 1075.77 118.38
  C 1071.69 117.42 1068.65 116.31 1064.45 115.61
  Q 1061.34 115.09 1050.22 112.32
  Q 1043.13 110.56 1026.81 107.50
  C 1019.05 106.04 1015.27 105.07 1006.40 103.47
  Z"
/>
<path fill="#1b3359" d="
  M 755.76 833.75
  A 0.66 0.65 -88.9 0 0 756.37 833.15
  Q 756.71 828.93 758.50 815.31
  Q 759.56 807.33 762.06 800.03
  Q 765.88 788.90 767.54 785.30
  Q 772.15 775.25 782.13 761.10
  C 789.98 749.98 799.39 742.20 810.27 734.02
  Q 828.10 720.59 850.59 714.21
  Q 856.25 712.60 861.66 712.00
  C 867.02 711.41 871.27 709.98 876.52 709.75
  Q 895.03 708.93 912.60 711.56
  A 1.89 1.89 0.0 0 0 914.51 710.65
  Q 924.88 693.28 937.71 672.96
  C 942.22 665.82 951.03 654.11 956.67 645.34
  Q 964.54 633.13 968.88 627.62
  Q 976.29 618.23 979.25 614.31
  C 985.70 605.78 991.32 599.64 998.41 590.53
  C 1005.14 581.88 1011.33 575.85 1020.50 565.57
  Q 1029.13 555.89 1038.68 546.58
  Q 1043.93 541.46 1056.97 527.74
  Q 1062.87 521.54 1100.44 486.93
  C 1105.24 482.51 1110.18 477.34 1115.01 473.19
  Q 1128.72 461.42 1138.23 452.72
  C 1150.29 441.70 1160.97 432.79 1172.54 422.03
  Q 1178.21 416.76 1186.27 409.78
  Q 1199.82 398.05 1211.43 388.16
  Q 1219.34 381.41 1252.65 352.90
  C 1257.78 348.51 1263.31 344.57 1267.91 340.48
  Q 1281.47 328.42 1295.83 316.90
  C 1302.21 311.79 1309.01 305.02 1315.41 299.94
  Q 1328.23 289.76 1336.42 282.80
  C 1353.07 268.66 1367.11 257.73 1383.82 243.80
  C 1388.51 239.89 1394.99 233.75 1400.40 229.78
  C 1409.07 223.40 1417.11 216.14 1425.69 209.21
  C 1437.28 199.86 1441.99 196.47 1451.43 187.97
  Q 1456.85 183.08 1464.11 177.87
  C 1472.32 171.97 1476.44 168.29 1483.66 162.24
  C 1490.77 156.28 1497.75 149.47 1504.62 144.13
  C 1508.68 140.97 1514.52 137.16 1519.93 135.88
  Q 1529.73 133.55 1534.76 133.80
  Q 1537.45 133.93 1544.52 136.15
  C 1551.15 138.23 1558.75 144.22 1563.55 148.51
  C 1568.18 152.63 1571.35 155.23 1575.28 159.10
  Q 1586.24 169.87 1600.91 183.09
  Q 1601.69 183.79 1608.61 189.15
  C 1620.30 198.21 1627.18 212.03 1626.69 226.97
  Q 1626.18 242.53 1616.79 256.03
  Q 1606.41 270.95 1594.71 290.09
  Q 1584.36 307.01 1577.41 317.67
  Q 1569.88 329.22 1565.92 336.09
  Q 1559.15 347.83 1554.64 354.61
  Q 1553.37 356.51 1535.59 384.71
  Q 1525.74 400.32 1519.74 409.22
  C 1512.15 420.48 1506.48 430.32 1498.78 441.98
  C 1492.94 450.81 1480.98 468.59 1471.98 482.57
  C 1466.51 491.06 1460.74 499.09 1455.40 507.48
  C 1444.60 524.42 1432.72 541.44 1419.54 561.13
  Q 1413.31 570.43 1406.70 579.25
  Q 1400.49 587.53 1393.94 597.45
  Q 1387.93 606.55 1384.83 610.38
  C 1379.98 616.36 1377.35 620.63 1371.86 627.06
  Q 1367.43 632.25 1358.65 643.92
  C 1349.59 655.97 1344.52 661.16 1334.11 673.58
  Q 1327.23 681.80 1318.89 689.95
  Q 1310.79 697.87 1298.82 710.32
  Q 1297.04 712.18 1293.91 714.91
  Q 1284.31 723.31 1274.31 731.84
  Q 1265.99 738.94 1253.77 747.59
  Q 1224.20 768.54 1220.60 770.83
  C 1217.53 772.78 1215.33 774.35 1212.17 776.04
  C 1195.97 784.74 1182.45 792.67 1167.15 799.66
  C 1155.24 805.10 1144.97 808.78 1133.86 813.38
  Q 1125.80 816.71 1115.27 819.92
  Q 1103.90 823.39 1092.56 827.12
  Q 1081.91 830.62 1069.62 833.59
  Q 1044.86 839.57 1021.27 841.93
  A 1.90 1.90 0.0 0 0 1019.56 843.65
  Q 1018.52 854.98 1016.32 865.93
  Q 1014.26 876.24 1009.50 887.21
  Q 1001.60 905.43 989.10 920.10
  C 985.65 924.14 982.74 927.89 978.51 931.53
  C 973.75 935.62 969.40 939.96 964.85 943.48
  C 948.81 955.92 928.64 965.46 908.07 968.08
  Q 896.86 969.51 891.00 969.36
  Q 882.63 969.14 872.26 968.66
  C 870.29 968.56 869.30 969.55 868.33 971.31
  C 861.60 983.57 855.42 992.61 844.99 1008.24
  C 837.92 1018.82 826.85 1032.53 820.14 1042.03
  C 814.60 1049.88 809.74 1056.31 804.29 1062.72
  C 796.72 1071.62 788.47 1082.10 779.25 1091.92
  C 770.08 1101.71 761.73 1111.59 752.43 1120.61
  C 743.63 1129.16 735.11 1138.21 725.66 1147.15
  Q 702.94 1168.65 699.71 1171.45
  Q 696.30 1174.40 693.45 1176.95
  C 682.22 1187.02 672.15 1197.17 660.70 1206.17
  Q 655.00 1210.65 645.17 1219.66
  C 636.65 1227.47 626.86 1235.00 616.97 1243.96
  Q 613.43 1247.18 605.55 1253.52
  C 596.58 1260.74 582.20 1272.39 571.54 1281.55
  Q 560.23 1291.28 553.19 1296.69
  Q 543.58 1304.09 538.75 1308.07
  C 527.83 1317.09 522.14 1321.04 512.99 1329.21
  Q 510.23 1331.68 501.42 1338.67
  Q 485.52 1351.26 468.48 1365.47
  Q 464.41 1368.86 447.27 1381.96
  C 441.79 1386.15 436.23 1391.20 430.91 1395.11
  C 416.92 1405.40 407.88 1412.86 395.84 1422.10
  Q 379.77 1434.43 357.12 1452.40
  C 347.11 1460.35 335.76 1467.90 325.34 1476.38
  C 317.99 1482.37 309.26 1488.32 301.96 1493.66
  C 296.36 1497.78 289.59 1504.02 284.09 1508.09
  C 267.55 1520.31 253.80 1529.91 240.67 1541.69
  C 230.15 1551.14 215.06 1553.49 201.54 1550.92
  C 198.03 1550.25 193.35 1547.95 190.35 1546.00
  Q 179.91 1539.20 169.39 1530.42
  C 161.43 1523.77 153.04 1514.46 145.81 1507.94
  Q 142.00 1504.49 137.66 1499.60
  C 130.91 1491.97 126.68 1487.58 123.43 1479.96
  C 119.56 1470.88 120.61 1458.38 122.98 1448.99
  C 125.17 1440.33 131.91 1432.54 136.70 1424.82
  C 145.10 1411.30 151.89 1401.87 158.87 1389.94
  C 164.77 1379.85 172.90 1369.28 179.57 1358.42
  Q 185.52 1348.72 187.28 1346.27
  Q 205.39 1321.02 217.26 1303.50
  C 224.19 1293.27 232.84 1281.78 239.95 1270.32
  C 246.32 1260.06 250.33 1254.89 258.28 1243.76
  Q 271.34 1225.47 273.90 1221.36
  C 280.59 1210.59 288.02 1201.34 295.24 1190.46
  Q 302.17 1180.01 309.59 1170.23
  Q 316.38 1161.26 324.19 1150.16
  Q 325.57 1148.20 326.74 1146.53
  Q 332.79 1137.91 338.97 1129.51
  C 344.59 1121.87 351.28 1114.02 356.83 1106.17
  Q 363.61 1096.57 365.16 1094.77
  Q 368.42 1090.98 370.99 1087.37
  C 374.53 1082.42 380.13 1076.18 383.79 1071.30
  C 391.22 1061.40 399.43 1052.17 407.18 1042.51
  Q 413.81 1034.26 424.34 1022.95
  C 451.94 993.29 479.22 965.31 509.52 942.29
  Q 510.52 941.53 516.52 937.11
  C 523.75 931.78 532.22 924.53 537.83 921.06
  C 552.70 911.88 565.26 903.46 578.13 896.55
  Q 602.25 883.59 612.90 878.67
  Q 619.80 875.48 641.54 865.72
  Q 650.61 861.65 657.69 859.29
  C 667.20 856.13 670.97 854.53 679.71 851.93
  Q 699.63 846.00 708.77 843.00
  C 716.32 840.52 722.42 839.48 731.22 837.42
  C 735.59 836.39 742.24 836.24 747.74 834.84
  Q 751.17 833.97 755.76 833.75
  Z
  M 974.90 740.92
  Q 977.10 743.03 981.56 746.95
  Q 996.17 759.77 1003.76 777.59
  A 0.92 0.92 0.0 0 0 1004.50 778.14
  Q 1008.20 778.51 1011.29 777.51
  Q 1018.38 775.20 1029.73 772.93
  C 1051.06 768.67 1071.87 763.02 1092.71 755.97
  C 1100.08 753.47 1105.54 751.00 1111.90 748.79
  Q 1118.37 746.53 1126.11 743.00
  C 1136.31 738.35 1143.82 735.36 1151.89 731.11
  C 1185.99 713.13 1216.48 694.20 1243.19 669.68
  Q 1273.23 642.11 1302.86 604.86
  C 1309.11 597.01 1314.70 588.51 1321.23 580.32
  Q 1327.49 572.45 1334.81 561.81
  C 1342.07 551.25 1348.98 542.86 1355.88 532.60
  Q 1361.76 523.85 1380.91 496.73
  C 1389.37 484.75 1396.14 472.34 1404.19 461.08
  Q 1410.53 452.20 1420.11 436.87
  Q 1424.76 429.41 1436.68 410.86
  Q 1439.74 406.09 1442.51 401.77
  Q 1466.98 363.62 1499.27 313.78
  Q 1504.32 306.00 1529.54 265.92
  Q 1534.70 257.72 1539.55 249.30
  Q 1545.06 239.74 1549.94 232.92
  C 1552.51 229.32 1547.66 227.25 1545.79 225.46
  Q 1543.32 223.08 1533.56 212.75
  Q 1531.77 210.85 1530.37 210.75
  A 1.78 1.75 23.7 0 0 1528.97 211.28
  Q 1525.12 215.18 1523.68 216.43
  Q 1487.63 247.62 1453.00 276.00
  C 1447.68 280.36 1440.30 287.20 1433.65 292.28
  C 1423.62 299.92 1413.68 309.20 1404.21 316.31
  C 1393.47 324.38 1383.93 333.33 1372.75 342.01
  C 1360.64 351.43 1348.61 362.91 1336.10 373.09
  Q 1327.50 380.09 1293.06 408.67
  C 1285.08 415.28 1277.98 422.38 1269.08 429.72
  C 1256.41 440.17 1246.58 449.35 1233.96 459.45
  C 1223.33 467.95 1213.91 477.57 1204.10 485.66
  Q 1195.78 492.53 1186.68 500.66
  Q 1147.84 535.37 1129.16 552.65
  Q 1097.70 581.75 1067.25 614.95
  C 1051.95 631.64 1038.92 648.95 1025.01 666.49
  Q 1016.92 676.69 1001.96 699.18
  Q 1000.95 700.69 978.44 735.21
  Q 976.50 738.18 974.86 740.05
  A 0.63 0.62 -48.0 0 0 974.90 740.92
  Z
  M 889.66 776.25
  C 868.60 775.55 848.90 786.59 835.89 802.69
  C 827.82 812.69 823.82 826.35 822.88 839.32
  Q 822.65 842.52 823.09 845.23
  Q 825.70 861.03 834.04 874.19
  C 843.11 888.50 855.69 896.02 872.24 899.73
  Q 896.39 905.13 918.35 893.84
  C 933.37 886.12 943.14 871.43 948.34 855.84
  Q 955.34 834.83 947.66 814.59
  Q 946.05 810.36 941.65 803.65
  Q 932.55 789.76 918.89 783.30
  Q 905.06 776.76 889.66 776.25
  Z
  M 193.67 1462.24
  Q 197.09 1465.25 209.51 1477.61
  C 211.47 1479.56 212.39 1479.78 214.72 1478.19
  C 217.86 1476.05 221.49 1471.96 224.80 1469.30
  Q 240.29 1456.88 245.08 1452.77
  Q 253.66 1445.41 265.55 1436.48
  Q 295.82 1413.77 330.79 1385.31
  Q 335.16 1381.75 349.56 1371.41
  C 356.36 1366.53 362.34 1360.91 368.51 1356.20
  Q 391.18 1338.91 392.97 1337.50
  C 403.85 1328.92 412.45 1320.99 424.20 1312.45
  Q 432.81 1306.19 440.96 1299.15
  C 445.88 1294.91 452.47 1290.02 455.92 1287.42
  C 462.42 1282.52 470.11 1275.70 476.54 1270.52
  C 483.97 1264.53 491.43 1259.23 499.08 1252.84
  Q 506.40 1246.71 525.37 1231.87
  Q 528.49 1229.43 538.95 1220.13
  Q 544.02 1215.63 552.64 1208.51
  Q 590.30 1177.42 597.38 1170.87
  Q 615.41 1154.21 631.46 1141.04
  C 639.57 1134.38 646.45 1127.17 653.65 1120.82
  Q 659.84 1115.36 669.97 1105.30
  Q 677.36 1097.97 688.90 1087.39
  C 693.58 1083.10 697.39 1078.98 701.73 1074.23
  C 709.40 1065.81 720.00 1056.45 726.19 1048.95
  Q 730.79 1043.39 749.34 1021.85
  Q 752.51 1018.16 754.18 1015.92
  Q 763.05 1004.01 784.40 974.87
  C 791.86 964.69 799.51 952.17 807.45 942.19
  A 1.39 1.38 -60.4 0 0 806.86 940.03
  Q 806.15 939.76 803.68 937.81
  Q 801.71 936.25 792.81 927.18
  Q 787.69 921.96 783.42 916.17
  Q 775.82 905.87 770.58 897.08
  A 1.54 1.53 -26.7 0 0 768.67 896.45
  C 758.00 900.85 747.00 902.36 735.78 905.68
  Q 724.47 909.02 716.27 911.11
  C 711.44 912.34 707.11 914.33 702.69 915.70
  Q 680.94 922.43 658.59 932.89
  Q 653.38 935.33 637.64 942.86
  C 619.20 951.68 603.05 960.65 585.75 971.60
  Q 573.95 979.07 560.01 989.87
  C 541.20 1004.43 525.85 1017.21 510.17 1032.17
  C 501.97 1040.01 495.94 1047.23 487.49 1055.82
  Q 476.92 1066.57 467.25 1077.75
  C 459.91 1086.24 453.31 1093.10 447.47 1100.91
  C 439.55 1111.52 430.68 1121.73 423.00 1132.16
  Q 419.13 1137.41 410.96 1148.66
  Q 392.08 1174.65 372.14 1201.39
  C 363.35 1213.18 354.52 1226.72 346.48 1237.77
  Q 322.14 1271.23 307.53 1292.06
  Q 304.22 1296.78 304.05 1297.05
  C 294.44 1311.54 286.15 1322.75 276.74 1337.33
  Q 263.98 1357.10 251.00 1374.93
  C 246.85 1380.62 241.56 1388.73 239.03 1393.07
  Q 237.27 1396.09 230.01 1406.62
  Q 214.49 1429.14 198.82 1452.34
  Q 195.66 1457.01 193.45 1459.83
  A 1.76 1.76 0.0 0 0 193.67 1462.24
  Z"
/>
<path fill="#ffffff" d="
  M 974.90 740.92
  A 0.63 0.62 -48.0 0 1 974.86 740.05
  Q 976.50 738.18 978.44 735.21
  Q 1000.95 700.69 1001.96 699.18
  Q 1016.92 676.69 1025.01 666.49
  C 1038.92 648.95 1051.95 631.64 1067.25 614.95
  Q 1097.70 581.75 1129.16 552.65
  Q 1147.84 535.37 1186.68 500.66
  Q 1195.78 492.53 1204.10 485.66
  C 1213.91 477.57 1223.33 467.95 1233.96 459.45
  C 1246.58 449.35 1256.41 440.17 1269.08 429.72
  C 1277.98 422.38 1285.08 415.28 1293.06 408.67
  Q 1327.50 380.09 1336.10 373.09
  C 1348.61 362.91 1360.64 351.43 1372.75 342.01
  C 1383.93 333.33 1393.47 324.38 1404.21 316.31
  C 1413.68 309.20 1423.62 299.92 1433.65 292.28
  C 1440.30 287.20 1447.68 280.36 1453.00 276.00
  Q 1487.63 247.62 1523.68 216.43
  Q 1525.12 215.18 1528.97 211.28
  A 1.78 1.75 23.7 0 1 1530.37 210.75
  Q 1531.77 210.85 1533.56 212.75
  Q 1543.32 223.08 1545.79 225.46
  C 1547.66 227.25 1552.51 229.32 1549.94 232.92
  Q 1545.06 239.74 1539.55 249.30
  Q 1534.70 257.72 1529.54 265.92
  Q 1504.32 306.00 1499.27 313.78
  Q 1466.98 363.62 1442.51 401.77
  Q 1439.74 406.09 1436.68 410.86
  Q 1424.76 429.41 1420.11 436.87
  Q 1410.53 452.20 1404.19 461.08
  C 1396.14 472.34 1389.37 484.75 1380.91 496.73
  Q 1361.76 523.85 1355.88 532.60
  C 1348.98 542.86 1342.07 551.25 1334.81 561.81
  Q 1327.49 572.45 1321.23 580.32
  C 1314.70 588.51 1309.11 597.01 1302.86 604.86
  Q 1273.23 642.11 1243.19 669.68
  C 1216.48 694.20 1185.99 713.13 1151.89 731.11
  C 1143.82 735.36 1136.31 738.35 1126.11 743.00
  Q 1118.37 746.53 1111.90 748.79
  C 1105.54 751.00 1100.08 753.47 1092.71 755.97
  C 1071.87 763.02 1051.06 768.67 1029.73 772.93
  Q 1018.38 775.20 1011.29 777.51
  Q 1008.20 778.51 1004.50 778.14
  A 0.92 0.92 0.0 0 1 1003.76 777.59
  Q 996.17 759.77 981.56 746.95
  Q 977.10 743.03 974.90 740.92
  Z"
/>
<path fill="#1b3359" d="
  M 260.79 1078.65
  C 245.66 1076.75 235.57 1063.47 231.56 1049.44
  Q 228.97 1040.34 226.23 1029.00
  C 224.32 1021.12 223.89 1016.95 222.57 1011.44
  C 221.47 1006.87 221.06 1002.42 220.01 998.64
  Q 218.93 994.77 218.40 991.17
  C 216.79 980.23 215.12 972.48 214.16 962.24
  C 212.97 949.64 210.33 934.20 209.83 919.42
  C 209.58 912.12 208.56 904.37 208.43 896.76
  Q 207.91 866.67 208.36 845.52
  Q 208.52 837.86 209.10 832.16
  C 210.36 819.62 210.66 808.31 212.40 795.47
  Q 214.55 779.66 215.56 771.37
  Q 217.09 758.75 219.55 747.41
  Q 223.04 731.31 223.87 727.13
  Q 225.89 716.96 228.55 706.94
  Q 234.42 684.83 241.08 664.57
  C 242.18 661.24 243.47 658.28 244.65 654.86
  Q 254.66 625.89 262.78 609.24
  Q 270.47 593.48 271.74 590.47
  Q 276.43 579.40 280.72 571.71
  Q 291.77 551.88 292.29 551.04
  Q 298.69 540.69 306.26 527.88
  Q 311.80 518.50 321.14 505.30
  Q 330.21 492.47 343.12 475.05
  C 351.47 463.79 361.89 452.63 370.23 442.23
  Q 374.05 437.45 378.54 433.03
  Q 379.63 431.96 391.76 419.08
  Q 397.63 412.85 405.42 405.59
  C 422.19 389.98 429.05 383.02 441.42 372.75
  Q 454.69 361.72 456.68 360.19
  Q 468.57 351.05 470.67 349.33
  C 479.59 342.02 490.68 334.97 500.70 328.04
  C 515.87 317.55 529.50 309.86 546.76 299.25
  Q 560.08 291.06 570.54 286.28
  Q 584.66 279.83 595.25 274.54
  C 604.92 269.71 613.16 268.00 624.00 270.27
  C 635.43 272.66 643.97 283.44 647.15 294.06
  Q 648.06 297.07 648.07 304.78
  C 648.08 317.00 641.74 327.72 631.63 334.12
  C 627.43 336.78 620.88 338.93 615.55 341.44
  Q 601.96 347.85 597.86 350.11
  Q 572.75 363.99 547.82 380.34
  Q 543.91 382.90 521.95 398.60
  C 518.64 400.97 513.75 403.89 509.99 406.99
  Q 506.15 410.15 483.51 428.62
  Q 477.90 433.19 473.01 437.93
  C 463.39 447.23 453.50 454.84 444.78 464.28
  Q 432.80 477.26 420.83 490.32
  C 415.78 495.84 409.24 505.12 403.96 511.12
  C 400.35 515.22 397.40 518.67 394.28 523.18
  C 383.44 538.91 371.86 554.91 362.76 570.01
  Q 361.09 572.76 349.36 593.79
  Q 342.79 605.56 338.19 615.55
  C 333.42 625.92 328.66 634.57 324.35 645.05
  C 314.91 668.05 307.12 687.89 301.80 709.02
  C 295.33 734.73 289.66 756.64 285.85 781.75
  Q 285.05 787.05 284.53 789.75
  C 282.88 798.39 282.58 806.94 281.40 815.78
  Q 280.11 825.50 279.76 833.79
  Q 278.60 861.33 278.66 882.14
  C 278.71 900.06 281.05 921.65 281.88 935.49
  Q 282.27 941.91 283.40 947.97
  C 285.11 957.15 285.72 966.50 287.42 974.54
  C 288.71 980.66 289.35 986.34 290.99 993.26
  C 293.26 1002.78 295.03 1008.48 296.02 1016.07
  Q 296.38 1018.87 299.00 1028.49
  Q 299.52 1030.40 300.67 1038.33
  Q 301.48 1043.92 300.94 1048.23
  Q 298.94 1064.19 285.47 1073.93
  C 278.27 1079.14 269.83 1079.79 260.79 1078.65
  Z"
/>
<path fill="#1b3359" d="
  M 578.08 634.42
  C 555.33 628.19 550.05 603.95 558.02 584.38
  Q 559.23 581.42 564.29 575.78
  Q 587.50 549.94 616.03 525.52
  C 625.90 517.08 636.21 510.19 647.88 501.89
  Q 652.84 498.36 656.01 496.51
  Q 674.75 485.55 697.72 473.55
  C 716.29 463.84 734.59 457.80 755.06 450.61
  Q 764.03 447.47 774.55 445.02
  Q 788.53 441.76 794.42 440.75
  C 802.76 439.32 811.93 437.35 819.26 436.41
  Q 842.18 433.44 857.40 432.66
  Q 872.11 431.91 888.00 432.60
  C 892.86 432.82 898.70 433.59 903.07 435.66
  C 911.83 439.82 916.99 446.39 919.53 455.55
  Q 921.37 462.20 921.45 464.84
  Q 921.60 469.38 919.05 477.37
  Q 916.93 484.01 910.95 489.70
  Q 909.20 491.36 902.79 495.56
  Q 898.23 498.55 891.00 498.82
  Q 856.70 500.12 841.76 502.31
  Q 831.37 503.84 805.65 509.22
  Q 787.37 513.04 768.65 519.19
  Q 759.97 522.05 749.90 526.43
  Q 732.89 533.83 713.97 543.73
  Q 703.14 549.39 697.24 553.23
  Q 677.76 565.87 660.50 578.50
  C 651.08 585.38 640.18 596.86 633.84 602.34
  Q 628.04 607.36 622.82 613.83
  C 619.06 618.50 615.91 623.14 611.55 626.63
  C 602.50 633.89 589.43 637.53 578.08 634.42
  Z"
/>
<path fill="#1b3359" d="
  M 1682.22 766.06
  C 1681.17 761.88 1680.85 756.26 1679.58 751.67
  C 1677.53 744.23 1676.69 736.89 1674.88 729.31
  C 1672.56 719.53 1669.46 704.57 1666.18 693.52
  Q 1663.54 684.62 1662.99 682.55
  C 1660.60 673.61 1656.46 662.49 1654.44 655.98
  Q 1652.17 648.69 1649.28 641.62
  Q 1648.25 639.08 1644.35 627.14
  Q 1642.98 622.96 1637.75 610.13
  C 1633.97 600.87 1630.47 591.08 1626.15 581.37
  Q 1619.01 565.36 1606.28 540.29
  C 1604.08 535.95 1601.50 531.26 1596.15 521.29
  Q 1592.71 514.89 1592.05 512.32
  C 1590.63 506.77 1590.70 501.50 1591.37 494.95
  Q 1591.84 490.36 1593.07 487.61
  Q 1596.59 479.70 1600.21 476.42
  Q 1613.96 463.94 1632.22 467.29
  C 1644.77 469.59 1653.29 478.36 1659.15 489.35
  C 1666.44 503.01 1675.76 520.07 1683.28 536.23
  C 1689.34 549.26 1696.76 563.93 1702.61 579.59
  Q 1707.88 593.73 1708.41 595.12
  Q 1713.38 608.10 1714.20 610.63
  Q 1727.28 651.07 1730.19 660.30
  Q 1733.21 669.89 1735.29 679.32
  C 1737.45 689.14 1739.74 696.34 1741.44 704.89
  Q 1743.18 713.71 1745.57 723.30
  Q 1748.24 734.05 1749.69 741.70
  Q 1753.45 761.57 1754.39 768.28
  Q 1756.06 780.28 1756.31 781.46
  C 1758.67 792.62 1758.81 803.73 1760.25 814.54
  C 1762.54 831.87 1762.08 848.21 1763.49 868.33
  Q 1763.88 873.96 1764.00 882.75
  Q 1764.24 900.05 1763.83 927.00
  C 1763.75 932.28 1762.07 939.93 1761.84 946.26
  Q 1761.00 969.20 1759.33 981.66
  Q 1757.73 993.53 1757.11 1000.42
  Q 1756.27 1009.59 1755.72 1012.57
  C 1753.92 1022.20 1753.27 1029.20 1751.09 1040.53
  Q 1749.87 1046.84 1748.38 1056.41
  C 1746.85 1066.29 1741.83 1083.08 1738.94 1096.62
  Q 1737.29 1104.33 1735.68 1109.86
  Q 1734.28 1114.63 1730.96 1127.15
  Q 1727.62 1139.78 1726.13 1144.41
  Q 1717.52 1171.22 1707.30 1199.06
  Q 1705.65 1203.56 1700.83 1214.54
  C 1696.62 1224.14 1691.58 1236.56 1686.43 1247.20
  Q 1672.96 1274.99 1672.48 1275.97
  Q 1666.72 1287.68 1651.35 1314.14
  Q 1641.78 1330.61 1622.53 1359.95
  Q 1614.38 1372.38 1604.14 1385.91
  Q 1596.60 1395.87 1585.26 1411.51
  C 1581.56 1416.61 1576.25 1422.25 1572.28 1427.52
  C 1564.22 1438.22 1553.05 1450.85 1545.25 1460.19
  C 1539.07 1467.59 1531.10 1475.93 1526.38 1480.63
  Q 1522.09 1484.90 1501.61 1504.91
  C 1492.11 1514.19 1483.19 1521.60 1472.24 1531.24
  Q 1457.26 1544.43 1449.27 1550.53
  Q 1436.95 1559.93 1428.29 1567.26
  Q 1417.95 1575.99 1401.81 1577.29
  Q 1400.76 1577.37 1393.93 1576.11
  C 1375.99 1572.79 1366.34 1556.16 1367.66 1539.06
  Q 1368.31 1530.69 1373.79 1522.75
  Q 1375.71 1519.98 1386.84 1510.92
  C 1399.21 1500.86 1406.93 1495.35 1417.00 1486.26
  Q 1426.53 1477.66 1436.02 1469.82
  C 1442.68 1464.31 1449.42 1457.57 1455.75 1451.25
  Q 1464.89 1442.10 1488.75 1416.53
  Q 1498.06 1406.56 1505.79 1397.07
  Q 1519.01 1380.83 1522.26 1377.15
  C 1530.37 1367.95 1535.04 1360.20 1543.23 1349.82
  Q 1547.40 1344.53 1555.20 1332.75
  Q 1560.20 1325.19 1566.97 1315.50
  Q 1571.19 1309.45 1572.40 1307.40
  C 1574.77 1303.40 1577.20 1300.17 1579.41 1296.43
  Q 1595.08 1269.95 1610.65 1240.82
  C 1613.83 1234.88 1617.50 1226.92 1619.54 1222.32
  Q 1631.13 1196.11 1634.91 1187.81
  Q 1640.60 1175.32 1644.55 1163.62
  C 1651.73 1142.39 1659.41 1121.93 1665.07 1100.97
  Q 1672.01 1075.28 1674.36 1063.67
  C 1674.91 1060.96 1675.58 1056.19 1676.47 1052.56
  Q 1678.11 1045.80 1678.70 1042.06
  C 1679.91 1034.27 1681.79 1027.09 1682.44 1020.77
  Q 1682.83 1017.05 1683.87 1011.79
  C 1685.77 1002.18 1686.56 991.14 1687.58 983.26
  C 1689.54 968.26 1690.24 953.44 1691.66 940.36
  Q 1693.08 927.40 1693.25 912.59
  C 1693.44 895.42 1693.64 879.50 1692.54 863.89
  C 1691.56 849.94 1690.57 830.46 1690.07 823.37
  C 1689.48 815.00 1687.97 807.91 1687.37 799.96
  Q 1687.05 795.69 1685.00 784.89
  Q 1683.87 778.99 1682.91 769.76
  Q 1682.74 768.14 1682.22 766.06
  Z"
/>
<path fill="#ffffff" d="
  M 918.89 783.30
  Q 932.55 789.76 941.65 803.65
  Q 946.05 810.36 947.66 814.59
  Q 955.34 834.83 948.34 855.84
  C 943.14 871.43 933.37 886.12 918.35 893.84
  Q 896.39 905.13 872.24 899.73
  C 855.69 896.02 843.11 888.50 834.04 874.19
  Q 825.70 861.03 823.09 845.23
  Q 822.65 842.52 822.88 839.32
  C 823.82 826.35 827.82 812.69 835.89 802.69
  C 848.90 786.59 868.60 775.55 889.66 776.25
  Q 905.06 776.76 918.89 783.30
  Z"
/>
<path fill="#1b3359" d="
  M 753.82 1545.00
  C 746.74 1543.27 739.36 1542.29 731.21 1540.28
  Q 724.82 1538.70 717.38 1536.77
  Q 708.10 1534.37 703.64 1533.01
  Q 690.70 1529.06 689.96 1528.90
  Q 681.72 1527.04 676.69 1523.67
  C 667.49 1517.50 662.01 1506.95 661.12 1495.90
  Q 659.53 1475.85 674.95 1465.01
  Q 684.06 1458.61 695.97 1459.00
  Q 701.37 1459.17 714.90 1463.57
  Q 728.51 1467.98 738.96 1470.27
  Q 748.25 1472.31 749.46 1472.68
  Q 756.02 1474.70 759.93 1475.02
  Q 761.37 1475.14 775.58 1478.10
  Q 784.18 1479.89 806.44 1483.30
  Q 820.27 1485.42 833.04 1486.03
  Q 877.37 1488.14 912.75 1487.81
  Q 919.61 1487.74 939.60 1486.76
  C 954.94 1486.01 973.40 1483.61 986.07 1482.12
  C 988.54 1481.83 992.27 1480.86 995.36 1480.43
  Q 1011.37 1478.23 1021.65 1475.58
  C 1030.30 1473.35 1035.53 1472.47 1043.29 1470.13
  Q 1047.51 1468.86 1063.85 1464.84
  Q 1068.03 1463.81 1081.57 1459.86
  Q 1088.70 1457.78 1098.90 1453.76
  Q 1118.11 1446.19 1125.93 1442.88
  Q 1136.96 1438.20 1137.03 1438.18
  C 1147.51 1434.20 1156.99 1428.62 1167.09 1423.86
  Q 1172.77 1421.18 1177.19 1418.79
  C 1189.04 1412.39 1201.10 1406.17 1212.08 1399.00
  Q 1225.78 1390.07 1237.26 1382.49
  C 1251.25 1373.26 1265.33 1361.98 1278.97 1351.05
  C 1290.00 1342.21 1300.35 1331.34 1310.86 1321.79
  Q 1321.10 1312.49 1324.28 1309.03
  C 1335.48 1296.84 1344.75 1287.54 1355.03 1274.85
  Q 1366.72 1260.43 1375.86 1248.90
  Q 1379.16 1244.73 1381.45 1241.44
  C 1383.60 1238.34 1386.29 1235.04 1388.66 1231.33
  Q 1400.76 1212.35 1406.39 1204.14
  Q 1408.64 1200.86 1416.47 1187.51
  Q 1422.23 1177.69 1425.78 1170.45
  C 1431.25 1159.30 1435.69 1151.24 1440.68 1139.96
  Q 1449.74 1119.47 1452.89 1111.64
  Q 1464.98 1081.63 1472.45 1057.49
  C 1473.80 1053.12 1474.62 1048.71 1475.64 1044.88
  Q 1481.83 1021.60 1484.58 1004.63
  Q 1486.63 992.00 1487.49 988.18
  C 1489.36 979.91 1489.47 970.92 1491.19 962.25
  C 1493.09 952.64 1493.58 943.76 1494.10 933.02
  C 1494.62 922.61 1495.85 914.26 1496.09 904.99
  Q 1496.58 886.36 1496.52 872.75
  Q 1496.46 861.63 1497.93 857.03
  Q 1501.81 844.81 1511.80 838.00
  Q 1516.48 834.81 1524.65 832.44
  Q 1532.37 830.20 1539.81 832.17
  Q 1540.83 832.44 1547.61 834.91
  C 1554.32 837.35 1560.36 843.45 1563.17 849.11
  C 1567.79 858.38 1567.99 867.45 1568.08 880.93
  Q 1568.28 908.82 1567.79 916.25
  Q 1565.56 950.34 1562.48 973.05
  Q 1561.76 978.34 1561.76 978.40
  Q 1561.10 984.01 1560.33 990.15
  C 1559.27 998.52 1557.12 1006.26 1555.93 1014.25
  C 1555.18 1019.23 1553.72 1024.18 1552.86 1029.45
  Q 1552.39 1032.37 1551.53 1035.54
  Q 1547.94 1048.78 1545.48 1060.70
  Q 1544.60 1065.00 1543.27 1069.21
  C 1542.24 1072.47 1541.34 1076.60 1540.08 1080.49
  Q 1537.60 1088.09 1532.04 1104.53
  C 1528.08 1116.22 1524.41 1124.82 1518.97 1138.21
  C 1515.61 1146.47 1512.21 1153.39 1508.17 1162.70
  C 1502.83 1175.02 1495.59 1189.38 1488.78 1201.83
  Q 1478.96 1219.77 1478.21 1221.22
  Q 1473.67 1230.07 1467.08 1240.30
  Q 1456.70 1256.41 1444.64 1273.98
  Q 1437.49 1284.40 1430.08 1293.84
  C 1421.91 1304.25 1416.95 1311.33 1409.77 1319.59
  Q 1393.20 1338.62 1385.13 1347.37
  Q 1366.76 1367.27 1344.47 1387.04
  Q 1337.22 1393.48 1332.19 1398.14
  C 1323.96 1405.76 1314.57 1411.95 1306.17 1418.90
  Q 1299.15 1424.72 1292.92 1429.11
  Q 1274.62 1441.98 1247.80 1460.04
  C 1237.85 1466.74 1227.25 1471.49 1217.15 1477.50
  C 1207.09 1483.48 1194.78 1489.30 1184.61 1493.85
  C 1167.98 1501.29 1157.19 1506.50 1141.66 1512.65
  Q 1123.87 1519.69 1117.58 1522.01
  Q 1098.59 1529.01 1070.27 1536.69
  Q 1036.79 1545.77 1002.43 1550.84
  C 996.45 1551.73 987.79 1552.18 980.21 1553.17
  Q 945.98 1557.64 916.25 1558.10
  Q 899.58 1558.36 871.56 1558.01
  Q 848.69 1557.73 826.97 1555.47
  Q 798.70 1552.54 780.68 1550.03
  Q 774.82 1549.21 769.17 1547.88
  C 764.21 1546.72 759.11 1546.29 753.82 1545.00
  Z"
/>
<path fill="#1b3359" d="
  M 24.36 1004.93
  Q 23.09 993.37 22.53 990.27
  Q 20.84 980.96 20.32 975.68
  C 19.37 966.01 17.65 956.95 17.11 947.36
  C 16.53 936.93 16.54 932.90 15.25 923.49
  Q 14.51 918.11 14.37 911.38
  Q 14.14 899.70 14.33 873.98
  C 14.46 855.65 26.57 843.42 43.57 838.82
  Q 49.41 837.25 54.58 838.27
  Q 61.90 839.73 65.18 841.67
  Q 78.72 849.67 83.20 864.07
  C 85.61 871.83 84.79 880.53 84.88 890.52
  C 84.98 900.58 85.62 908.51 85.84 917.50
  Q 85.97 922.37 86.78 932.00
  Q 88.54 952.64 91.55 974.78
  C 92.68 983.14 94.93 990.83 95.47 998.69
  Q 95.62 1000.91 97.51 1009.64
  C 98.62 1014.81 99.14 1020.44 100.51 1025.82
  Q 101.14 1028.28 101.62 1031.04
  C 105.84 1055.26 111.55 1079.40 119.48 1102.05
  Q 122.22 1109.88 125.28 1119.51
  C 126.94 1124.76 130.21 1135.49 133.29 1142.73
  Q 135.39 1147.67 139.35 1157.83
  C 143.68 1168.96 147.55 1176.74 155.18 1193.32
  Q 160.23 1204.27 163.27 1210.04
  Q 167.24 1217.55 172.12 1226.27
  C 176.15 1233.44 179.12 1241.19 178.12 1249.37
  C 176.16 1265.54 165.20 1279.30 148.79 1281.49
  C 132.78 1283.63 119.94 1277.94 111.13 1264.30
  Q 105.13 1255.02 101.18 1246.59
  C 82.53 1206.76 68.31 1174.37 56.61 1137.18
  Q 46.55 1105.18 45.27 1100.50
  Q 42.43 1090.11 40.23 1081.46
  Q 38.58 1074.99 37.84 1071.64
  C 35.18 1059.53 32.23 1047.32 29.71 1035.80
  Q 27.87 1027.43 27.24 1022.60
  C 26.40 1016.18 25.09 1011.53 24.36 1004.93
  Z"
/>
<path fill="#ffffff" d="
  M 193.67 1462.24
  A 1.76 1.76 0.0 0 1 193.45 1459.83
  Q 195.66 1457.01 198.82 1452.34
  Q 214.49 1429.14 230.01 1406.62
  Q 237.27 1396.09 239.03 1393.07
  C 241.56 1388.73 246.85 1380.62 251.00 1374.93
  Q 263.98 1357.10 276.74 1337.33
  C 286.15 1322.75 294.44 1311.54 304.05 1297.05
  Q 304.22 1296.78 307.53 1292.06
  Q 322.14 1271.23 346.48 1237.77
  C 354.52 1226.72 363.35 1213.18 372.14 1201.39
  Q 392.08 1174.65 410.96 1148.66
  Q 419.13 1137.41 423.00 1132.16
  C 430.68 1121.73 439.55 1111.52 447.47 1100.91
  C 453.31 1093.10 459.91 1086.24 467.25 1077.75
  Q 476.92 1066.57 487.49 1055.82
  C 495.94 1047.23 501.97 1040.01 510.17 1032.17
  C 525.85 1017.21 541.20 1004.43 560.01 989.87
  Q 573.95 979.07 585.75 971.60
  C 603.05 960.65 619.20 951.68 637.64 942.86
  Q 653.38 935.33 658.59 932.89
  Q 680.94 922.43 702.69 915.70
  C 707.11 914.33 711.44 912.34 716.27 911.11
  Q 724.47 909.02 735.78 905.68
  C 747.00 902.36 758.00 900.85 768.67 896.45
  A 1.54 1.53 -26.7 0 1 770.58 897.08
  Q 775.82 905.87 783.42 916.17
  Q 787.69 921.96 792.81 927.18
  Q 801.71 936.25 803.68 937.81
  Q 806.15 939.76 806.86 940.03
  A 1.39 1.38 -60.4 0 1 807.45 942.19
  C 799.51 952.17 791.86 964.69 784.40 974.87
  Q 763.05 1004.01 754.18 1015.92
  Q 752.51 1018.16 749.34 1021.85
  Q 730.79 1043.39 726.19 1048.95
  C 720.00 1056.45 709.40 1065.81 701.73 1074.23
  C 697.39 1078.98 693.58 1083.10 688.90 1087.39
  Q 677.36 1097.97 669.97 1105.30
  Q 659.84 1115.36 653.65 1120.82
  C 646.45 1127.17 639.57 1134.38 631.46 1141.04
  Q 615.41 1154.21 597.38 1170.87
  Q 590.30 1177.42 552.64 1208.51
  Q 544.02 1215.63 538.95 1220.13
  Q 528.49 1229.43 525.37 1231.87
  Q 506.40 1246.71 499.08 1252.84
  C 491.43 1259.23 483.97 1264.53 476.54 1270.52
  C 470.11 1275.70 462.42 1282.52 455.92 1287.42
  C 452.47 1290.02 445.88 1294.91 440.96 1299.15
  Q 432.81 1306.19 424.20 1312.45
  C 412.45 1320.99 403.85 1328.92 392.97 1337.50
  Q 391.18 1338.91 368.51 1356.20
  C 362.34 1360.91 356.36 1366.53 349.56 1371.41
  Q 335.16 1381.75 330.79 1385.31
  Q 295.82 1413.77 265.55 1436.48
  Q 253.66 1445.41 245.08 1452.77
  Q 240.29 1456.88 224.80 1469.30
  C 221.49 1471.96 217.86 1476.05 214.72 1478.19
  C 212.39 1479.78 211.47 1479.56 209.51 1477.61
  Q 197.09 1465.25 193.67 1462.24
  Z"
/>
<path fill="#1b3359" d="
  M 1165.30 1169.72
  C 1156.78 1177.40 1147.61 1185.00 1135.22 1195.54
  C 1131.36 1198.83 1127.05 1202.13 1122.86 1204.93
  Q 1101.35 1219.28 1094.67 1223.66
  C 1077.41 1234.96 1058.81 1242.42 1039.33 1251.11
  Q 1036.42 1252.41 1021.79 1257.35
  Q 1012.87 1260.37 1003.95 1262.61
  C 986.14 1267.09 970.73 1270.60 956.18 1273.18
  C 946.61 1274.87 935.04 1275.83 926.63 1276.85
  Q 906.78 1279.25 884.03 1278.32
  Q 877.59 1278.05 874.49 1277.09
  C 867.69 1274.98 860.36 1270.82 855.86 1264.59
  C 847.18 1252.54 846.47 1235.46 855.20 1223.33
  Q 861.47 1214.62 872.18 1210.73
  Q 875.46 1209.53 882.01 1209.36
  Q 907.05 1208.69 909.82 1208.61
  C 919.08 1208.36 933.54 1207.04 945.31 1204.75
  Q 972.85 1199.41 986.02 1195.47
  Q 1007.17 1189.15 1040.83 1174.36
  Q 1044.94 1172.56 1056.19 1165.62
  Q 1071.56 1156.16 1086.22 1145.95
  C 1096.96 1138.48 1105.04 1130.41 1115.96 1119.92
  C 1118.65 1117.34 1122.41 1114.63 1124.75 1112.99
  Q 1131.38 1108.33 1139.08 1107.24
  Q 1156.66 1104.74 1168.87 1117.39
  C 1171.36 1119.97 1174.88 1124.65 1176.17 1128.57
  Q 1178.94 1136.92 1178.37 1143.20
  C 1177.43 1153.55 1173.10 1162.68 1165.30 1169.72
  Z"
/>
<path fill="#1b3359" d="
  M 757.09 1741.75
  C 737.04 1738.10 725.00 1735.72 703.05 1730.70
  Q 695.89 1729.07 695.82 1729.05
  C 689.40 1727.91 685.05 1726.35 678.38 1724.90
  Q 673.68 1723.87 668.24 1722.28
  C 654.64 1718.30 639.60 1714.45 626.79 1710.06
  Q 601.33 1701.35 595.81 1699.17
  Q 581.63 1693.57 574.38 1691.12
  Q 563.78 1687.52 553.04 1682.70
  Q 529.22 1672.01 526.30 1670.60
  Q 516.10 1665.66 514.93 1665.11
  Q 507.65 1661.70 503.32 1659.47
  Q 476.48 1645.65 451.41 1631.09
  C 431.11 1619.30 410.12 1604.35 389.77 1590.72
  Q 378.40 1583.10 371.70 1571.81
  Q 368.65 1566.66 367.17 1559.50
  C 364.92 1548.62 368.69 1537.67 376.56 1529.83
  Q 387.43 1519.00 403.47 1520.00
  Q 409.77 1520.39 412.52 1521.44
  C 417.29 1523.26 422.22 1526.09 426.88 1530.03
  C 441.08 1542.04 453.76 1549.64 473.52 1561.99
  Q 482.69 1567.73 496.39 1576.12
  C 504.42 1581.05 513.53 1584.84 521.52 1589.38
  Q 529.65 1594.01 535.06 1596.67
  Q 551.07 1604.52 580.59 1617.85
  Q 602.32 1627.66 627.42 1635.50
  C 634.04 1637.56 641.37 1640.98 647.86 1642.58
  Q 649.61 1643.02 652.14 1644.03
  C 656.75 1645.87 661.96 1647.03 673.00 1650.28
  C 684.43 1653.65 690.17 1655.72 698.61 1657.27
  C 703.09 1658.10 707.75 1659.91 711.40 1660.64
  C 717.28 1661.81 721.91 1663.27 727.30 1664.25
  Q 732.54 1665.20 750.60 1668.94
  Q 761.38 1671.17 768.02 1671.94
  C 775.99 1672.87 782.83 1674.50 791.36 1675.45
  Q 829.17 1679.69 844.00 1680.50
  Q 871.01 1681.98 916.60 1681.47
  Q 923.37 1681.40 939.89 1680.47
  Q 947.76 1680.02 963.17 1679.36
  C 966.99 1679.19 970.28 1678.65 975.15 1677.89
  C 987.90 1675.88 1003.48 1681.07 1011.22 1691.69
  C 1015.43 1697.47 1019.51 1707.31 1018.63 1714.64
  C 1016.38 1733.50 1001.60 1745.70 983.18 1747.37
  Q 973.90 1748.22 960.91 1749.48
  Q 945.68 1750.96 941.55 1751.10
  C 935.18 1751.31 925.77 1751.64 915.67 1752.35
  C 887.32 1754.36 862.94 1752.45 827.66 1750.49
  Q 818.13 1749.95 809.39 1748.75
  C 799.72 1747.42 787.40 1746.73 776.56 1744.59
  C 770.61 1743.41 763.71 1742.96 757.09 1741.75
  Z"
/>
</svg>
