<?xml version="1.0" encoding="UTF-8" standalone="no"?>
<!DOCTYPE svg PUBLIC "-//W3C//DTD SVG 1.1//EN" "http://www.w3.org/Graphics/SVG/1.1/DTD/svg11.dtd">
<svg xmlns="http://www.w3.org/2000/svg" version="1.1" viewBox="0.00 0.00 1024.00 1024.00">
<g stroke-width="2.00" fill="none" stroke-linecap="butt">
<path stroke="#878b95" vector-effect="non-scaling-stroke" d="
  M 335.92 190.19
  A 2.76 2.26 61.9 0 0 336.57 186.92
  Q 335.47 184.58 334.12 182.88
  C 327.30 174.27 322.33 167.84 315.95 161.54
  C 267.29 113.47 184.65 90.68 122.61 126.81
  C 92.80 144.17 71.95 174.19 69.45 209.00
  Q 67.24 239.73 80.46 265.30
  C 92.75 289.08 114.41 308.83 138.31 321.17
  Q 162.77 333.80 193.05 337.65
  C 195.80 338.00 198.62 338.52 201.09 337.77
  C 205.35 336.47 204.33 331.46 201.46 329.34
  C 197.90 326.71 193.50 325.07 189.78 322.54
  C 173.35 311.36 158.07 293.45 152.86 273.70
  C 146.05 247.94 150.77 221.88 166.79 200.64
  C 177.67 186.22 193.64 175.30 211.39 170.31
  Q 222.97 167.06 232.39 166.37
  Q 285.40 162.49 330.74 189.94
  Q 333.59 191.67 335.92 190.19"
/>
<path stroke="#878b95" vector-effect="non-scaling-stroke" d="
  M 687.97 190.17
  Q 690.50 191.19 693.30 189.79
  C 698.90 186.97 707.26 181.86 714.49 178.84
  Q 751.09 163.57 790.48 166.23
  C 819.20 168.17 845.48 181.08 860.71 205.97
  C 866.62 215.62 871.23 226.07 872.31 236.73
  C 873.64 249.77 873.56 263.51 869.27 276.16
  Q 862.50 296.12 848.07 311.09
  C 841.54 317.86 832.84 324.24 823.73 327.48
  C 820.85 328.51 817.67 330.72 817.27 334.01
  C 816.85 337.41 820.58 338.28 823.26 338.15
  C 837.00 337.50 851.40 334.27 864.88 329.94
  Q 898.68 319.07 923.71 293.18
  C 936.28 280.18 946.93 263.54 951.30 246.00
  C 959.39 213.60 953.94 181.82 933.84 154.93
  C 915.18 129.99 884.31 114.70 853.97 110.57
  Q 833.71 107.82 813.02 110.46
  Q 772.67 115.61 738.90 136.95
  Q 712.83 153.42 693.16 178.14
  C 690.92 180.95 685.85 186.43 687.26 189.49
  A 1.34 1.33 -1.1 0 0 687.97 190.17"
/>
<path stroke="#878b95" vector-effect="non-scaling-stroke" d="
  M 725.55 768.45
  C 730.30 771.97 735.36 775.42 735.54 781.80
  Q 736.25 806.45 754.91 820.21
  C 762.58 825.86 770.78 828.29 780.51 829.02
  Q 802.13 830.64 817.84 816.37
  Q 825.93 809.03 829.87 800.67
  Q 834.30 791.27 834.26 778.23
  Q 834.21 756.11 816.81 741.62
  Q 804.64 731.48 790.51 730.49
  C 781.17 729.84 773.92 731.38 766.70 724.06
  C 737.89 694.86 713.21 660.60 692.86 625.41
  Q 678.36 600.33 669.54 575.93
  Q 660.89 551.99 658.87 525.46
  Q 657.66 509.64 660.30 493.02
  Q 664.09 469.20 672.25 448.25
  Q 682.76 421.28 697.27 397.02
  Q 714.59 368.05 732.38 345.37
  Q 748.20 325.20 765.46 306.22
  C 771.38 299.71 776.09 299.24 784.45 299.45
  C 799.38 299.82 812.65 294.26 822.52 283.46
  Q 836.55 268.11 834.92 246.19
  C 832.44 212.89 797.79 193.33 767.15 204.90
  C 750.84 211.06 738.28 225.92 736.53 243.67
  Q 735.74 251.72 735.32 252.76
  C 732.74 259.12 727.64 262.17 721.80 266.39
  C 713.12 272.67 703.34 278.93 695.84 284.15
  C 683.75 292.57 673.17 298.30 661.09 305.80
  C 649.36 313.08 633.89 321.02 623.84 326.07
  C 600.17 337.95 575.19 347.43 549.23 353.16
  Q 512.26 361.32 476.07 353.57
  Q 443.74 346.65 413.38 332.62
  C 385.43 319.69 360.03 305.29 334.01 288.50
  C 324.42 282.30 313.09 273.95 306.16 269.39
  Q 304.02 267.98 294.25 260.53
  Q 287.72 255.55 287.41 248.57
  Q 286.57 229.45 274.64 216.93
  C 259.45 201.00 234.01 196.85 214.20 207.54
  C 198.10 216.22 188.66 231.85 188.54 249.91
  Q 188.48 259.47 192.10 268.34
  C 199.14 285.54 213.89 297.25 232.62 299.13
  Q 236.42 299.51 245.30 299.63
  C 253.63 299.75 260.14 307.59 265.23 313.34
  Q 284.94 335.59 303.22 360.50
  Q 322.65 386.99 339.30 419.64
  C 352.32 445.18 361.70 473.44 364.36 501.07
  Q 366.60 524.34 361.25 547.77
  Q 355.90 571.26 347.48 591.03
  Q 338.97 611.00 326.04 632.32
  Q 309.22 660.06 286.74 689.49
  Q 280.15 698.13 269.78 709.78
  C 264.12 716.14 260.16 720.81 254.72 725.72
  Q 252.76 727.48 248.80 729.19
  C 245.06 730.80 239.15 730.14 235.24 730.48
  Q 220.63 731.76 209.86 739.31
  C 190.42 752.96 183.35 776.95 192.60 798.92
  C 198.51 812.98 212.67 825.77 228.36 828.19
  Q 261.86 833.37 280.03 807.12
  C 283.48 802.14 285.66 796.23 286.06 790.51
  C 286.56 783.45 285.76 776.63 292.77 771.52
  Q 308.24 760.25 320.90 751.44
  Q 364.22 721.31 413.49 698.77
  C 433.65 689.56 455.19 681.74 475.94 677.93
  Q 514.93 670.78 553.81 680.16
  Q 570.02 684.07 581.21 688.12
  Q 611.48 699.06 641.31 715.00
  Q 684.87 738.27 725.55 768.45"
/>
<path stroke="#878b95" vector-effect="non-scaling-stroke" d="
  M 203.16 693.72
  A 2.85 2.27 6.8 0 0 201.04 691.57
  Q 198.83 691.01 196.27 691.35
  C 185.88 692.72 177.45 693.73 169.04 696.14
  Q 151.49 701.17 138.85 707.42
  Q 123.60 714.95 108.74 727.26
  Q 95.28 738.42 85.75 753.10
  C 83.01 757.33 81.00 761.81 78.60 766.34
  Q 76.07 771.12 74.27 776.75
  Q 68.66 794.21 69.13 813.48
  C 69.84 842.12 82.51 867.81 103.12 887.28
  C 123.12 906.19 153.22 917.06 180.74 918.76
  Q 217.22 921.01 252.01 909.02
  Q 268.60 903.31 285.42 893.21
  C 305.42 881.20 321.71 864.95 335.49 846.36
  C 336.97 844.35 338.20 842.20 336.13 840.33
  C 334.33 838.70 331.82 839.37 330.08 840.57
  Q 323.23 845.26 316.12 848.61
  Q 297.61 857.33 277.23 861.96
  Q 258.96 866.12 237.10 864.67
  C 210.33 862.89 186.58 852.80 169.29 832.74
  Q 159.83 821.77 155.13 808.63
  C 147.44 787.15 147.91 762.14 158.90 741.67
  C 166.71 727.12 177.99 713.96 191.98 705.41
  C 197.91 701.79 203.64 699.66 203.16 693.72"
/>
<path stroke="#878b95" vector-effect="non-scaling-stroke" d="
  M 817.64 693.41
  C 816.16 698.70 820.60 701.15 824.95 703.07
  C 833.30 706.74 840.39 712.07 847.30 719.03
  C 859.30 731.13 868.62 746.90 871.57 762.97
  Q 873.73 774.74 872.61 788.69
  Q 871.01 808.83 859.72 825.50
  C 853.42 834.82 844.79 844.05 834.37 850.26
  Q 817.45 860.35 798.69 863.64
  Q 787.58 865.60 771.75 864.86
  Q 758.05 864.23 744.97 861.55
  Q 717.74 855.96 692.79 840.26
  C 690.49 838.81 686.36 838.96 686.72 842.68
  Q 686.83 843.87 688.52 846.25
  Q 716.72 886.00 761.78 904.75
  C 792.07 917.35 823.98 922.00 856.49 917.52
  Q 888.18 913.16 913.71 894.20
  C 925.66 885.32 934.88 874.12 942.13 861.92
  C 954.19 841.60 957.61 814.03 953.09 791.03
  C 948.09 765.59 932.17 741.71 911.44 725.53
  C 904.85 720.38 896.72 714.60 889.20 710.57
  Q 859.60 694.72 825.02 691.41
  C 822.90 691.20 818.34 690.93 817.64 693.41"
/>
</g>
<path fill="#0f172a" d="
  M 1024.00 0.00
  L 1024.00 1024.00
  L 0.00 1024.00
  L 0.00 0.00
  L 1024.00 0.00
  Z
  M 335.92 190.19
  A 2.76 2.26 61.9 0 0 336.57 186.92
  Q 335.47 184.58 334.12 182.88
  C 327.30 174.27 322.33 167.84 315.95 161.54
  C 267.29 113.47 184.65 90.68 122.61 126.81
  C 92.80 144.17 71.95 174.19 69.45 209.00
  Q 67.24 239.73 80.46 265.30
  C 92.75 289.08 114.41 308.83 138.31 321.17
  Q 162.77 333.80 193.05 337.65
  C 195.80 338.00 198.62 338.52 201.09 337.77
  C 205.35 336.47 204.33 331.46 201.46 329.34
  C 197.90 326.71 193.50 325.07 189.78 322.54
  C 173.35 311.36 158.07 293.45 152.86 273.70
  C 146.05 247.94 150.77 221.88 166.79 200.64
  C 177.67 186.22 193.64 175.30 211.39 170.31
  Q 222.97 167.06 232.39 166.37
  Q 285.40 162.49 330.74 189.94
  Q 333.59 191.67 335.92 190.19
  Z
  M 687.97 190.17
  Q 690.50 191.19 693.30 189.79
  C 698.90 186.97 707.26 181.86 714.49 178.84
  Q 751.09 163.57 790.48 166.23
  C 819.20 168.17 845.48 181.08 860.71 205.97
  C 866.62 215.62 871.23 226.07 872.31 236.73
  C 873.64 249.77 873.56 263.51 869.27 276.16
  Q 862.50 296.12 848.07 311.09
  C 841.54 317.86 832.84 324.24 823.73 327.48
  C 820.85 328.51 817.67 330.72 817.27 334.01
  C 816.85 337.41 820.58 338.28 823.26 338.15
  C 837.00 337.50 851.40 334.27 864.88 329.94
  Q 898.68 319.07 923.71 293.18
  C 936.28 280.18 946.93 263.54 951.30 246.00
  C 959.39 213.60 953.94 181.82 933.84 154.93
  C 915.18 129.99 884.31 114.70 853.97 110.57
  Q 833.71 107.82 813.02 110.46
  Q 772.67 115.61 738.90 136.95
  Q 712.83 153.42 693.16 178.14
  C 690.92 180.95 685.85 186.43 687.26 189.49
  A 1.34 1.33 -1.1 0 0 687.97 190.17
  Z
  M 725.55 768.45
  C 730.30 771.97 735.36 775.42 735.54 781.80
  Q 736.25 806.45 754.91 820.21
  C 762.58 825.86 770.78 828.29 780.51 829.02
  Q 802.13 830.64 817.84 816.37
  Q 825.93 809.03 829.87 800.67
  Q 834.30 791.27 834.26 778.23
  Q 834.21 756.11 816.81 741.62
  Q 804.64 731.48 790.51 730.49
  C 781.17 729.84 773.92 731.38 766.70 724.06
  C 737.89 694.86 713.21 660.60 692.86 625.41
  Q 678.36 600.33 669.54 575.93
  Q 660.89 551.99 658.87 525.46
  Q 657.66 509.64 660.30 493.02
  Q 664.09 469.20 672.25 448.25
  Q 682.76 421.28 697.27 397.02
  Q 714.59 368.05 732.38 345.37
  Q 748.20 325.20 765.46 306.22
  C 771.38 299.71 776.09 299.24 784.45 299.45
  C 799.38 299.82 812.65 294.26 822.52 283.46
  Q 836.55 268.11 834.92 246.19
  C 832.44 212.89 797.79 193.33 767.15 204.90
  C 750.84 211.06 738.28 225.92 736.53 243.67
  Q 735.74 251.72 735.32 252.76
  C 732.74 259.12 727.64 262.17 721.80 266.39
  C 713.12 272.67 703.34 278.93 695.84 284.15
  C 683.75 292.57 673.17 298.30 661.09 305.80
  C 649.36 313.08 633.89 321.02 623.84 326.07
  C 600.17 337.95 575.19 347.43 549.23 353.16
  Q 512.26 361.32 476.07 353.57
  Q 443.74 346.65 413.38 332.62
  C 385.43 319.69 360.03 305.29 334.01 288.50
  C 324.42 282.30 313.09 273.95 306.16 269.39
  Q 304.02 267.98 294.25 260.53
  Q 287.72 255.55 287.41 248.57
  Q 286.57 229.45 274.64 216.93
  C 259.45 201.00 234.01 196.85 214.20 207.54
  C 198.10 216.22 188.66 231.85 188.54 249.91
  Q 188.48 259.47 192.10 268.34
  C 199.14 285.54 213.89 297.25 232.62 299.13
  Q 236.42 299.51 245.30 299.63
  C 253.63 299.75 260.14 307.59 265.23 313.34
  Q 284.94 335.59 303.22 360.50
  Q 322.65 386.99 339.30 419.64
  C 352.32 445.18 361.70 473.44 364.36 501.07
  Q 366.60 524.34 361.25 547.77
  Q 355.90 571.26 347.48 591.03
  Q 338.97 611.00 326.04 632.32
  Q 309.22 660.06 286.74 689.49
  Q 280.15 698.13 269.78 709.78
  C 264.12 716.14 260.16 720.81 254.72 725.72
  Q 252.76 727.48 248.80 729.19
  C 245.06 730.80 239.15 730.14 235.24 730.48
  Q 220.63 731.76 209.86 739.31
  C 190.42 752.96 183.35 776.95 192.60 798.92
  C 198.51 812.98 212.67 825.77 228.36 828.19
  Q 261.86 833.37 280.03 807.12
  C 283.48 802.14 285.66 796.23 286.06 790.51
  C 286.56 783.45 285.76 776.63 292.77 771.52
  Q 308.24 760.25 320.90 751.44
  Q 364.22 721.31 413.49 698.77
  C 433.65 689.56 455.19 681.74 475.94 677.93
  Q 514.93 670.78 553.81 680.16
  Q 570.02 684.07 581.21 688.12
  Q 611.48 699.06 641.31 715.00
  Q 684.87 738.27 725.55 768.45
  Z
  M 203.16 693.72
  A 2.85 2.27 6.8 0 0 201.04 691.57
  Q 198.83 691.01 196.27 691.35
  C 185.88 692.72 177.45 693.73 169.04 696.14
  Q 151.49 701.17 138.85 707.42
  Q 123.60 714.95 108.74 727.26
  Q 95.28 738.42 85.75 753.10
  C 83.01 757.33 81.00 761.81 78.60 766.34
  Q 76.07 771.12 74.27 776.75
  Q 68.66 794.21 69.13 813.48
  C 69.84 842.12 82.51 867.81 103.12 887.28
  C 123.12 906.19 153.22 917.06 180.74 918.76
  Q 217.22 921.01 252.01 909.02
  Q 268.60 903.31 285.42 893.21
  C 305.42 881.20 321.71 864.95 335.49 846.36
  C 336.97 844.35 338.20 842.20 336.13 840.33
  C 334.33 838.70 331.82 839.37 330.08 840.57
  Q 323.23 845.26 316.12 848.61
  Q 297.61 857.33 277.23 861.96
  Q 258.96 866.12 237.10 864.67
  C 210.33 862.89 186.58 852.80 169.29 832.74
  Q 159.83 821.77 155.13 808.63
  C 147.44 787.15 147.91 762.14 158.90 741.67
  C 166.71 727.12 177.99 713.96 191.98 705.41
  C 197.91 701.79 203.64 699.66 203.16 693.72
  Z
  M 817.64 693.41
  C 816.16 698.70 820.60 701.15 824.95 703.07
  C 833.30 706.74 840.39 712.07 847.30 719.03
  C 859.30 731.13 868.62 746.90 871.57 762.97
  Q 873.73 774.74 872.61 788.69
  Q 871.01 808.83 859.72 825.50
  C 853.42 834.82 844.79 844.05 834.37 850.26
  Q 817.45 860.35 798.69 863.64
  Q 787.58 865.60 771.75 864.86
  Q 758.05 864.23 744.97 861.55
  Q 717.74 855.96 692.79 840.26
  C 690.49 838.81 686.36 838.96 686.72 842.68
  Q 686.83 843.87 688.52 846.25
  Q 716.72 886.00 761.78 904.75
  C 792.07 917.35 823.98 922.00 856.49 917.52
  Q 888.18 913.16 913.71 894.20
  C 925.66 885.32 934.88 874.12 942.13 861.92
  C 954.19 841.60 957.61 814.03 953.09 791.03
  C 948.09 765.59 932.17 741.71 911.44 725.53
  C 904.85 720.38 896.72 714.60 889.20 710.57
  Q 859.60 694.72 825.02 691.41
  C 822.90 691.20 818.34 690.93 817.64 693.41
  Z"
/>
<path fill="#ffffff" d="
  M 335.92 190.19
  Q 333.59 191.67 330.74 189.94
  Q 285.40 162.49 232.39 166.37
  Q 222.97 167.06 211.39 170.31
  C 193.64 175.30 177.67 186.22 166.79 200.64
  C 150.77 221.88 146.05 247.94 152.86 273.70
  C 158.07 293.45 173.35 311.36 189.78 322.54
  C 193.50 325.07 197.90 326.71 201.46 329.34
  C 204.33 331.46 205.35 336.47 201.09 337.77
  C 198.62 338.52 195.80 338.00 193.05 337.65
  Q 162.77 333.80 138.31 321.17
  C 114.41 308.83 92.75 289.08 80.46 265.30
  Q 67.24 239.73 69.45 209.00
  C 71.95 174.19 92.80 144.17 122.61 126.81
  C 184.65 90.68 267.29 113.47 315.95 161.54
  C 322.33 167.84 327.30 174.27 334.12 182.88
  Q 335.47 184.58 336.57 186.92
  A 2.76 2.26 61.9 0 1 335.92 190.19
  Z"
/>
<path fill="#ffffff" d="
  M 687.26 189.49
  C 685.85 186.43 690.92 180.95 693.16 178.14
  Q 712.83 153.42 738.90 136.95
  Q 772.67 115.61 813.02 110.46
  Q 833.71 107.82 853.97 110.57
  C 884.31 114.70 915.18 129.99 933.84 154.93
  C 953.94 181.82 959.39 213.60 951.30 246.00
  C 946.93 263.54 936.28 280.18 923.71 293.18
  Q 898.68 319.07 864.88 329.94
  C 851.40 334.27 837.00 337.50 823.26 338.15
  C 820.58 338.28 816.85 337.41 817.27 334.01
  C 817.67 330.72 820.85 328.51 823.73 327.48
  C 832.84 324.24 841.54 317.86 848.07 311.09
  Q 862.50 296.12 869.27 276.16
  C 873.56 263.51 873.64 249.77 872.31 236.73
  C 871.23 226.07 866.62 215.62 860.71 205.97
  C 845.48 181.08 819.20 168.17 790.48 166.23
  Q 751.09 163.57 714.49 178.84
  C 707.26 181.86 698.90 186.97 693.30 189.79
  Q 690.50 191.19 687.97 190.17
  A 1.34 1.33 -1.1 0 1 687.26 189.49
  Z"
/>
<path fill="#ffffff" d="
  M 735.54 781.80
  C 735.36 775.42 730.30 771.97 725.55 768.45
  Q 684.87 738.27 641.31 715.00
  Q 611.48 699.06 581.21 688.12
  Q 570.02 684.07 553.81 680.16
  Q 514.93 670.78 475.94 677.93
  C 455.19 681.74 433.65 689.56 413.49 698.77
  Q 364.22 721.31 320.90 751.44
  Q 308.24 760.25 292.77 771.52
  C 285.76 776.63 286.56 783.45 286.06 790.51
  C 285.66 796.23 283.48 802.14 280.03 807.12
  Q 261.86 833.37 228.36 828.19
  C 212.67 825.77 198.51 812.98 192.60 798.92
  C 183.35 776.95 190.42 752.96 209.86 739.31
  Q 220.63 731.76 235.24 730.48
  C 239.15 730.14 245.06 730.80 248.80 729.19
  Q 252.76 727.48 254.72 725.72
  C 260.16 720.81 264.12 716.14 269.78 709.78
  Q 280.15 698.13 286.74 689.49
  Q 309.22 660.06 326.04 632.32
  Q 338.97 611.00 347.48 591.03
  Q 355.90 571.26 361.25 547.77
  Q 366.60 524.34 364.36 501.07
  C 361.70 473.44 352.32 445.18 339.30 419.64
  Q 322.65 386.99 303.22 360.50
  Q 284.94 335.59 265.23 313.34
  C 260.14 307.59 253.63 299.75 245.30 299.63
  Q 236.42 299.51 232.62 299.13
  C 213.89 297.25 199.14 285.54 192.10 268.34
  Q 188.48 259.47 188.54 249.91
  C 188.66 231.85 198.10 216.22 214.20 207.54
  C 234.01 196.85 259.45 201.00 274.64 216.93
  Q 286.57 229.45 287.41 248.57
  Q 287.72 255.55 294.25 260.53
  Q 304.02 267.98 306.16 269.39
  C 313.09 273.95 324.42 282.30 334.01 288.50
  C 360.03 305.29 385.43 319.69 413.38 332.62
  Q 443.74 346.65 476.07 353.57
  Q 512.26 361.32 549.23 353.16
  C 575.19 347.43 600.17 337.95 623.84 326.07
  C 633.89 321.02 649.36 313.08 661.09 305.80
  C 673.17 298.30 683.75 292.57 695.84 284.15
  C 703.34 278.93 713.12 272.67 721.80 266.39
  C 727.64 262.17 732.74 259.12 735.32 252.76
  Q 735.74 251.72 736.53 243.67
  C 738.28 225.92 750.84 211.06 767.15 204.90
  C 797.79 193.33 832.44 212.89 834.92 246.19
  Q 836.55 268.11 822.52 283.46
  C 812.65 294.26 799.38 299.82 784.45 299.45
  C 776.09 299.24 771.38 299.71 765.46 306.22
  Q 748.20 325.20 732.38 345.37
  Q 714.59 368.05 697.27 397.02
  Q 682.76 421.28 672.25 448.25
  Q 664.09 469.20 660.30 493.02
  Q 657.66 509.64 658.87 525.46
  Q 660.89 551.99 669.54 575.93
  Q 678.36 600.33 692.86 625.41
  C 713.21 660.60 737.89 694.86 766.70 724.06
  C 773.92 731.38 781.17 729.84 790.51 730.49
  Q 804.64 731.48 816.81 741.62
  Q 834.21 756.11 834.26 778.23
  Q 834.30 791.27 829.87 800.67
  Q 825.93 809.03 817.84 816.37
  Q 802.13 830.64 780.51 829.02
  C 770.78 828.29 762.58 825.86 754.91 820.21
  Q 736.25 806.45 735.54 781.80
  Z"
/>
<path fill="#ffffff" d="
  M 203.16 693.72
  C 203.64 699.66 197.91 701.79 191.98 705.41
  C 177.99 713.96 166.71 727.12 158.90 741.67
  C 147.91 762.14 147.44 787.15 155.13 808.63
  Q 159.83 821.77 169.29 832.74
  C 186.58 852.80 210.33 862.89 237.10 864.67
  Q 258.96 866.12 277.23 861.96
  Q 297.61 857.33 316.12 848.61
  Q 323.23 845.26 330.08 840.57
  C 331.82 839.37 334.33 838.70 336.13 840.33
  C 338.20 842.20 336.97 844.35 335.49 846.36
  C 321.71 864.95 305.42 881.20 285.42 893.21
  Q 268.60 903.31 252.01 909.02
  Q 217.22 921.01 180.74 918.76
  C 153.22 917.06 123.12 906.19 103.12 887.28
  C 82.51 867.81 69.84 842.12 69.13 813.48
  Q 68.66 794.21 74.27 776.75
  Q 76.07 771.12 78.60 766.34
  C 81.00 761.81 83.01 757.33 85.75 753.10
  Q 95.28 738.42 108.74 727.26
  Q 123.60 714.95 138.85 707.42
  Q 151.49 701.17 169.04 696.14
  C 177.45 693.73 185.88 692.72 196.27 691.35
  Q 198.83 691.01 201.04 691.57
  A 2.85 2.27 6.8 0 1 203.16 693.72
  Z"
/>
<path fill="#ffffff" d="
  M 817.64 693.41
  C 818.34 690.93 822.90 691.20 825.02 691.41
  Q 859.60 694.72 889.20 710.57
  C 896.72 714.60 904.85 720.38 911.44 725.53
  C 932.17 741.71 948.09 765.59 953.09 791.03
  C 957.61 814.03 954.19 841.60 942.13 861.92
  C 934.88 874.12 925.66 885.32 913.71 894.20
  Q 888.18 913.16 856.49 917.52
  C 823.98 922.00 792.07 917.35 761.78 904.75
  Q 716.72 886.00 688.52 846.25
  Q 686.83 843.87 686.72 842.68
  C 686.36 838.96 690.49 838.81 692.79 840.26
  Q 717.74 855.96 744.97 861.55
  Q 758.05 864.23 771.75 864.86
  Q 787.58 865.60 798.69 863.64
  Q 817.45 860.35 834.37 850.26
  C 844.79 844.05 853.42 834.82 859.72 825.50
  Q 871.01 808.83 872.61 788.69
  Q 873.73 774.74 871.57 762.97
  C 868.62 746.90 859.30 731.13 847.30 719.03
  C 840.39 712.07 833.30 706.74 824.95 703.07
  C 820.60 701.15 816.16 698.70 817.64 693.41
  Z"
/>
</svg>
